<svg width="18" height="18" viewBox="0 0 18 18" fill="none" xmlns="http://www.w3.org/2000/svg">
<path fill-rule="evenodd" clip-rule="evenodd" d="M8.54167 15.8439H1.41667C1.3725 15.8439 1.33 15.8256 1.29917 15.7948C1.2675 15.7631 1.25 15.7214 1.25 15.6773V14.4681C1.25 13.7764 1.74417 13.1664 2.50583 12.6481C3.86583 11.7198 6.06667 11.1348 8.54167 11.1348C8.88667 11.1348 9.16667 10.8548 9.16667 10.5098C9.16667 10.1656 8.88667 9.88477 8.54167 9.88477C5.77333 9.88477 3.3225 10.5773 1.80083 11.6148C0.64 12.4064 0 13.4123 0 14.4681V15.6773C0 16.0523 0.149167 16.4131 0.415 16.6789C0.680833 16.9439 1.04083 17.0939 1.41667 17.0939H8.54167C8.88667 17.0931 9.16667 16.8131 9.16667 16.4681C9.16667 16.1239 8.88667 15.8431 8.54167 15.8439Z" fill="currentColor"/>
<path fill-rule="evenodd" clip-rule="evenodd" d="M8.54232 0C6.01232 0 3.95898 2.05333 3.95898 4.58333C3.95898 7.11333 6.01232 9.16667 8.54232 9.16667C11.0723 9.16667 13.1257 7.11333 13.1257 4.58333C13.1257 2.05333 11.0723 0 8.54232 0ZM8.54232 1.25C10.3823 1.25 11.8757 2.74333 11.8757 4.58333C11.8757 6.42333 10.3823 7.91667 8.54232 7.91667C6.70232 7.91667 5.20898 6.42333 5.20898 4.58333C5.20898 2.74333 6.70232 1.25 8.54232 1.25Z" fill="currentColor"/>
<path fill-rule="evenodd" clip-rule="evenodd" d="M13.5426 10.5742C11.9042 10.5742 10.5742 11.9042 10.5742 13.5426C10.5742 15.1809 11.9042 16.5117 13.5426 16.5117C15.1809 16.5117 16.5117 15.1809 16.5117 13.5426C16.5117 11.9042 15.1809 10.5742 13.5426 10.5742ZM13.5426 11.8242C14.4909 11.8242 15.2617 12.5942 15.2617 13.5426C15.2617 14.4909 14.4909 15.2617 13.5426 15.2617C12.5942 15.2617 11.8234 14.4909 11.8234 13.5426C11.8234 12.5942 12.5942 11.8242 13.5426 11.8242Z" fill="currentColor"/>
<path fill-rule="evenodd" clip-rule="evenodd" d="M14.166 11.1968V9.79102C14.166 9.44602 13.886 9.16602 13.541 9.16602C13.196 9.16602 12.916 9.44602 12.916 9.79102V11.1977C12.916 11.5418 13.196 11.8227 13.541 11.8227C13.886 11.8218 14.166 11.5418 14.166 11.1968Z" fill="currentColor"/>
<path fill-rule="evenodd" clip-rule="evenodd" d="M15.6409 12.3271L16.6351 11.3321C16.8792 11.0887 16.8792 10.6921 16.6351 10.4488C16.3917 10.2046 15.9951 10.2046 15.7517 10.4488L14.7567 11.4429C14.5134 11.6871 14.5134 12.0829 14.7567 12.3271C15.0009 12.5704 15.3967 12.5704 15.6409 12.3271Z" fill="currentColor"/>
<path fill-rule="evenodd" clip-rule="evenodd" d="M15.8859 14.166H17.2926C17.6376 14.166 17.9176 13.886 17.9176 13.541C17.9176 13.196 17.6376 12.916 17.2926 12.916H15.8859C15.5417 12.916 15.2617 13.196 15.2617 13.541C15.2609 13.886 15.5417 14.166 15.8859 14.166Z" fill="currentColor"/>
<path fill-rule="evenodd" clip-rule="evenodd" d="M14.7567 15.6409L15.7517 16.6351C15.9951 16.8792 16.3917 16.8792 16.6351 16.6351C16.8792 16.3917 16.8792 15.9951 16.6351 15.7517L15.6409 14.7567C15.3967 14.5134 15.0009 14.5134 14.7567 14.7567C14.5134 15.0009 14.5134 15.3967 14.7567 15.6409Z" fill="currentColor"/>
<path fill-rule="evenodd" clip-rule="evenodd" d="M12.916 15.8848V17.2914C12.916 17.6364 13.196 17.9164 13.541 17.9164C13.886 17.9164 14.166 17.6364 14.166 17.2914V15.8848C14.166 15.5406 13.886 15.2606 13.541 15.2598C13.196 15.2598 12.916 15.5406 12.916 15.8848Z" fill="currentColor"/>
<path fill-rule="evenodd" clip-rule="evenodd" d="M11.4429 14.7567L10.4488 15.7517C10.2046 15.9951 10.2046 16.3917 10.4488 16.6351C10.6921 16.8792 11.0887 16.8792 11.3321 16.6351L12.3271 15.6409C12.5704 15.3967 12.5704 15.0009 12.3271 14.7567C12.0829 14.5134 11.6871 14.5134 11.4429 14.7567Z" fill="currentColor"/>
<path fill-rule="evenodd" clip-rule="evenodd" d="M11.1968 12.916H9.79102C9.44602 12.916 9.16602 13.196 9.16602 13.541C9.16602 13.886 9.44602 14.166 9.79102 14.166H11.1968C11.5418 14.166 11.8227 13.886 11.8218 13.541C11.8218 13.196 11.5418 12.916 11.1968 12.916Z" fill="currentColor"/>
<path fill-rule="evenodd" clip-rule="evenodd" d="M12.3271 11.4429L11.3321 10.4488C11.0887 10.2046 10.6921 10.2046 10.4488 10.4488C10.2046 10.6921 10.2046 11.0887 10.4488 11.3321L11.4429 12.3271C11.6871 12.5704 12.0829 12.5704 12.3271 12.3271C12.5704 12.0829 12.5704 11.6871 12.3271 11.4429Z" fill="currentColor"/>
</svg>
