<svg width="30" height="30" viewBox="0 0 30 30" fill="none" xmlns="http://www.w3.org/2000/svg">
<path fill-rule="evenodd" clip-rule="evenodd" d="M14.9989 1.55273C16.0989 1.55273 17.0239 2.06523 18.6739 3.00273L20.8614 4.24024L20.9516 4.29149C22.6196 5.23399 23.5465 5.75774 24.1114 6.72774C24.6864 7.71524 24.6864 8.80274 24.6864 10.7777V13.3127C24.6841 15.064 24.6505 16.0777 24.1114 17.0027C23.6885 17.729 23.0627 18.2115 22.0751 18.799L22.861 22.5652C23.461 25.4527 23.761 26.9027 22.886 27.8652C22.5235 28.2652 22.111 28.4402 21.6485 28.4402C20.7735 28.4402 19.6985 27.8527 18.311 27.0902L15.4735 25.5402L15.3612 25.4777C15.1774 25.3765 15.011 25.2877 14.9485 25.2777C14.9681 25.2977 14.8344 25.3702 14.6794 25.4552C14.6364 25.479 14.5919 25.5027 14.5485 25.5277L11.686 27.0902L11.6529 27.1077C9.54646 28.2602 8.15556 29.0215 7.11101 27.8652C6.23601 26.9027 6.53601 25.4527 7.13601 22.5777L7.92339 18.794C6.93934 18.2052 6.31827 17.729 5.88638 17.0027C5.38325 16.139 5.32036 15.1977 5.3125 13.654V10.0777C5.32036 8.53273 5.38325 7.59149 5.88638 6.72774C6.46138 5.74024 7.41138 5.20274 9.13638 4.24024L11.3239 3.00273C12.9864 2.06523 13.8989 1.55273 14.9989 1.55273ZM20.3596 19.774L18.6739 20.7277C17.0114 21.6652 16.0989 22.1777 14.9989 22.1777C13.8864 22.1777 12.9739 21.6652 11.3239 20.7277L9.63702 19.774L8.97351 22.9527C8.63601 24.5527 8.26101 26.3527 8.49851 26.6027C8.71101 26.5777 9.81101 25.9777 10.786 25.4402L13.6235 23.8902C14.1735 23.5902 14.5235 23.4027 14.9985 23.4027C15.4735 23.4027 15.8235 23.5902 16.3485 23.8777L19.211 25.4402C20.186 25.9777 21.2985 26.5777 21.5985 26.5527C21.736 26.3402 21.361 24.5527 21.0235 22.9652L20.3596 19.774ZM14.9989 3.42773C14.3989 3.42773 13.7614 3.77774 12.2364 4.64024L10.0489 5.87774C8.46138 6.76524 7.81137 7.15274 7.49887 7.67774C7.22314 8.14149 7.18098 8.78898 7.17486 10.189L7.1744 13.5665C7.17838 14.964 7.21211 15.604 7.49887 16.0777C7.81137 16.6027 8.46138 16.9902 10.0489 17.8777L12.2364 19.1152C13.7614 19.9777 14.3989 20.3277 14.9989 20.3277C15.5989 20.3277 16.2364 19.9777 17.7614 19.1152L19.9489 17.8777C21.5364 16.9902 22.1864 16.6027 22.4989 16.0777C22.8114 15.5527 22.8239 14.7902 22.8239 12.9652V10.7902C22.8239 8.96524 22.8239 8.21524 22.4989 7.67774C22.1864 7.15274 21.5364 6.76524 19.9489 5.87774L17.7614 4.64024C16.2364 3.77774 15.5989 3.42773 14.9989 3.42773ZM19.636 9.07773C19.786 9.57773 19.511 10.1027 19.0235 10.2527C17.0985 10.8527 14.661 13.8152 13.8735 14.9027C13.6985 15.1527 13.411 15.2902 13.111 15.2902L13.1235 15.3027H13.0735C12.7485 15.2902 12.461 15.1027 12.311 14.8277C11.7523 13.8352 11.2767 13.6652 11.1881 13.634C11.1796 13.6302 11.1735 13.6277 11.1735 13.6277C10.661 13.6277 10.2735 13.2152 10.2735 12.6902C10.2735 12.1652 10.736 11.7527 11.2485 11.7527C11.436 11.7527 12.261 11.8152 13.1485 12.7902C14.2735 11.4277 16.3985 9.11524 18.461 8.46524C18.961 8.31524 19.486 8.59023 19.636 9.07773Z" fill="#161616"/>
</svg>
