<svg width="30" height="30" viewBox="0 0 30 30" fill="none" xmlns="http://www.w3.org/2000/svg">
<path d="M15 4.0625C15.5178 4.0625 15.9375 4.48223 15.9375 5V14.0625H25C25.5178 14.0625 25.9375 14.4822 25.9375 15C25.9375 15.5178 25.5178 15.9375 25 15.9375H15.9375V25C15.9375 25.5178 15.5178 25.9375 15 25.9375C14.4822 25.9375 14.0625 25.5178 14.0625 25V15.9375H5C4.48223 15.9375 4.0625 15.5178 4.0625 15C4.0625 14.4822 4.48223 14.0625 5 14.0625H14.0625V5C14.0625 4.48223 14.4822 4.0625 15 4.0625Z" fill="#161616"/>
</svg>
