<svg xmlns="http://www.w3.org/2000/svg" viewBox="0 0 48 48" width="48" height="48">
    <path fill="#1976D2"
        d="M45,35c0,2.209-1.791,4-4,4H7c-2.209,0-4-1.791-4-4V13c0-2.209,1.791-4,4-4h34c2.209,0,4,1.791,4,4V35z" />
    <path fill="#FFF"
        d="M22.255 20l-2.113 5.27-2.112-5.27h-2.617l3.37 8.07-.004.008v.013h2.708l3.368-8.091H22.255zM28.087 20l-3.87 8.097h2.624l.731-1.729h3.807l.73 1.729h2.626L30.87 20H28.087zM29.5 24.368l1.192-2.855 1.192 2.855H29.5z" />
    <path fill="#FFF"
        d="M11.042 20l-2.348 8.097h2.406l.376-1.46h2.73l.375 1.46h2.404L14.637 20H11.042zM12.819 24.637L13.84 21l1.022 3.637H12.819zM36.959 28.097L34.611 20h-2.404l3.347 8.097H36.959z" />
</svg>