<svg width="30" height="30" viewBox="0 0 30 30" fill="none" xmlns="http://www.w3.org/2000/svg">
<path d="M3.75 2.8125C4.26777 2.8125 4.6875 3.23223 4.6875 3.75V17.5C4.6875 19.5889 4.68904 21.0614 4.83887 22.1758C4.97457 23.1851 5.2204 23.7771 5.60449 24.207C5.82416 23.7671 6.06503 23.226 6.33887 22.6055C6.39272 22.4834 6.44821 22.3585 6.50488 22.2305C6.91815 21.2971 7.39437 20.2459 7.94629 19.2646C8.49491 18.2893 9.1463 17.3295 9.93066 16.6055C10.7232 15.874 11.7058 15.336 12.8828 15.3359C14.4884 15.3359 15.4965 16.3662 16.2041 17.0898C16.224 17.1102 16.2433 17.1306 16.2627 17.1504C17.0627 17.967 17.5416 18.4022 18.2666 18.4023C18.9632 18.4023 19.4497 18.1289 19.8975 17.6387C20.3711 17.1201 20.751 16.4166 21.2109 15.5654C21.2273 15.5352 21.2442 15.5042 21.2607 15.4736L21.2686 15.459C22.1524 13.824 23.3753 11.5625 26.25 11.5625C26.7678 11.5625 27.1875 11.9822 27.1875 12.5C27.1875 13.0178 26.7678 13.4375 26.25 13.4375C24.6174 13.4375 23.8743 14.5818 22.9102 16.3652C22.8808 16.4195 22.8512 16.4748 22.8213 16.5303C22.4003 17.3114 21.9177 18.2075 21.2822 18.9033C20.5587 19.6955 19.5973 20.2773 18.2666 20.2773C16.6948 20.2772 15.6991 19.257 15.001 18.542C14.9747 18.5151 14.9483 18.4889 14.9229 18.4629C14.1316 17.6551 13.6368 17.2109 12.8828 17.2109C12.3204 17.211 11.7711 17.4592 11.2031 17.9834C10.6269 18.5153 10.0884 19.2817 9.58105 20.1836C9.07706 21.0797 8.63097 22.0583 8.21875 22.9893C8.16462 23.1115 8.1112 23.2339 8.05762 23.3555C7.78753 23.9681 7.52273 24.5627 7.27148 25.0645C7.4409 25.1001 7.6241 25.1342 7.82422 25.1611C8.9386 25.311 10.4111 25.3125 12.5 25.3125H26.25C26.7678 25.3125 27.1875 25.7322 27.1875 26.25C27.1875 26.7678 26.7678 27.1875 26.25 27.1875H12.4307C10.4274 27.1875 8.82808 27.1871 7.57422 27.0186C6.27904 26.8444 5.21201 26.4757 4.36816 25.6318C3.52432 24.788 3.15562 23.721 2.98145 22.4258C2.81287 21.1719 2.81248 19.5726 2.8125 17.5693V3.75C2.8125 3.23223 3.23223 2.8125 3.75 2.8125ZM13.75 7.8125C14.2678 7.8125 14.6875 8.23223 14.6875 8.75C14.6875 9.26777 14.2678 9.6875 13.75 9.6875H8.75C8.23223 9.6875 7.8125 9.26777 7.8125 8.75C7.8125 8.23223 8.23223 7.8125 8.75 7.8125H13.75ZM10 4.0625C10.5178 4.0625 10.9375 4.48223 10.9375 5C10.9375 5.51777 10.5178 5.9375 10 5.9375H8.75C8.23223 5.9375 7.8125 5.51777 7.8125 5C7.8125 4.48223 8.23223 4.0625 8.75 4.0625H10Z" fill="#161616"/>
</svg>
