<svg width="24" height="24" viewBox="0 0 24 24" fill="none" xmlns="http://www.w3.org/2000/svg">
<path d="M21.4422 11.0489L12.2522 20.2389C11.1264 21.3648 9.59943 21.9973 8.00724 21.9973C6.41506 21.9973 4.88809 21.3648 3.76224 20.2389C2.6364 19.1131 2.00391 17.5861 2.00391 15.9939C2.00391 14.4018 2.6364 12.8748 3.76224 11.7489L12.9522 2.55894C13.7028 1.80838 14.7208 1.38672 15.7822 1.38672C16.8437 1.38672 17.8617 1.80838 18.6122 2.55894C19.3628 3.30951 19.7845 4.32749 19.7845 5.38894C19.7845 6.4504 19.3628 7.46838 18.6122 8.21894L9.41224 17.4089C9.03696 17.7842 8.52797 17.9951 7.99724 17.9951C7.46652 17.9951 6.95752 17.7842 6.58224 17.4089C6.20696 17.0337 5.99613 16.5247 5.99613 15.9939C5.99613 15.4632 6.20696 14.9542 6.58224 14.5789L15.0722 6.09894" stroke="currentColor" stroke-width="2" stroke-linecap="round" stroke-linejoin="round"/>
</svg>
