<svg width="30" height="30" viewBox="0 0 30 30" fill="none" xmlns="http://www.w3.org/2000/svg">
<path d="M15.0713 2.8125C17.6624 2.81248 19.7027 2.81207 21.2969 3.02637C22.9326 3.24628 24.2386 3.70739 25.2656 4.73438C26.2926 5.76136 26.7537 7.0674 26.9736 8.70312C27.1879 10.2973 27.1875 12.3376 27.1875 14.9287V15.0713C27.1875 17.6624 27.1879 19.7027 26.9736 21.2969C26.7537 22.9326 26.2926 24.2386 25.2656 25.2656C24.2386 26.2926 22.9326 26.7537 21.2969 26.9736C19.7027 27.1879 17.6624 27.1875 15.0713 27.1875H14.9287C12.3376 27.1875 10.2973 27.1879 8.70312 26.9736C7.0674 26.7537 5.76136 26.2926 4.73438 25.2656C3.70739 24.2386 3.24628 22.9326 3.02637 21.2969C2.81207 19.7027 2.81248 17.6624 2.8125 15.0713V14.9287C2.81248 12.3376 2.81207 10.2973 3.02637 8.70312C3.24628 7.0674 3.70739 5.76136 4.73438 4.73438C5.76136 3.70739 7.0674 3.24628 8.70312 3.02637C10.2973 2.81207 12.3376 2.81248 14.9287 2.8125H15.0713ZM15 4.6875C12.3221 4.6875 10.4079 4.68923 8.95312 4.88477C7.52532 5.07673 6.68109 5.44001 6.06055 6.06055C5.44001 6.68109 5.07673 7.52532 4.88477 8.95312C4.68923 10.4079 4.6875 12.3221 4.6875 15C4.6875 17.6779 4.68923 19.5921 4.88477 21.0469C5.07673 22.4747 5.44001 23.3189 6.06055 23.9395C6.68109 24.56 7.52532 24.9233 8.95312 25.1152C10.4079 25.3108 12.3221 25.3125 15 25.3125C17.6779 25.3125 19.5921 25.3108 21.0469 25.1152C22.4747 24.9233 23.3189 24.56 23.9395 23.9395C24.56 23.3189 24.9233 22.4747 25.1152 21.0469C25.3108 19.5921 25.3125 17.6779 25.3125 15C25.3125 12.3221 25.3108 10.4079 25.1152 8.95312C24.9233 7.52532 24.56 6.68109 23.9395 6.06055C23.3189 5.44001 22.4747 5.07673 21.0469 4.88477C19.5921 4.68923 17.6779 4.6875 15 4.6875ZM20.5869 11.8369C20.953 11.4708 21.547 11.4708 21.9131 11.8369C22.2792 12.203 22.2792 12.797 21.9131 13.1631L18.4219 16.6543C17.5676 17.5084 16.1824 17.5084 15.3281 16.6543L13.3457 14.6719C13.2237 14.55 13.0263 14.55 12.9043 14.6719L9.41309 18.1631C9.04697 18.5292 8.45303 18.5292 8.08691 18.1631C7.7208 17.797 7.7208 17.203 8.08691 16.8369L11.5781 13.3457C12.4324 12.4916 13.8176 12.4916 14.6719 13.3457L16.6543 15.3281C16.7763 15.45 16.9737 15.45 17.0957 15.3281L20.5869 11.8369Z" fill="#161616"/>
</svg>
