<svg width="69" height="60" viewBox="0 0 69 60" fill="none" xmlns="http://www.w3.org/2000/svg">
<path d="M67.8912 34.432L40.4677 36.0203C39.6206 33.0556 36.8677 30.9379 33.6912 30.9379C30.1971 30.9379 27.3383 33.3732 26.703 36.7615L2.35002 38.1379C1.71472 38.1379 1.29119 38.6673 1.39707 39.3026C1.39707 39.832 1.92649 40.2556 2.4559 40.2556H2.56178L26.4912 38.8791L24.4794 51.9026H17.1735C14.8441 51.9026 12.9383 53.8085 12.9383 56.1379V58.1497C12.9383 58.785 13.3618 59.2085 13.9971 59.2085H53.4912C54.1265 59.2085 54.55 58.785 54.55 58.1497V56.2438C54.55 53.9144 52.6441 52.0085 50.3147 52.0085H43.0088L42.3735 47.985C42.2677 47.4556 41.7382 47.032 41.2088 47.1379C40.6794 47.2438 40.2559 47.7732 40.3618 48.3026L40.8912 52.0085H26.5971L28.8206 37.3968C29.2441 34.9615 31.2559 33.1615 33.6912 33.1615C36.1265 33.1615 38.2441 34.9615 38.5618 37.3968L39.5147 43.6438C39.6206 44.1732 40.15 44.5968 40.6794 44.4909C41.2088 44.385 41.6324 43.8556 41.5265 43.3262L40.8912 38.1379L67.9971 36.5497C68.6324 36.5497 69.0559 36.0203 68.95 35.385C69.0559 34.8556 68.5265 34.432 67.8912 34.432ZM50.3147 54.0203C51.4794 54.0203 52.4324 54.9732 52.4324 56.1379V57.0909H15.0559V56.2438C15.0559 55.0791 16.0088 54.1262 17.1735 54.1262C46.2912 54.0203 38.0324 54.0203 50.3147 54.0203Z" fill="white"/>
<path d="M59.8423 0.761464C59.7364 0.232052 59.1011 -0.0855951 58.5717 0.0202872C55.607 0.867346 53.4894 3.30264 53.0658 6.16146C52.007 5.20852 50.8423 4.57323 49.6776 4.25558C49.1482 4.1497 48.5129 4.46735 48.407 4.99676C48.3011 5.52617 48.6188 6.16146 49.1482 6.26735C51.6894 6.90264 54.5482 10.185 54.5482 13.6791C54.2305 13.5732 53.807 13.4673 53.5952 13.1497C53.1717 12.7262 52.4305 12.8321 52.1129 13.2556C51.6894 13.6791 51.7952 14.4203 52.2188 14.7379C54.2305 16.4321 57.6188 16.1144 59.207 13.9968C59.5247 13.5732 59.5247 12.8321 58.9952 12.5144C58.5717 12.1968 57.8305 12.1968 57.5129 12.7262C57.3011 13.0438 56.9835 13.2556 56.6658 13.4673C56.6658 12.0909 56.2423 10.8203 55.7129 9.65558C58.9952 8.06735 60.7952 4.36146 59.8423 0.761464ZM54.9717 7.64382C54.8658 5.52617 56.0305 3.5144 57.9364 2.45558C58.0423 4.57323 56.8776 6.69088 54.9717 7.64382Z" fill="white"/>
<path d="M59.3134 9.0203C58.784 9.12618 58.3605 9.65559 58.3605 10.185C58.4664 10.7144 58.8899 11.1379 59.5252 11.1379C62.4899 10.8203 65.3487 12.7262 66.0899 15.6909C66.8311 18.2321 65.6664 26.0674 62.5958 29.7732C62.1722 30.1968 61.7487 30.4085 61.0075 30.4085C59.8428 30.4085 58.8899 30.1968 58.1487 29.7732C57.3016 29.2438 56.4546 29.3497 55.7134 30.0909C55.184 30.5144 54.5487 30.8321 53.9134 31.0438C52.6428 31.5732 51.6899 31.3615 50.7369 30.4085C48.1958 27.9732 46.3958 23.8438 45.5487 20.5615C44.0664 15.4791 47.6664 12.0909 51.1605 12.0909C51.7958 12.0909 52.2193 11.5615 52.2193 11.0321C52.2193 10.3968 51.6899 9.97324 51.1605 9.97324C46.184 10.0791 41.7369 14.6321 43.5369 21.1968C44.5958 24.9027 46.6075 29.3497 49.3605 31.9968C50.8428 33.4791 52.7487 33.9026 54.7605 33.0556C55.5016 32.7379 56.4546 32.3144 57.1958 31.6791C58.2546 32.3144 59.5252 32.6321 61.0075 32.6321C62.384 32.6321 63.4428 32.2085 64.2899 31.1497C67.9958 26.7027 69.0546 18.2321 68.2075 15.1615C67.0428 11.1379 63.3369 8.59677 59.3134 9.0203Z" fill="white"/>
<path d="M1.07847 20.6674C0.972592 20.8791 0.86671 21.1968 0.86671 21.4085L0.654945 22.6791C0.549063 23.4203 0.760827 24.1615 1.29024 24.6909L1.60789 25.0085C2.66671 26.0674 4.36083 26.0674 5.41965 25.0085C5.63142 24.7968 5.94906 24.7968 6.16083 24.9027L6.79612 25.3262C7.96083 26.2791 9.65495 26.0674 10.502 24.7968L10.6079 24.6909C10.8197 24.3732 11.2432 24.3732 11.4549 24.585L11.8785 25.0085C12.9373 25.9615 14.6314 25.9615 15.5844 24.7968L16.0079 24.3732C16.2197 24.1615 16.6432 24.1615 16.8549 24.3732L16.9608 24.4791C18.0197 25.6438 19.7138 25.6438 20.7726 24.585L21.1961 24.1615C21.4079 23.9497 21.7255 23.9497 22.0432 24.1615C22.5726 24.6909 23.3138 24.9027 24.0549 24.7968C24.7961 24.6909 25.4314 24.3732 25.8549 23.7379L26.1726 23.3144C26.5961 22.6791 26.8079 21.9379 26.5961 21.1968L26.1726 20.0321C26.0667 19.8203 25.9608 19.5027 25.8549 19.2909C26.5961 18.6556 26.8079 17.7027 26.5961 16.8556C25.3255 11.0321 20.0314 7.00853 14.102 7.43206L11.4549 7.53795C5.31377 7.96148 0.654945 12.6203 0.0196508 18.4438C-0.0862315 19.185 0.231416 20.1379 1.07847 20.6674ZM24.3726 22.1497L24.0549 22.5732C23.8432 22.785 23.5255 22.8909 23.2079 22.6791C22.1491 21.7262 20.5608 21.8321 19.6079 22.785L19.2902 23.2085C19.0785 23.4203 18.6549 23.4203 18.4432 23.2085L18.3373 23.1027C17.2785 21.9379 15.4785 21.9379 14.4197 23.1027L13.9961 23.5262C13.7844 23.7379 13.4667 23.8438 13.1491 23.5262L12.8314 23.2085C11.6667 22.1497 9.86671 22.3615 9.01965 23.6321L8.91377 23.7379C8.702 24.0556 8.38436 24.0556 8.06671 23.8438L7.5373 23.4203C6.47848 22.5732 4.89024 22.6791 3.9373 23.7379C3.72553 23.9497 3.302 23.9497 3.09024 23.7379L2.77259 23.3144C2.66671 23.2085 2.56083 22.9968 2.66671 22.8909L2.77259 21.7262C2.77259 21.4085 2.98436 21.1968 3.302 21.1968L23.6314 20.0321C23.8432 20.0321 24.1608 20.2438 24.2667 20.4556L24.5844 21.6203C24.4785 21.8321 24.4785 22.0438 24.3726 22.1497ZM11.5608 9.54971L14.2079 9.44383C19.1844 9.12618 23.6314 12.5144 24.6902 17.385C24.7961 17.7027 24.4785 18.0203 24.1608 18.0203L2.66671 19.185C2.24318 19.185 2.03142 18.8674 2.03142 18.5497C2.56083 13.8909 6.37259 9.86736 11.5608 9.54971Z" fill="white"/>
<path d="M15.2671 17.0673C15.6907 16.6438 15.6907 16.0085 15.2671 15.6909C14.9495 15.2673 14.2083 15.2673 13.8907 15.6909C13.573 15.9026 13.4671 16.6438 13.8907 17.0673C14.2083 17.4909 14.8436 17.4909 15.2671 17.0673Z" fill="white"/>
<path d="M17.3836 13.6791C17.8071 13.1497 17.7012 12.6203 17.3836 12.3026C17.0659 11.8791 16.3247 11.8791 16.0071 12.3026C15.5836 12.7262 15.5836 13.3615 16.0071 13.6791C16.3247 13.9967 17.0659 13.9967 17.3836 13.6791Z" fill="white"/>
<path d="M11.6668 12.6203C12.0903 12.1968 12.0903 11.5615 11.6668 11.2438C11.2432 10.8203 10.608 10.8203 10.2903 11.2438C9.86677 11.6674 9.86677 12.1968 10.2903 12.6203C10.608 13.0438 11.2432 13.0438 11.6668 12.6203Z" fill="white"/>
<path d="M5.63162 17.385C6.05515 16.9615 6.05515 16.3262 5.63162 16.0085C5.31397 15.6909 4.57279 15.6909 4.25515 16.0085C3.83162 16.4321 3.83162 17.0674 4.25515 17.385C4.67868 17.9144 5.31397 17.8085 5.63162 17.385Z" fill="white"/>
<path d="M10.0789 16.3262C10.5024 15.9026 10.3965 15.2673 10.0789 14.9497C9.65535 14.5262 9.02006 14.632 8.70241 14.9497C8.27888 15.2673 8.27888 16.0085 8.70241 16.3262C9.12594 16.7497 9.76124 16.7497 10.0789 16.3262Z" fill="white"/>
<path d="M21.5132 16.3262C21.8309 16.0085 21.9368 15.3732 21.5132 14.9497C21.1956 14.5262 20.4544 14.5262 20.1368 14.9497C19.7132 15.3732 19.8191 16.0085 20.1368 16.3262C20.5603 16.7497 21.1956 16.7497 21.5132 16.3262Z" fill="white"/>
<path d="M1.3963 27.1262C0.866889 27.1262 0.443359 27.6556 0.443359 28.185C0.655124 32.1026 4.04336 34.9614 7.85512 34.7497C7.96101 34.7497 20.561 34.0085 20.6669 34.0085C24.4787 33.7967 27.4434 30.5144 27.2316 26.5967C27.2316 26.0673 26.7022 25.6438 26.1728 25.6438L23.9492 25.7497C17.8081 26.1732 4.57277 26.9144 1.3963 27.1262ZM24.161 27.8673L25.2198 27.7614C24.9022 30.1967 22.8904 31.8909 20.561 31.9967C19.2904 32.1026 8.91395 32.7379 7.74924 32.7379C5.41983 32.8438 3.1963 31.2556 2.66689 29.032L24.161 27.8673Z" fill="white"/>
<path d="M30.6191 38.2438C30.6191 40.0438 31.9956 41.4203 33.7956 41.4203C35.5956 41.4203 36.9721 40.0438 36.9721 38.2438C36.9721 36.4438 35.5956 35.0674 33.7956 35.0674C31.9956 35.0674 30.6191 36.5497 30.6191 38.2438ZM34.8544 38.2438C34.8544 38.8791 34.4309 39.3026 33.7956 39.3026C33.1603 39.3026 32.7368 38.7732 32.7368 38.2438C32.7368 37.7144 33.1603 37.185 33.7956 37.185C34.4309 37.185 34.8544 37.7144 34.8544 38.2438Z" fill="white"/>
</svg>
