<svg width="20" height="20" viewBox="0 0 20 20" fill="none" xmlns="http://www.w3.org/2000/svg">
<path d="M10.0449 1.04102C11.5775 1.041 12.7895 1.04032 13.7373 1.16309C14.71 1.28912 15.4987 1.55474 16.123 2.15625C16.7507 2.76098 17.0308 3.53035 17.1631 4.47852C17.2911 5.39616 17.291 6.56741 17.291 8.04004V15.0371C17.2911 15.9517 17.291 16.7122 17.2031 17.2832C17.1122 17.8738 16.9003 18.4488 16.3164 18.7607C15.7955 19.0389 15.2221 18.9824 14.7363 18.835C14.245 18.6858 13.7454 18.4149 13.2881 18.126C12.8264 17.8342 12.3731 17.5019 11.9795 17.2109L11.9336 17.1768C11.548 16.8917 11.2385 16.662 11.002 16.5195C10.669 16.3191 10.4585 16.1936 10.2881 16.1133C10.1308 16.0392 10.0543 16.0273 9.99902 16.0273C9.94377 16.0273 9.86725 16.0392 9.70996 16.1133C9.53955 16.1936 9.32901 16.3191 8.99609 16.5195C8.7596 16.662 8.45006 16.8917 8.06445 17.1768L8.01855 17.2109C7.62494 17.5019 7.17166 17.8342 6.70996 18.126C6.25268 18.4149 5.75306 18.6858 5.26172 18.835C4.77591 18.9824 4.20255 19.0389 3.68164 18.7607C3.09775 18.4488 2.88582 17.8738 2.79492 17.2832C2.70709 16.7122 2.707 15.9517 2.70703 15.0371V8.04004C2.70702 6.56741 2.70693 5.39616 2.83496 4.47852C2.96728 3.53035 3.24734 2.76098 3.875 2.15625C4.49934 1.55474 5.28803 1.28912 6.26074 1.16309C7.20851 1.04032 8.42055 1.041 9.95312 1.04102H10.0449ZM3.96777 6.45703C3.96022 6.93742 3.95703 7.47756 3.95703 8.08887V14.9834C3.95703 15.9659 3.95884 16.6283 4.03027 17.0928C4.10036 17.5484 4.21062 17.6262 4.27051 17.6582C4.37308 17.713 4.56036 17.7413 4.89844 17.6387C5.23104 17.5377 5.61987 17.336 6.04199 17.0693C6.45993 16.8052 6.87892 16.4981 7.27539 16.2051C7.3001 16.1868 7.32491 16.1687 7.34961 16.1504C7.70728 15.8859 8.06216 15.6235 8.35156 15.4492L8.37598 15.4346C8.6772 15.2532 8.94271 15.0931 9.17773 14.9824C9.43213 14.8626 9.69591 14.7773 9.99902 14.7773C10.3021 14.7773 10.5659 14.8626 10.8203 14.9824C11.0553 15.0931 11.3209 15.2532 11.6221 15.4346L11.6465 15.4492C11.9359 15.6235 12.2908 15.8859 12.6484 16.1504C12.6731 16.1687 12.6979 16.1868 12.7227 16.2051C13.1191 16.4981 13.5381 16.8052 13.9561 17.0693C14.3782 17.3361 14.767 17.5377 15.0996 17.6387C15.4377 17.7413 15.625 17.713 15.7275 17.6582C15.7874 17.6262 15.8977 17.5485 15.9678 17.0928C16.0392 16.6283 16.041 15.9659 16.041 14.9834V8.08887C16.041 7.47756 16.0378 6.93742 16.0303 6.45703H3.96777ZM9.99902 2.29102C8.4107 2.29102 7.28007 2.29217 6.42188 2.40332C5.57933 2.51246 5.09408 2.71761 4.74219 3.05664C4.39367 3.39251 4.18498 3.85063 4.07324 4.65137C4.04911 4.82434 4.03076 5.00903 4.01562 5.20703H15.9824C15.9673 5.00903 15.9489 4.82434 15.9248 4.65137C15.8131 3.85063 15.6044 3.39251 15.2559 3.05664C14.904 2.71761 14.4187 2.51246 13.5762 2.40332C12.718 2.29217 11.5873 2.29102 9.99902 2.29102Z" fill="currentColor"/>
</svg>
