<svg width="72" height="72" viewBox="0 0 72 72" fill="none" xmlns="http://www.w3.org/2000/svg">
<path fill-rule="evenodd" clip-rule="evenodd" d="M34.3187 59.625H17.1084C11.7821 59.625 7.05316 56.2168 5.36847 51.1633L3.43291 45.3555C3.31816 45.0129 3.3761 44.6355 3.5876 44.3424C3.79853 44.0488 4.13828 43.875 4.49997 43.875H4.81947C4.81891 43.8705 4.81835 43.8654 4.81778 43.8609C4.55735 42.0536 5.33135 40.7751 6.53566 39.8886C7.77822 38.9745 9.54447 38.5335 10.8343 38.3586C10.9766 37.9226 11.1898 37.2988 11.3816 36.8578C11.5942 36.3701 11.8496 35.9713 12.0847 35.7474C12.4779 35.3728 12.9768 35.1799 13.5332 35.1067C13.7936 35.0724 14.0726 35.0764 14.3409 35.0685C14.6396 34.3474 15.2645 33.2246 16.9278 32.436C17.4093 32.2071 18.1147 32.1367 18.8448 32.1958C19.4304 32.2425 20.2247 32.382 20.574 32.4467C20.637 32.4135 20.7163 32.3719 20.8097 32.3246C20.8102 29.5942 20.8125 21.0173 20.8125 15.8653C20.8125 15.0834 20.4058 14.3578 19.7432 13.9506C18.7042 13.3481 18 12.3328 18 11.25V6.75C18 4.88588 19.5108 3.375 21.375 3.375H56.25C58.1141 3.375 59.625 4.88588 59.625 6.75V11.25C59.625 12.3255 58.9269 13.3341 57.911 13.9601C57.9094 13.9618 57.9077 13.9629 57.9054 13.9641C57.2417 14.3679 56.8367 15.0885 56.8367 15.8653V15.8698C56.8198 20.214 56.8153 28.6583 56.8147 33.3039C56.0812 33.1026 55.3303 32.9439 54.5647 32.8309C54.5658 28.1031 54.5704 20.0649 54.5867 15.8653C54.5867 14.3033 55.4012 12.8537 56.7303 12.0454C57.0543 11.8451 57.375 11.5931 57.375 11.25V6.75C57.375 6.12844 56.8715 5.625 56.25 5.625H21.375C20.7534 5.625 20.25 6.12844 20.25 6.75V11.25C20.25 11.5813 20.5588 11.8238 20.8777 12.0077C20.8856 12.0122 20.8935 12.0167 20.9013 12.0212C22.2429 12.8374 23.0625 14.2948 23.0625 15.8653C23.0625 20.5537 23.0608 28.08 23.0597 31.4539C23.4461 31.3588 23.8325 31.3009 24.1852 31.3099L24.1875 15.8653C24.1869 14.1975 23.4483 12.6321 22.199 11.5746C21.6894 11.1538 21.3913 10.5294 21.3845 9.87075C21.3755 9.61369 21.375 9.30206 21.375 9C21.375 7.75744 22.3824 6.75 23.625 6.75H54C55.2425 6.75 56.25 7.75744 56.25 9V9.87581C56.2494 10.5469 55.9502 11.1819 55.4332 11.6094C54.194 12.6512 53.4617 14.2076 53.4617 15.8653V15.8698C53.4487 19.1627 53.4408 26.8847 53.4375 32.6987C52.8812 32.6497 52.3187 32.625 51.75 32.625C51.5615 32.625 51.3742 32.6278 51.1875 32.6329C51.1908 26.8245 51.1987 19.1441 51.2117 15.8614C51.2128 13.5321 52.2467 11.3468 53.9887 9.88425C53.9927 9.88088 53.996 9.87806 54 9.87525V9H23.625C23.625 9.279 23.6244 9.56756 23.634 9.80269C23.6345 9.81563 23.6345 9.82856 23.6345 9.84206C23.6385 9.84487 23.6418 9.84825 23.6458 9.85106C25.4002 11.3338 26.4369 13.5276 26.4375 15.8647L26.4352 31.9821C26.5438 32.0479 26.6484 32.1159 26.7502 32.1834C27.0568 32.3882 27.2992 32.6351 27.7222 32.6694C28.4102 32.7246 31.5 31.9292 32.4185 31.9556C34.0532 32.0023 35.789 33.8074 36.3363 33.9722C36.8212 34.1179 37.3263 33.9255 37.8326 33.8456C38.4474 33.7483 39.0437 33.7894 39.6568 33.894C40.3785 34.0177 41.1114 34.7439 41.733 35.4583C41.1435 35.8217 40.5753 36.2166 40.0303 36.6401C39.7147 36.3358 39.3778 36.108 39.0273 36.054C38.5166 35.9758 38.0193 36.1024 37.5103 36.1822C36.8927 36.2801 36.2812 36.3049 35.6878 36.1266C34.9886 35.9162 33.5745 34.2332 32.3207 34.2034C31.6271 34.1865 28.4844 34.9875 27.5422 34.9121C26.811 34.8531 26.2918 34.5825 25.7777 34.2411C25.3693 33.9699 24.9671 33.6133 24.1458 33.5599C23.4551 33.5149 22.262 34.3091 21.0752 34.6849C20.9756 34.7119 20.8192 34.7389 20.6111 34.7259C20.4137 34.7136 18.8268 34.4402 18.4573 34.4256C18.2424 34.4177 18.0365 34.4002 17.892 34.4689C16.3929 35.1799 16.2765 36.3696 16.1381 36.6148C15.9013 37.0339 15.575 37.1717 15.3242 37.2223C14.9799 37.2926 13.9095 37.3224 13.7733 37.3455C13.7244 37.3539 13.671 37.3438 13.6355 37.3776C13.5118 37.4957 12.8278 39.5662 12.7192 39.8042C12.4278 40.4437 11.9013 40.5146 11.727 40.5264C10.9063 40.5838 9.5366 40.7919 8.42678 41.3601C7.59203 41.7881 6.8861 42.4401 7.04472 43.5397C7.06103 43.6522 7.05878 43.7642 7.05653 43.875H34.3187C33.9896 44.6017 33.7044 45.3532 33.467 46.125H6.06091L7.50316 50.4518C8.88128 54.5861 12.7502 57.375 17.1084 57.375H33.467C33.7044 58.1468 33.9896 58.8983 34.3187 59.625ZM46.125 26.4375C46.746 26.4375 47.25 26.9415 47.25 27.5625C47.25 28.1835 46.746 28.6875 46.125 28.6875C45.504 28.6875 45 28.1835 45 27.5625C45 26.9415 45.504 26.4375 46.125 26.4375ZM29.8125 25.3125C30.4335 25.3125 30.9375 25.8165 30.9375 26.4375C30.9375 27.0585 30.4335 27.5625 29.8125 27.5625C29.1915 27.5625 28.6875 27.0585 28.6875 26.4375C28.6875 25.8165 29.1915 25.3125 29.8125 25.3125ZM38.8125 27C39.4335 27 39.9375 27.504 39.9375 28.125C39.9375 28.746 39.4335 29.25 38.8125 29.25C38.1915 29.25 37.6875 28.746 37.6875 28.125C37.6875 27.504 38.1915 27 38.8125 27ZM39.375 19.125C39.996 19.125 40.5 19.629 40.5 20.25C40.5 20.871 39.996 21.375 39.375 21.375C38.754 21.375 38.25 20.871 38.25 20.25C38.25 19.629 38.754 19.125 39.375 19.125ZM44.4375 14.0625C45.0585 14.0625 45.5625 14.5665 45.5625 15.1875C45.5625 15.8085 45.0585 16.3125 44.4375 16.3125C43.8165 16.3125 43.3125 15.8085 43.3125 15.1875C43.3125 14.5665 43.8165 14.0625 44.4375 14.0625ZM33.75 16.3125C33.75 15.6915 34.254 15.1875 34.875 15.1875C35.496 15.1875 36 15.6915 36 16.3125C36 18.1749 34.4874 19.6875 32.625 19.6875C30.7625 19.6875 29.25 18.1749 29.25 16.3125C29.25 14.4501 30.7625 12.9375 32.625 12.9375C33.246 12.9375 33.75 13.4415 33.75 14.0625C33.75 14.6835 33.246 15.1875 32.625 15.1875C32.004 15.1875 31.5 15.6915 31.5 16.3125C31.5 16.9335 32.004 17.4375 32.625 17.4375C33.246 17.4375 33.75 16.9335 33.75 16.3125ZM19.3652 37.4186C19.3038 37.5373 19.1272 37.8877 19.058 38.1555C18.9461 38.5853 18.8915 39.0791 18.9585 39.5196C18.995 39.7598 19.0389 39.9983 19.2279 40.1141C19.7567 40.4398 19.9215 41.1334 19.5958 41.6621C19.2701 42.1909 18.5765 42.3557 18.0478 42.03C17.4397 41.6554 17.0364 41.0574 16.8345 40.3312C16.6016 39.492 16.6539 38.4626 16.88 37.5902C17.073 36.8483 17.397 36.2233 17.7204 35.8667C17.9966 35.5618 18.3043 35.3925 18.5889 35.3216C19.1913 35.172 19.8022 35.5399 19.9513 36.1429C20.0807 36.6621 19.8247 37.188 19.3652 37.4186ZM30.0729 38.2089C29.475 38.0424 29.1245 37.4214 29.291 36.8229C29.4575 36.225 30.0785 35.8746 30.677 36.0411C33.0547 36.7037 34.3783 38.1251 34.3119 40.5309C34.295 41.1519 33.777 41.6419 33.1565 41.6244C32.5355 41.6076 32.0456 41.0895 32.063 40.4691C32.0973 39.2147 31.3127 38.5538 30.0729 38.2089ZM24.1138 39.3727C23.4939 39.3317 23.0242 38.7956 23.0647 38.1763C23.1058 37.5564 23.6418 37.0868 24.2612 37.1273C25.722 37.2234 26.829 37.9569 27.4753 39.5038C27.7149 40.0764 27.4443 40.7363 26.8712 40.9753C26.2985 41.2149 25.6387 40.9444 25.3997 40.3712C25.1364 39.7412 24.7089 39.4116 24.1138 39.3727ZM51.75 34.875C61.0633 34.875 68.625 42.4367 68.625 51.75C68.625 61.0633 61.0633 68.625 51.75 68.625C42.4367 68.625 34.875 61.0633 34.875 51.75C34.875 42.4367 42.4367 34.875 51.75 34.875ZM51.75 37.125C43.6781 37.125 37.125 43.6781 37.125 51.75C37.125 59.8219 43.6781 66.375 51.75 66.375C59.8218 66.375 66.375 59.8219 66.375 51.75C66.375 43.6781 59.8218 37.125 51.75 37.125ZM46.125 52.3125V43.3125C46.125 42.6909 46.6284 42.1875 47.25 42.1875H56.25C56.8715 42.1875 57.375 42.6909 57.375 43.3125V52.3125H59.625C60.0665 52.3125 60.467 52.5707 60.6493 52.9729C60.8321 53.3745 60.7623 53.8459 60.4715 54.1783L52.5965 63.1783C52.3828 63.4224 52.0745 63.5625 51.75 63.5625C51.4254 63.5625 51.1172 63.4224 50.9034 63.1783L43.0284 54.1783C42.7376 53.8459 42.6679 53.3745 42.8507 52.9729C43.0329 52.5707 43.4334 52.3125 43.875 52.3125H46.125ZM47.25 54.5625H46.3545L51.75 60.7292L57.1455 54.5625H56.25C55.6284 54.5625 55.125 54.0591 55.125 53.4375V44.4375H48.375V53.4375C48.375 54.0591 47.8715 54.5625 47.25 54.5625Z" fill="#6AB240"/>
</svg>
