<svg width="17" height="17" viewBox="0 0 17 17" fill="none" xmlns="http://www.w3.org/2000/svg">
<path d="M1.29216 0.913323L2.16402 0.320059C2.98214 -0.236435 4.08523 -0.0554145 4.74213 0.741495L6.04957 2.32895C6.61879 3.01979 6.70789 4.0055 6.27019 4.76423L5.05114 6.87565C5.44146 7.80761 6.04533 8.66038 6.86416 9.43254C7.647 10.182 8.57223 10.7667 9.5851 11.1522L11.4215 9.87024C12.1165 9.38446 13.045 9.43042 13.7238 9.98621L15.3077 11.2802C16.0976 11.9258 16.3295 13.0713 15.8494 13.9587L15.3353 14.9112C14.8234 15.8587 13.861 16.4322 12.8095 16.4159C10.3276 16.3806 7.61298 14.8949 4.67 11.959C1.72278 9.01889 0.167857 6.24491 0.00592899 3.63498C-0.062661 2.53684 0.427365 1.50234 1.29216 0.913323Z" fill="currentColor"/>
</svg>
