<svg width="32" height="32" viewBox="0 0 32 32" fill="none" xmlns="http://www.w3.org/2000/svg">
<rect width="32" height="32" rx="10" fill="#C2E66E"/>
<path d="M22.7207 13.1989C22.1235 11.9164 21.2893 10.6655 20.2414 9.48092C20.0218 9.2326 19.6428 9.21756 19.4037 9.44076L16.6465 12.0142V6.62494C16.6465 6.17381 16.1025 5.83674 15.6952 6.08315C13.4558 7.43768 10.7357 10.1547 9.34268 13.0559C8.55127 14.7041 8.15002 16.4122 8.15002 18.133C8.14999 22.4709 11.6706 26 15.998 26C21.4352 26 26.0639 20.3785 22.7207 13.1989ZM14.1874 23.0103C14.1874 21.4945 15.4078 20.3819 15.9989 19.932C16.5874 20.4099 17.8085 21.5747 17.8085 23.0103C17.8085 24.0111 16.9963 24.8253 15.9979 24.8253C14.9996 24.8253 14.1874 24.0111 14.1874 23.0103ZM18.7123 24.2466C19.6082 22.278 18.1258 19.8987 16.3341 18.7171C16.1464 18.5935 15.9049 18.5881 15.7119 18.7035C13.8451 19.82 12.3859 22.274 13.2835 24.2466C10.9513 23.202 9.32186 20.8548 9.32186 18.133C9.32186 13.8738 12.0957 10.1644 15.4746 7.65916V13.3637C15.4746 13.8755 16.0856 14.1427 16.4598 13.7935L19.7553 10.7177C21.6926 13.0671 22.674 15.5592 22.674 18.1331C22.674 20.8548 21.0446 23.202 18.7123 24.2466Z" fill="black"/>
</svg>
