<svg width="27" height="20" viewBox="0 0 27 20" fill="none" xmlns="http://www.w3.org/2000/svg">
<path d="M25.7747 3.25658C25.216 2.90463 24.5294 2.8735 23.944 3.1713L21.968 4.16893C21.2373 4.53712 20.784 5.28162 20.784 6.11004V13.8881C20.784 14.7165 21.2373 15.4596 21.968 15.8305L23.9427 16.8268C24.2107 16.9649 24.4974 17.0312 24.784 17.0312C25.128 17.0312 25.4694 16.9337 25.7747 16.7429C26.3334 16.3923 26.6667 15.7845 26.6667 15.1185V4.8823C26.6667 4.21631 26.3334 3.60852 25.7747 3.25658Z" fill="currentColor"/>
<path d="M13.2068 20H5.48405C2.25469 20 0 17.7733 0 14.5854V5.41455C0 2.22538 2.25469 0 5.48405 0H13.2068C16.4362 0 18.6909 2.22538 18.6909 5.41455V14.5854C18.6909 17.7733 16.4362 20 13.2068 20Z" fill="currentColor"/>
</svg>
