<svg width="30" height="30" viewBox="0 0 30 30" fill="none" xmlns="http://www.w3.org/2000/svg">
<path d="M17.2725 1.5907C17.7747 1.46515 18.2835 1.7702 18.4092 2.27234C18.5347 2.77454 18.2297 3.28335 17.7275 3.40906C16.9291 3.60868 16.4799 3.96316 16.2314 4.28992C17.259 4.68439 18.0472 5.55833 18.3262 6.63757C19.7104 6.88438 20.9178 7.72489 21.6523 8.7655C22.2323 9.58725 22.5724 10.6339 22.3936 11.6591C24.3159 11.9988 25.9375 13.5917 25.9375 15.6678C25.9373 17.5997 24.7249 18.8297 23.2998 19.3602L21.9229 24.1825C21.6862 25.011 21.4863 25.7103 21.2568 26.2606C21.0131 26.8452 20.7003 27.355 20.1846 27.744C19.6688 28.133 19.0929 28.2943 18.4639 28.368C17.8716 28.4375 17.144 28.4374 16.2822 28.4374H13.7178C12.8562 28.4374 12.1293 28.4375 11.5371 28.368C10.9081 28.2943 10.3322 28.133 9.81641 27.744C9.30062 27.355 8.98694 26.8453 8.74316 26.2606C8.51375 25.7103 8.31381 25.0109 8.07715 24.1825L6.69922 19.3602C5.27445 18.8295 4.0627 17.5993 4.0625 15.6678C4.0625 13.5917 5.68409 11.9988 7.60645 11.6591C7.42763 10.6339 7.76773 9.58725 8.34766 8.7655C9.08183 7.72541 10.2885 6.88582 11.6719 6.63855C11.9891 5.40926 12.9688 4.44636 14.208 4.15417C14.5306 3.17951 15.4271 2.05209 17.2725 1.5907ZM18.3857 18.3036C17.5086 19.2482 16.2043 19.6874 15 19.6874C13.7957 19.6874 12.4914 19.2482 11.6143 18.3036C10.8632 19.1414 9.79047 19.5693 8.73145 19.6493L9.86523 23.6161C10.1206 24.5099 10.2915 25.102 10.4736 25.5389C10.6463 25.953 10.7928 26.1319 10.9453 26.2469C11.0978 26.362 11.3095 26.4535 11.7549 26.5057C12.225 26.5609 12.8417 26.5624 13.7715 26.5624H16.2285C17.1584 26.5624 17.7749 26.5609 18.2451 26.5057C18.6907 26.4535 18.9031 26.362 19.0557 26.2469C19.2081 26.1319 19.3538 25.9527 19.5264 25.5389C19.7085 25.102 19.8794 24.5099 20.1348 23.6161L21.2676 19.6493C20.2089 19.5692 19.1366 19.1412 18.3857 18.3036ZM18.2744 8.54578C17.8318 9.9327 16.5337 10.9373 15 10.9374C13.4662 10.9374 12.1671 9.93285 11.7246 8.54578C10.9795 8.75342 10.3076 9.24058 9.87988 9.84656C9.31172 10.6515 9.3 11.4334 9.77637 11.995C10.0355 12.3005 10.0722 12.7368 9.86719 13.0809C9.66222 13.4251 9.26116 13.6007 8.86914 13.5184C7.3446 13.1982 5.9375 14.3514 5.9375 15.6678C5.93775 16.8846 6.86787 17.6629 8.09668 17.7772C9.3299 17.8919 10.4262 17.2931 10.6836 16.0985C10.7766 15.6668 11.1581 15.3585 11.5996 15.3583C12.0413 15.3583 12.4236 15.6667 12.5166 16.0985C12.7466 17.1654 13.7606 17.8124 15 17.8124C16.2394 17.8124 17.2534 17.1654 17.4834 16.0985C17.5764 15.6667 17.9587 15.3583 18.4004 15.3583C18.8419 15.3585 19.2234 15.6668 19.3164 16.0985C19.5738 17.2931 20.6701 17.8919 21.9033 17.7772C23.1321 17.6629 24.0623 16.8846 24.0625 15.6678C24.0625 14.3514 22.6554 13.1982 21.1309 13.5184C20.7388 13.6007 20.3378 13.4251 20.1328 13.0809C19.9278 12.7368 19.9645 12.3005 20.2236 11.995C20.7 11.4334 20.6883 10.6515 20.1201 9.84656C19.6922 9.24033 19.0199 8.75327 18.2744 8.54578ZM15 5.93738C14.1371 5.93738 13.4375 6.63697 13.4375 7.49988C13.4375 8.36282 14.1371 9.06238 15 9.06238C15.8629 9.06234 16.5625 8.3628 16.5625 7.49988C16.5625 6.63699 15.8629 5.93742 15 5.93738Z" fill="#161616"/>
</svg>
