<svg width="32" height="32" viewBox="0 0 32 32" fill="none" xmlns="http://www.w3.org/2000/svg">
<rect width="32" height="32" rx="10" fill="#C2E66E"/>
<g clip-path="url(#clip0_2_322)">
<path d="M11.9558 14.4639C12.1753 14.4285 12.3817 14.5775 12.4172 14.797C12.4526 15.0165 12.3036 15.2229 12.0841 15.2583C11.8646 15.2938 11.6583 15.1448 11.6228 14.9253C11.5873 14.7057 11.7363 14.4994 11.9558 14.4639Z" fill="black" stroke="black" stroke-width="0.2"/>
<path d="M14.4072 13.6051C14.6296 13.6051 14.8096 13.7851 14.8096 14.0074C14.8095 14.2298 14.6295 14.4097 14.4072 14.4098C14.1849 14.4098 14.0049 14.2298 14.0049 14.0074C14.0049 13.7851 14.1848 13.6051 14.4072 13.6051Z" fill="black" stroke="black" stroke-width="0.2"/>
<path d="M16.6379 14.4341C16.8603 14.4342 17.0403 14.6141 17.0403 14.8365C17.0402 15.0588 16.8603 15.2388 16.6379 15.2388C16.4156 15.2388 16.2356 15.0588 16.2356 14.8365C16.2356 14.6141 16.4156 14.4341 16.6379 14.4341Z" fill="black" stroke="black" stroke-width="0.2"/>
<path d="M20.6526 11.5023C20.8749 11.5023 21.0549 11.6822 21.0549 11.9046C21.0549 12.1269 20.8749 12.3069 20.6526 12.3069C20.4302 12.3069 20.2503 12.1269 20.2502 11.9046C20.2502 11.6822 20.4302 11.5023 20.6526 11.5023Z" fill="black" stroke="black" stroke-width="0.2"/>
<path d="M23.2686 16.3488C23.4909 16.3489 23.6709 16.5288 23.6709 16.7512C23.6709 16.9735 23.4909 17.1535 23.2686 17.1535C23.0462 17.1535 22.8663 16.9735 22.8662 16.7512C22.8662 16.5288 23.0462 16.3488 23.2686 16.3488Z" fill="black" stroke="black" stroke-width="0.2"/>
<path d="M21.1094 13.9237C21.3317 13.9237 21.5117 14.1037 21.5117 14.326C21.5117 14.5484 21.3317 14.7284 21.1094 14.7284C20.887 14.7284 20.7071 14.5484 20.707 14.326C20.707 14.1037 20.887 13.9237 21.1094 13.9237Z" fill="black" stroke="black" stroke-width="0.2"/>
<path d="M23.0503 13.1262C23.2698 13.0904 23.4764 13.2391 23.5122 13.4586C23.5479 13.678 23.3992 13.8846 23.1798 13.9204C22.9603 13.9562 22.7538 13.8075 22.718 13.588C22.6822 13.3685 22.8309 13.162 23.0503 13.1262Z" fill="black" stroke="black" stroke-width="0.2"/>
<mask id="path-9-outside-1_2_322" maskUnits="userSpaceOnUse" x="5.82031" y="7.79126" width="20" height="16" fill="black">
<rect fill="white" x="5.82031" y="7.79126" width="20" height="16"/>
<path d="M25.1797 16C25.1797 11.9577 23.4839 8.79126 21.3192 8.79126C19.6898 8.79126 18.2517 10.6652 17.6975 13.4806C17.6788 13.4814 17.6603 13.4797 17.6414 13.4816C17.5201 13.2315 17.3057 13.039 17.0441 12.9451C16.7825 12.8513 16.4946 12.8637 16.242 12.9797C16.1187 12.8135 15.9454 12.6911 15.7475 12.6305C15.5495 12.57 15.3374 12.5744 15.1422 12.6431C14.9333 12.4586 14.6641 12.3567 14.3854 12.3567C14.1066 12.3567 13.8375 12.4586 13.6286 12.6431C13.4334 12.5744 13.2212 12.57 13.0233 12.6305C12.8254 12.6911 12.6521 12.8135 12.5288 12.9797C12.2761 12.8639 11.9883 12.8516 11.7267 12.9454C11.4651 13.0392 11.2507 13.2317 11.1292 13.4816C11.0959 13.4782 11.0624 13.4766 11.0289 13.4767C10.8293 13.4767 10.6338 13.5331 10.465 13.6395C10.2961 13.746 10.1609 13.898 10.0748 14.0781C9.84835 14.0696 9.62704 14.1472 9.45556 14.2954C9.28409 14.4436 9.17522 14.6514 9.15094 14.8767C8.97304 14.9517 8.81546 15.0679 8.69117 15.2156C8.56688 15.3633 8.4794 15.5385 8.43594 15.7266H7.09375C7.02123 15.7266 6.95168 15.7554 6.9004 15.8067C6.84912 15.8579 6.82031 15.9275 6.82031 16C6.82031 19.8281 9.21328 21.4161 9.86547 21.7775V22.9353C9.86547 23.0078 9.89428 23.0774 9.94556 23.1287C9.99684 23.18 10.0664 23.2088 10.1389 23.2088H24.125C24.4046 23.2084 24.6727 23.0972 24.8704 22.8995C25.0681 22.7018 25.1794 22.4337 25.1797 22.1541V21.7906C25.1804 21.073 24.9879 20.3685 24.6223 19.7509C25.0001 18.5368 25.1881 17.2716 25.1797 16ZM21.3192 9.33813C23.1153 9.33813 24.6328 12.3889 24.6328 16C24.6379 17.0761 24.4993 18.1481 24.2206 19.1875C23.5905 18.4443 22.7121 17.9551 21.7484 17.8109C21.885 17.217 21.9528 16.6094 21.9505 16C21.9505 15.9275 21.9217 15.8579 21.8704 15.8067C21.8191 15.7554 21.7496 15.7266 21.677 15.7266H20.3348C20.2914 15.5385 20.2039 15.3633 20.0796 15.2156C19.9553 15.0679 19.7977 14.9517 19.6198 14.8767C19.5955 14.6514 19.4866 14.4437 19.3151 14.2955C19.1437 14.1473 18.9224 14.0696 18.6959 14.0781C18.5964 13.8732 18.4335 13.7058 18.2313 13.6008C18.725 11.0799 19.9781 9.33813 21.3192 9.33813ZM9.48438 15.3438C9.55429 15.3297 9.61594 15.2889 9.65617 15.23C9.6964 15.1711 9.71201 15.0988 9.69969 15.0286C9.68762 14.9685 9.69208 14.9062 9.71259 14.8485C9.73309 14.7907 9.76888 14.7396 9.81614 14.7005C9.8634 14.6614 9.92036 14.6359 9.98097 14.6267C10.0416 14.6174 10.1036 14.6248 10.1603 14.648C10.1978 14.6623 10.2381 14.6682 10.2781 14.6652C10.3182 14.6623 10.3571 14.6505 10.3921 14.6309C10.4271 14.6112 10.4574 14.584 10.4807 14.5513C10.5041 14.5187 10.5199 14.4812 10.5272 14.4417C10.5404 14.3679 10.5699 14.298 10.6133 14.2369C10.6568 14.1758 10.7133 14.1251 10.7786 14.0884C10.844 14.0516 10.9167 14.0299 10.9915 14.0246C11.0663 14.0192 11.1413 14.0306 11.2113 14.0577C11.2487 14.0721 11.2889 14.078 11.329 14.0751C11.369 14.0722 11.4079 14.0605 11.4429 14.0409C11.4779 14.0213 11.5082 13.9942 11.5316 13.9615C11.5549 13.9289 11.5708 13.8915 11.5781 13.852C11.5951 13.7603 11.6366 13.6748 11.6983 13.6047C11.76 13.5347 11.8395 13.4827 11.9285 13.4544C12.0174 13.426 12.1123 13.4223 12.2032 13.4436C12.2941 13.465 12.3774 13.5106 12.4444 13.5756C12.4786 13.6089 12.521 13.6325 12.5672 13.6443C12.6134 13.6561 12.6619 13.6556 12.7079 13.6428C12.7538 13.63 12.7956 13.6053 12.8291 13.5714C12.8626 13.5374 12.8866 13.4952 12.8988 13.4491C12.9159 13.3843 12.9482 13.3246 12.993 13.2748C13.0378 13.225 13.0939 13.1866 13.1565 13.1627C13.2191 13.1389 13.2865 13.1303 13.3531 13.1377C13.4196 13.1451 13.4835 13.1682 13.5394 13.2052C13.5973 13.2438 13.6679 13.2588 13.7365 13.2472C13.8052 13.2356 13.8669 13.1982 13.9089 13.1427C13.9643 13.0686 14.0363 13.0084 14.119 12.967C14.2017 12.9256 14.293 12.904 14.3855 12.904C14.478 12.904 14.5692 12.9256 14.652 12.967C14.7347 13.0084 14.8066 13.0686 14.862 13.1427C14.9041 13.1982 14.9657 13.2356 15.0344 13.2472C15.1031 13.2588 15.1736 13.2438 15.2316 13.2052C15.2874 13.1682 15.3513 13.1451 15.4179 13.1377C15.4845 13.1303 15.5519 13.1389 15.6145 13.1627C15.6771 13.1866 15.7331 13.225 15.7779 13.2748C15.8227 13.3246 15.8551 13.3843 15.8722 13.4491C15.8844 13.4952 15.9084 13.5373 15.9419 13.5712C15.9754 13.6051 16.0172 13.6297 16.0631 13.6425C16.1091 13.6553 16.1576 13.6558 16.2038 13.6441C16.25 13.6323 16.2923 13.6087 16.3266 13.5755C16.3935 13.5105 16.4769 13.4648 16.5678 13.4435C16.6587 13.4221 16.7536 13.4259 16.8425 13.4542C16.9315 13.4826 17.011 13.5346 17.0727 13.6047C17.1344 13.6748 17.1759 13.7602 17.1928 13.852C17.2001 13.8915 17.2159 13.9289 17.2393 13.9616C17.2626 13.9943 17.2929 14.0214 17.3279 14.041C17.3629 14.0607 17.4018 14.0724 17.4418 14.0753C17.4819 14.0782 17.5221 14.0722 17.5595 14.0578C17.6295 14.0307 17.7045 14.0194 17.7793 14.0247C17.8541 14.03 17.9268 14.0518 17.9922 14.0885C18.0576 14.1252 18.1141 14.1759 18.1576 14.237C18.201 14.2981 18.2305 14.3681 18.2438 14.4419C18.251 14.4814 18.2669 14.5188 18.2902 14.5515C18.3136 14.5842 18.3438 14.6113 18.3788 14.631C18.4139 14.6507 18.4528 14.6624 18.4928 14.6654C18.5329 14.6684 18.5731 14.6625 18.6106 14.6481C18.6674 14.6248 18.7294 14.6174 18.79 14.6266C18.8507 14.6358 18.9077 14.6613 18.955 14.7004C19.0023 14.7394 19.0381 14.7906 19.0585 14.8485C19.079 14.9063 19.0833 14.9686 19.0711 15.0288C19.0588 15.099 19.0744 15.1712 19.1146 15.23C19.1548 15.2889 19.2164 15.3297 19.2863 15.3438C19.3901 15.3652 19.4874 15.4111 19.5701 15.4776C19.6527 15.5441 19.7183 15.6293 19.7614 15.7263H9.00938C9.0525 15.6294 9.11808 15.5442 9.20067 15.4776C9.28327 15.4111 9.38052 15.3652 9.48438 15.3438ZM7.37156 16.2734H21.3991C21.3831 16.7775 21.3143 17.2785 21.1938 17.7681C21.1811 17.7681 21.1688 17.7672 21.1563 17.7672H18.1353C17.147 17.7685 16.1937 18.133 15.4567 18.7914C14.7196 19.4498 14.2503 20.3561 14.138 21.338H10.2031C9.81406 21.1388 7.48688 19.7995 7.37156 16.2734ZM10.4123 21.8849H14.1119V22.1541C14.1118 22.3317 14.1568 22.5064 14.2427 22.6619H10.4123V21.8849ZM24.6328 22.1541C24.6326 22.2887 24.5791 22.4178 24.4839 22.513C24.3887 22.6082 24.2596 22.6617 24.125 22.6619H15.1666C15.0319 22.6617 14.9029 22.6082 14.8077 22.513C14.7125 22.4178 14.6589 22.2887 14.6588 22.1541V21.7906C14.6599 20.9164 14.99 20.0745 15.5835 19.4325C16.177 18.7906 16.9904 18.3955 17.8619 18.3258V19.4922C17.8619 19.5647 17.8907 19.6343 17.942 19.6855C17.9932 19.7368 18.0628 19.7656 18.1353 19.7656C18.2078 19.7656 18.2774 19.7368 18.3287 19.6855C18.3799 19.6343 18.4088 19.5647 18.4088 19.4922V18.3141H19.3723V19.4922C19.3723 19.5647 19.4012 19.6343 19.4524 19.6855C19.5037 19.7368 19.5733 19.7656 19.6458 19.7656C19.7183 19.7656 19.7879 19.7368 19.8391 19.6855C19.8904 19.6343 19.9192 19.5647 19.9192 19.4922V18.3141H20.8828V19.4922C20.8828 19.5647 20.9116 19.6343 20.9629 19.6855C21.0142 19.7368 21.0837 19.7656 21.1563 19.7656C21.2288 19.7656 21.2983 19.7368 21.3496 19.6855C21.4009 19.6343 21.4297 19.5647 21.4297 19.4922V18.3258C22.3012 18.3955 23.1146 18.7906 23.708 19.4325C24.3015 20.0745 24.6317 20.9164 24.6328 21.7906V22.1541Z"/>
</mask>
<path d="M25.1797 16C25.1797 11.9577 23.4839 8.79126 21.3192 8.79126C19.6898 8.79126 18.2517 10.6652 17.6975 13.4806C17.6788 13.4814 17.6603 13.4797 17.6414 13.4816C17.5201 13.2315 17.3057 13.039 17.0441 12.9451C16.7825 12.8513 16.4946 12.8637 16.242 12.9797C16.1187 12.8135 15.9454 12.6911 15.7475 12.6305C15.5495 12.57 15.3374 12.5744 15.1422 12.6431C14.9333 12.4586 14.6641 12.3567 14.3854 12.3567C14.1066 12.3567 13.8375 12.4586 13.6286 12.6431C13.4334 12.5744 13.2212 12.57 13.0233 12.6305C12.8254 12.6911 12.6521 12.8135 12.5288 12.9797C12.2761 12.8639 11.9883 12.8516 11.7267 12.9454C11.4651 13.0392 11.2507 13.2317 11.1292 13.4816C11.0959 13.4782 11.0624 13.4766 11.0289 13.4767C10.8293 13.4767 10.6338 13.5331 10.465 13.6395C10.2961 13.746 10.1609 13.898 10.0748 14.0781C9.84835 14.0696 9.62704 14.1472 9.45556 14.2954C9.28409 14.4436 9.17522 14.6514 9.15094 14.8767C8.97304 14.9517 8.81546 15.0679 8.69117 15.2156C8.56688 15.3633 8.4794 15.5385 8.43594 15.7266H7.09375C7.02123 15.7266 6.95168 15.7554 6.9004 15.8067C6.84912 15.8579 6.82031 15.9275 6.82031 16C6.82031 19.8281 9.21328 21.4161 9.86547 21.7775V22.9353C9.86547 23.0078 9.89428 23.0774 9.94556 23.1287C9.99684 23.18 10.0664 23.2088 10.1389 23.2088H24.125C24.4046 23.2084 24.6727 23.0972 24.8704 22.8995C25.0681 22.7018 25.1794 22.4337 25.1797 22.1541V21.7906C25.1804 21.073 24.9879 20.3685 24.6223 19.7509C25.0001 18.5368 25.1881 17.2716 25.1797 16ZM21.3192 9.33813C23.1153 9.33813 24.6328 12.3889 24.6328 16C24.6379 17.0761 24.4993 18.1481 24.2206 19.1875C23.5905 18.4443 22.7121 17.9551 21.7484 17.8109C21.885 17.217 21.9528 16.6094 21.9505 16C21.9505 15.9275 21.9217 15.8579 21.8704 15.8067C21.8191 15.7554 21.7496 15.7266 21.677 15.7266H20.3348C20.2914 15.5385 20.2039 15.3633 20.0796 15.2156C19.9553 15.0679 19.7977 14.9517 19.6198 14.8767C19.5955 14.6514 19.4866 14.4437 19.3151 14.2955C19.1437 14.1473 18.9224 14.0696 18.6959 14.0781C18.5964 13.8732 18.4335 13.7058 18.2313 13.6008C18.725 11.0799 19.9781 9.33813 21.3192 9.33813ZM9.48438 15.3438C9.55429 15.3297 9.61594 15.2889 9.65617 15.23C9.6964 15.1711 9.71201 15.0988 9.69969 15.0286C9.68762 14.9685 9.69208 14.9062 9.71259 14.8485C9.73309 14.7907 9.76888 14.7396 9.81614 14.7005C9.8634 14.6614 9.92036 14.6359 9.98097 14.6267C10.0416 14.6174 10.1036 14.6248 10.1603 14.648C10.1978 14.6623 10.2381 14.6682 10.2781 14.6652C10.3182 14.6623 10.3571 14.6505 10.3921 14.6309C10.4271 14.6112 10.4574 14.584 10.4807 14.5513C10.5041 14.5187 10.5199 14.4812 10.5272 14.4417C10.5404 14.3679 10.5699 14.298 10.6133 14.2369C10.6568 14.1758 10.7133 14.1251 10.7786 14.0884C10.844 14.0516 10.9167 14.0299 10.9915 14.0246C11.0663 14.0192 11.1413 14.0306 11.2113 14.0577C11.2487 14.0721 11.2889 14.078 11.329 14.0751C11.369 14.0722 11.4079 14.0605 11.4429 14.0409C11.4779 14.0213 11.5082 13.9942 11.5316 13.9615C11.5549 13.9289 11.5708 13.8915 11.5781 13.852C11.5951 13.7603 11.6366 13.6748 11.6983 13.6047C11.76 13.5347 11.8395 13.4827 11.9285 13.4544C12.0174 13.426 12.1123 13.4223 12.2032 13.4436C12.2941 13.465 12.3774 13.5106 12.4444 13.5756C12.4786 13.6089 12.521 13.6325 12.5672 13.6443C12.6134 13.6561 12.6619 13.6556 12.7079 13.6428C12.7538 13.63 12.7956 13.6053 12.8291 13.5714C12.8626 13.5374 12.8866 13.4952 12.8988 13.4491C12.9159 13.3843 12.9482 13.3246 12.993 13.2748C13.0378 13.225 13.0939 13.1866 13.1565 13.1627C13.2191 13.1389 13.2865 13.1303 13.3531 13.1377C13.4196 13.1451 13.4835 13.1682 13.5394 13.2052C13.5973 13.2438 13.6679 13.2588 13.7365 13.2472C13.8052 13.2356 13.8669 13.1982 13.9089 13.1427C13.9643 13.0686 14.0363 13.0084 14.119 12.967C14.2017 12.9256 14.293 12.904 14.3855 12.904C14.478 12.904 14.5692 12.9256 14.652 12.967C14.7347 13.0084 14.8066 13.0686 14.862 13.1427C14.9041 13.1982 14.9657 13.2356 15.0344 13.2472C15.1031 13.2588 15.1736 13.2438 15.2316 13.2052C15.2874 13.1682 15.3513 13.1451 15.4179 13.1377C15.4845 13.1303 15.5519 13.1389 15.6145 13.1627C15.6771 13.1866 15.7331 13.225 15.7779 13.2748C15.8227 13.3246 15.8551 13.3843 15.8722 13.4491C15.8844 13.4952 15.9084 13.5373 15.9419 13.5712C15.9754 13.6051 16.0172 13.6297 16.0631 13.6425C16.1091 13.6553 16.1576 13.6558 16.2038 13.6441C16.25 13.6323 16.2923 13.6087 16.3266 13.5755C16.3935 13.5105 16.4769 13.4648 16.5678 13.4435C16.6587 13.4221 16.7536 13.4259 16.8425 13.4542C16.9315 13.4826 17.011 13.5346 17.0727 13.6047C17.1344 13.6748 17.1759 13.7602 17.1928 13.852C17.2001 13.8915 17.2159 13.9289 17.2393 13.9616C17.2626 13.9943 17.2929 14.0214 17.3279 14.041C17.3629 14.0607 17.4018 14.0724 17.4418 14.0753C17.4819 14.0782 17.5221 14.0722 17.5595 14.0578C17.6295 14.0307 17.7045 14.0194 17.7793 14.0247C17.8541 14.03 17.9268 14.0518 17.9922 14.0885C18.0576 14.1252 18.1141 14.1759 18.1576 14.237C18.201 14.2981 18.2305 14.3681 18.2438 14.4419C18.251 14.4814 18.2669 14.5188 18.2902 14.5515C18.3136 14.5842 18.3438 14.6113 18.3788 14.631C18.4139 14.6507 18.4528 14.6624 18.4928 14.6654C18.5329 14.6684 18.5731 14.6625 18.6106 14.6481C18.6674 14.6248 18.7294 14.6174 18.79 14.6266C18.8507 14.6358 18.9077 14.6613 18.955 14.7004C19.0023 14.7394 19.0381 14.7906 19.0585 14.8485C19.079 14.9063 19.0833 14.9686 19.0711 15.0288C19.0588 15.099 19.0744 15.1712 19.1146 15.23C19.1548 15.2889 19.2164 15.3297 19.2863 15.3438C19.3901 15.3652 19.4874 15.4111 19.5701 15.4776C19.6527 15.5441 19.7183 15.6293 19.7614 15.7263H9.00938C9.0525 15.6294 9.11808 15.5442 9.20067 15.4776C9.28327 15.4111 9.38052 15.3652 9.48438 15.3438ZM7.37156 16.2734H21.3991C21.3831 16.7775 21.3143 17.2785 21.1938 17.7681C21.1811 17.7681 21.1688 17.7672 21.1563 17.7672H18.1353C17.147 17.7685 16.1937 18.133 15.4567 18.7914C14.7196 19.4498 14.2503 20.3561 14.138 21.338H10.2031C9.81406 21.1388 7.48688 19.7995 7.37156 16.2734ZM10.4123 21.8849H14.1119V22.1541C14.1118 22.3317 14.1568 22.5064 14.2427 22.6619H10.4123V21.8849ZM24.6328 22.1541C24.6326 22.2887 24.5791 22.4178 24.4839 22.513C24.3887 22.6082 24.2596 22.6617 24.125 22.6619H15.1666C15.0319 22.6617 14.9029 22.6082 14.8077 22.513C14.7125 22.4178 14.6589 22.2887 14.6588 22.1541V21.7906C14.6599 20.9164 14.99 20.0745 15.5835 19.4325C16.177 18.7906 16.9904 18.3955 17.8619 18.3258V19.4922C17.8619 19.5647 17.8907 19.6343 17.942 19.6855C17.9932 19.7368 18.0628 19.7656 18.1353 19.7656C18.2078 19.7656 18.2774 19.7368 18.3287 19.6855C18.3799 19.6343 18.4088 19.5647 18.4088 19.4922V18.3141H19.3723V19.4922C19.3723 19.5647 19.4012 19.6343 19.4524 19.6855C19.5037 19.7368 19.5733 19.7656 19.6458 19.7656C19.7183 19.7656 19.7879 19.7368 19.8391 19.6855C19.8904 19.6343 19.9192 19.5647 19.9192 19.4922V18.3141H20.8828V19.4922C20.8828 19.5647 20.9116 19.6343 20.9629 19.6855C21.0142 19.7368 21.0837 19.7656 21.1563 19.7656C21.2288 19.7656 21.2983 19.7368 21.3496 19.6855C21.4009 19.6343 21.4297 19.5647 21.4297 19.4922V18.3258C22.3012 18.3955 23.1146 18.7906 23.708 19.4325C24.3015 20.0745 24.6317 20.9164 24.6328 21.7906V22.1541Z" fill="black"/>
<path d="M25.1797 16C25.1797 11.9577 23.4839 8.79126 21.3192 8.79126C19.6898 8.79126 18.2517 10.6652 17.6975 13.4806C17.6788 13.4814 17.6603 13.4797 17.6414 13.4816C17.5201 13.2315 17.3057 13.039 17.0441 12.9451C16.7825 12.8513 16.4946 12.8637 16.242 12.9797C16.1187 12.8135 15.9454 12.6911 15.7475 12.6305C15.5495 12.57 15.3374 12.5744 15.1422 12.6431C14.9333 12.4586 14.6641 12.3567 14.3854 12.3567C14.1066 12.3567 13.8375 12.4586 13.6286 12.6431C13.4334 12.5744 13.2212 12.57 13.0233 12.6305C12.8254 12.6911 12.6521 12.8135 12.5288 12.9797C12.2761 12.8639 11.9883 12.8516 11.7267 12.9454C11.4651 13.0392 11.2507 13.2317 11.1292 13.4816C11.0959 13.4782 11.0624 13.4766 11.0289 13.4767C10.8293 13.4767 10.6338 13.5331 10.465 13.6395C10.2961 13.746 10.1609 13.898 10.0748 14.0781C9.84835 14.0696 9.62704 14.1472 9.45556 14.2954C9.28409 14.4436 9.17522 14.6514 9.15094 14.8767C8.97304 14.9517 8.81546 15.0679 8.69117 15.2156C8.56688 15.3633 8.4794 15.5385 8.43594 15.7266H7.09375C7.02123 15.7266 6.95168 15.7554 6.9004 15.8067C6.84912 15.8579 6.82031 15.9275 6.82031 16C6.82031 19.8281 9.21328 21.4161 9.86547 21.7775V22.9353C9.86547 23.0078 9.89428 23.0774 9.94556 23.1287C9.99684 23.18 10.0664 23.2088 10.1389 23.2088H24.125C24.4046 23.2084 24.6727 23.0972 24.8704 22.8995C25.0681 22.7018 25.1794 22.4337 25.1797 22.1541V21.7906C25.1804 21.073 24.9879 20.3685 24.6223 19.7509C25.0001 18.5368 25.1881 17.2716 25.1797 16ZM21.3192 9.33813C23.1153 9.33813 24.6328 12.3889 24.6328 16C24.6379 17.0761 24.4993 18.1481 24.2206 19.1875C23.5905 18.4443 22.7121 17.9551 21.7484 17.8109C21.885 17.217 21.9528 16.6094 21.9505 16C21.9505 15.9275 21.9217 15.8579 21.8704 15.8067C21.8191 15.7554 21.7496 15.7266 21.677 15.7266H20.3348C20.2914 15.5385 20.2039 15.3633 20.0796 15.2156C19.9553 15.0679 19.7977 14.9517 19.6198 14.8767C19.5955 14.6514 19.4866 14.4437 19.3151 14.2955C19.1437 14.1473 18.9224 14.0696 18.6959 14.0781C18.5964 13.8732 18.4335 13.7058 18.2313 13.6008C18.725 11.0799 19.9781 9.33813 21.3192 9.33813ZM9.48438 15.3438C9.55429 15.3297 9.61594 15.2889 9.65617 15.23C9.6964 15.1711 9.71201 15.0988 9.69969 15.0286C9.68762 14.9685 9.69208 14.9062 9.71259 14.8485C9.73309 14.7907 9.76888 14.7396 9.81614 14.7005C9.8634 14.6614 9.92036 14.6359 9.98097 14.6267C10.0416 14.6174 10.1036 14.6248 10.1603 14.648C10.1978 14.6623 10.2381 14.6682 10.2781 14.6652C10.3182 14.6623 10.3571 14.6505 10.3921 14.6309C10.4271 14.6112 10.4574 14.584 10.4807 14.5513C10.5041 14.5187 10.5199 14.4812 10.5272 14.4417C10.5404 14.3679 10.5699 14.298 10.6133 14.2369C10.6568 14.1758 10.7133 14.1251 10.7786 14.0884C10.844 14.0516 10.9167 14.0299 10.9915 14.0246C11.0663 14.0192 11.1413 14.0306 11.2113 14.0577C11.2487 14.0721 11.2889 14.078 11.329 14.0751C11.369 14.0722 11.4079 14.0605 11.4429 14.0409C11.4779 14.0213 11.5082 13.9942 11.5316 13.9615C11.5549 13.9289 11.5708 13.8915 11.5781 13.852C11.5951 13.7603 11.6366 13.6748 11.6983 13.6047C11.76 13.5347 11.8395 13.4827 11.9285 13.4544C12.0174 13.426 12.1123 13.4223 12.2032 13.4436C12.2941 13.465 12.3774 13.5106 12.4444 13.5756C12.4786 13.6089 12.521 13.6325 12.5672 13.6443C12.6134 13.6561 12.6619 13.6556 12.7079 13.6428C12.7538 13.63 12.7956 13.6053 12.8291 13.5714C12.8626 13.5374 12.8866 13.4952 12.8988 13.4491C12.9159 13.3843 12.9482 13.3246 12.993 13.2748C13.0378 13.225 13.0939 13.1866 13.1565 13.1627C13.2191 13.1389 13.2865 13.1303 13.3531 13.1377C13.4196 13.1451 13.4835 13.1682 13.5394 13.2052C13.5973 13.2438 13.6679 13.2588 13.7365 13.2472C13.8052 13.2356 13.8669 13.1982 13.9089 13.1427C13.9643 13.0686 14.0363 13.0084 14.119 12.967C14.2017 12.9256 14.293 12.904 14.3855 12.904C14.478 12.904 14.5692 12.9256 14.652 12.967C14.7347 13.0084 14.8066 13.0686 14.862 13.1427C14.9041 13.1982 14.9657 13.2356 15.0344 13.2472C15.1031 13.2588 15.1736 13.2438 15.2316 13.2052C15.2874 13.1682 15.3513 13.1451 15.4179 13.1377C15.4845 13.1303 15.5519 13.1389 15.6145 13.1627C15.6771 13.1866 15.7331 13.225 15.7779 13.2748C15.8227 13.3246 15.8551 13.3843 15.8722 13.4491C15.8844 13.4952 15.9084 13.5373 15.9419 13.5712C15.9754 13.6051 16.0172 13.6297 16.0631 13.6425C16.1091 13.6553 16.1576 13.6558 16.2038 13.6441C16.25 13.6323 16.2923 13.6087 16.3266 13.5755C16.3935 13.5105 16.4769 13.4648 16.5678 13.4435C16.6587 13.4221 16.7536 13.4259 16.8425 13.4542C16.9315 13.4826 17.011 13.5346 17.0727 13.6047C17.1344 13.6748 17.1759 13.7602 17.1928 13.852C17.2001 13.8915 17.2159 13.9289 17.2393 13.9616C17.2626 13.9943 17.2929 14.0214 17.3279 14.041C17.3629 14.0607 17.4018 14.0724 17.4418 14.0753C17.4819 14.0782 17.5221 14.0722 17.5595 14.0578C17.6295 14.0307 17.7045 14.0194 17.7793 14.0247C17.8541 14.03 17.9268 14.0518 17.9922 14.0885C18.0576 14.1252 18.1141 14.1759 18.1576 14.237C18.201 14.2981 18.2305 14.3681 18.2438 14.4419C18.251 14.4814 18.2669 14.5188 18.2902 14.5515C18.3136 14.5842 18.3438 14.6113 18.3788 14.631C18.4139 14.6507 18.4528 14.6624 18.4928 14.6654C18.5329 14.6684 18.5731 14.6625 18.6106 14.6481C18.6674 14.6248 18.7294 14.6174 18.79 14.6266C18.8507 14.6358 18.9077 14.6613 18.955 14.7004C19.0023 14.7394 19.0381 14.7906 19.0585 14.8485C19.079 14.9063 19.0833 14.9686 19.0711 15.0288C19.0588 15.099 19.0744 15.1712 19.1146 15.23C19.1548 15.2889 19.2164 15.3297 19.2863 15.3438C19.3901 15.3652 19.4874 15.4111 19.5701 15.4776C19.6527 15.5441 19.7183 15.6293 19.7614 15.7263H9.00938C9.0525 15.6294 9.11808 15.5442 9.20067 15.4776C9.28327 15.4111 9.38052 15.3652 9.48438 15.3438ZM7.37156 16.2734H21.3991C21.3831 16.7775 21.3143 17.2785 21.1938 17.7681C21.1811 17.7681 21.1688 17.7672 21.1563 17.7672H18.1353C17.147 17.7685 16.1937 18.133 15.4567 18.7914C14.7196 19.4498 14.2503 20.3561 14.138 21.338H10.2031C9.81406 21.1388 7.48688 19.7995 7.37156 16.2734ZM10.4123 21.8849H14.1119V22.1541C14.1118 22.3317 14.1568 22.5064 14.2427 22.6619H10.4123V21.8849ZM24.6328 22.1541C24.6326 22.2887 24.5791 22.4178 24.4839 22.513C24.3887 22.6082 24.2596 22.6617 24.125 22.6619H15.1666C15.0319 22.6617 14.9029 22.6082 14.8077 22.513C14.7125 22.4178 14.6589 22.2887 14.6588 22.1541V21.7906C14.6599 20.9164 14.99 20.0745 15.5835 19.4325C16.177 18.7906 16.9904 18.3955 17.8619 18.3258V19.4922C17.8619 19.5647 17.8907 19.6343 17.942 19.6855C17.9932 19.7368 18.0628 19.7656 18.1353 19.7656C18.2078 19.7656 18.2774 19.7368 18.3287 19.6855C18.3799 19.6343 18.4088 19.5647 18.4088 19.4922V18.3141H19.3723V19.4922C19.3723 19.5647 19.4012 19.6343 19.4524 19.6855C19.5037 19.7368 19.5733 19.7656 19.6458 19.7656C19.7183 19.7656 19.7879 19.7368 19.8391 19.6855C19.8904 19.6343 19.9192 19.5647 19.9192 19.4922V18.3141H20.8828V19.4922C20.8828 19.5647 20.9116 19.6343 20.9629 19.6855C21.0142 19.7368 21.0837 19.7656 21.1563 19.7656C21.2288 19.7656 21.2983 19.7368 21.3496 19.6855C21.4009 19.6343 21.4297 19.5647 21.4297 19.4922V18.3258C22.3012 18.3955 23.1146 18.7906 23.708 19.4325C24.3015 20.0745 24.6317 20.9164 24.6328 21.7906V22.1541Z" stroke="black" stroke-width="0.4" mask="url(#path-9-outside-1_2_322)"/>
</g>
<defs>
<clipPath id="clip0_2_322">
<rect width="20" height="20" fill="white" transform="translate(6 6)"/>
</clipPath>
</defs>
</svg>
