<svg width="24" height="24" viewBox="0 0 24 24" fill="none" xmlns="http://www.w3.org/2000/svg">
<path d="M2.96582 1.25C4.2393 1.25 5.37174 2.09354 5.68945 3.32813L6.18457 5.25L22 5.25C22.4142 5.25 22.75 5.58579 22.75 6C22.75 6.41421 22.4142 6.75 22 6.75H21.6709L21.1094 11.8115C20.9591 13.1644 20.7179 14.2504 19.9746 14.9736C19.2312 15.6969 18.1388 15.9075 16.7822 16.0205L8.49219 16.7109C8.40829 16.8895 8.30475 17.0603 8.18164 17.2197L7.7002 17.8418C8.14893 18.1958 8.48366 18.6853 8.64355 19.25H14.3564C14.6832 18.0961 15.7415 17.25 17 17.25C18.5188 17.25 19.75 18.4812 19.75 20C19.75 21.5188 18.5188 22.75 17 22.75C15.7415 22.75 14.6832 21.9039 14.3564 20.75H8.64355C8.31684 21.9039 7.2585 22.75 6 22.75C4.48122 22.75 3.25 21.5188 3.25 20C3.25 18.4812 4.48122 17.25 6 17.25C6.08531 17.25 6.1696 17.2551 6.25293 17.2627L6.99414 16.3037C7.22617 16.0032 7.30394 15.6215 7.21191 15.2637L4.2373 3.70215C4.09678 3.15607 3.5817 2.75 2.96582 2.75H2C1.58579 2.75 1.25 2.41421 1.25 2C1.25 1.58579 1.58579 1.25 2 1.25L2.96582 1.25ZM6 18.75C5.30964 18.75 4.75 19.3096 4.75 20C4.75 20.6904 5.30964 21.25 6 21.25C6.69036 21.25 7.25 20.6904 7.25 20C7.25 19.3096 6.69036 18.75 6 18.75ZM17 18.75C16.3096 18.75 15.75 19.3096 15.75 20C15.75 20.6904 16.3096 21.25 17 21.25C17.6904 21.25 18.25 20.6904 18.25 20C18.25 19.3096 17.6904 18.75 17 18.75ZM8.66504 14.8896C8.69035 14.988 8.70868 15.0872 8.72266 15.1865L16.6582 14.5264C18.0299 14.412 18.6082 14.2103 18.9287 13.8984C19.2491 13.5865 19.4662 13.0142 19.6182 11.6465L20.1621 6.75L6.57031 6.75L8.66504 14.8896Z" fill="#161616"/>
</svg>
