<svg width="23" height="23" viewBox="0 0 23 23" fill="none" xmlns="http://www.w3.org/2000/svg">
<g clip-path="url(#clip0_28_742)">
<path d="M22.837 13.7569L21.2502 11.9055C22.3825 10.6281 22.9992 9.06986 22.9992 7.45729C22.9992 3.27934 18.9459 0.000488281 14.1949 0.000488281C9.36492 0.000488281 5.43538 3.3456 5.43538 7.45729C5.43538 7.56057 5.43879 7.66411 5.44387 7.76757C2.22962 9.04479 1.07463e-05 11.798 1.07463e-05 14.9815C1.07463e-05 16.7657 0.681565 18.4777 1.93201 19.8649L0.166716 21.8823C-0.00735645 22.0813 -0.0490439 22.3637 0.060251 22.6044C0.169501 22.8452 0.409429 22.9998 0.673839 22.9998H10.152C10.227 22.9998 10.4632 22.957 10.5114 22.9526C12.7342 22.7475 14.7947 21.8749 16.3428 20.477C17.9774 19.001 18.9447 17.0248 18.9099 14.8692H22.3255C22.8999 14.8692 23.211 14.1932 22.837 13.7569ZM10.2868 21.6194C10.2279 21.6242 10.0242 21.6418 9.98363 21.6522H2.15878L3.35576 20.2842C3.59385 20.0121 3.57476 19.6007 3.3125 19.3518C2.04544 18.1492 1.34762 16.5972 1.34762 14.9815C1.34762 11.3288 4.9946 8.35578 9.47821 8.35578C13.9367 8.35578 17.5639 11.3281 17.5639 14.9815C17.5639 18.3973 14.3818 21.2848 10.2868 21.6194ZM18.7547 13.5217C17.9417 9.77302 14.0536 7.00817 9.47821 7.00817C8.54285 7.00817 7.63898 7.1233 6.78488 7.33663C6.86322 4.02351 10.1569 1.34819 14.1949 1.34819C18.3066 1.34819 21.6516 4.08874 21.6516 7.45734C21.6516 8.89825 21.0205 10.2959 19.8745 11.3929C19.616 11.6402 19.596 12.0465 19.8288 12.3181L20.8604 13.5217H18.7547Z" fill="currentColor"/>
<path d="M5.43526 13.5215C4.69221 13.5215 4.08765 14.126 4.08765 14.8691C4.08765 15.6121 4.69221 16.2167 5.43526 16.2167C6.17831 16.2167 6.78287 15.6121 6.78287 14.8691C6.78287 14.126 6.17836 13.5215 5.43526 13.5215Z" fill="currentColor"/>
<path d="M9.47823 13.5215C8.73517 13.5215 8.13062 14.126 8.13062 14.8691C8.13062 15.6121 8.73517 16.2167 9.47823 16.2167C10.2213 16.2167 10.8258 15.6121 10.8258 14.8691C10.8258 14.126 10.2213 13.5215 9.47823 13.5215Z" fill="currentColor"/>
<path d="M13.521 13.5215C12.7779 13.5215 12.1733 14.126 12.1733 14.8691C12.1733 15.6121 12.7779 16.2167 13.521 16.2167C14.264 16.2167 14.8686 15.6121 14.8686 14.8691C14.8686 14.126 14.264 13.5215 13.521 13.5215Z" fill="currentColor"/>
</g>
<defs>
<clipPath id="clip0_28_742">
<rect width="23" height="23" fill="white"/>
</clipPath>
</defs>
</svg>
