<svg width="23" height="23" viewBox="0 0 23 23" fill="none" xmlns="http://www.w3.org/2000/svg">
<path fill-rule="evenodd" clip-rule="evenodd" d="M22.0884 0C21.7446 0 21.112 0.0656791 20.1887 0.19463C19.2656 0.324061 18.6687 0.449329 18.3996 0.567872C18.1295 0.686411 17.6417 1.09778 16.9372 1.7973C16.2321 2.49941 15.2092 3.79503 13.8718 5.68334C12.5323 7.57375 11.2832 9.56922 10.1218 11.6714C8.95997 13.7743 7.87567 15.9576 6.86936 18.2208C5.93835 16.627 5.09702 15.5463 4.34128 14.9778C3.58742 14.4072 2.95146 14.1226 2.43438 14.1226C2.03054 14.1226 1.52465 14.3379 0.914365 14.7665C0.304857 15.1965 0 15.6173 0 16.0324C0 16.3327 0.27969 16.7779 0.839073 17.3666C1.94696 18.5371 2.92763 19.7783 3.7763 21.0924C4.29469 21.8783 4.63941 22.3604 4.81127 22.5363C4.9822 22.7105 5.50296 22.8 6.3739 22.8C7.58541 22.8 8.30498 22.6446 8.53389 22.3321C8.76072 22.0313 9.18043 21.1344 9.79265 19.6392C11.3053 15.8957 13.1861 12.3208 15.4342 8.91709C17.6842 5.51483 19.745 2.94094 21.6211 1.19726C21.9948 0.865989 22.2194 0.651355 22.2984 0.552197C22.3753 0.452718 22.4145 0.3526 22.4145 0.248316C22.4144 0.0838025 22.3055 0 22.0884 0Z" fill="currentColor"/>
</svg>
