<svg width="30" height="30" viewBox="0 0 30 30" fill="none" xmlns="http://www.w3.org/2000/svg">
<path d="M15 2.8125C17.2046 2.8125 19.1272 4.01407 20.1514 5.7959C20.8723 5.48512 21.6666 5.3125 22.5 5.3125C25.7792 5.3125 28.4375 7.97081 28.4375 11.25C28.4375 14.2101 26.2711 16.6627 23.4375 17.1123L23.4375 25C23.4375 25.0564 23.4305 25.1113 23.4209 25.165C23.6342 25.2283 23.8433 25.2924 24.0469 25.3604C24.538 25.5242 24.8035 26.0557 24.6396 26.5469C24.4757 27.0379 23.9442 27.3035 23.4531 27.1396C21.2354 26.3999 18.2755 25.9375 15 25.9375C11.7245 25.9375 8.76456 26.3998 6.54688 27.1396C6.05586 27.3034 5.52528 27.0378 5.36133 26.5469C5.19751 26.0558 5.46216 25.5243 5.95313 25.3604C6.15635 25.2926 6.36522 25.2281 6.57813 25.165C6.56859 25.1114 6.5625 25.0564 6.5625 25L6.5625 17.1123C3.72888 16.6627 1.5625 14.2101 1.5625 11.25C1.5625 7.97081 4.22081 5.3125 7.5 5.3125C8.33341 5.3125 9.12775 5.48512 9.84863 5.7959C10.8728 4.01407 12.7954 2.8125 15 2.8125ZM15 21.5625C12.5042 21.5625 10.23 21.9316 8.4375 22.5332L8.4375 24.6992C10.3998 24.2908 12.6365 24.0625 15 24.0625C17.3634 24.0625 19.6002 24.2908 21.5625 24.6992L21.5625 22.5332C19.7701 21.9316 17.4957 21.5625 15 21.5625ZM15 4.6875C13.4631 4.6875 12.1238 5.54167 11.4336 6.80273C11.9114 7.22564 12.3209 7.72417 12.6426 8.28027C12.9018 8.72839 12.7488 9.30221 12.3008 9.56152C11.8527 9.82074 11.2788 9.66776 11.0195 9.21973C10.7077 8.68059 10.275 8.21915 9.75879 7.87305C9.1133 7.4403 8.33751 7.1875 7.5 7.1875C5.25634 7.1875 3.4375 9.00634 3.4375 11.25C3.4375 13.1709 4.771 14.7788 6.5625 15.2021V15C6.5625 14.4822 6.98223 14.0625 7.5 14.0625C8.01777 14.0625 8.4375 14.4822 8.4375 15V20.5664C10.3384 20.0056 12.5956 19.6875 15 19.6875C17.4043 19.6875 19.6617 20.0056 21.5625 20.5664V15C21.5625 14.4822 21.9822 14.0625 22.5 14.0625C23.0178 14.0625 23.4375 14.4822 23.4375 15V15.2021C25.229 14.7788 26.5625 13.1709 26.5625 11.25C26.5625 9.00634 24.7437 7.1875 22.5 7.1875C21.8984 7.1875 21.3289 7.31801 20.8164 7.55176C20.8959 7.93931 20.9375 8.34015 20.9375 8.75C20.9375 9.26105 20.8723 9.75823 20.75 10.2334C20.6209 10.7348 20.1098 11.0373 19.6084 10.9082C19.1072 10.779 18.8057 10.2678 18.9346 9.7666C19.0179 9.44277 19.0625 9.10214 19.0625 8.75C19.0625 8.27675 18.9823 7.8242 18.835 7.4043C18.2793 5.82068 16.7706 4.6875 15 4.6875Z" fill="#161616"/>
</svg>
