<svg width="16" height="15" viewBox="0 0 16 15" fill="none" xmlns="http://www.w3.org/2000/svg">
<g clip-path="url(#clip0_323_1799)">
<path d="M14.5909 7.49968C14.5909 6.18114 14.1882 4.8922 13.4337 3.79588C12.6792 2.69955 11.6068 1.84506 10.3522 1.34048C9.0975 0.835896 7.71691 0.703874 6.38497 0.961109C5.05303 1.21834 3.82957 1.85328 2.86929 2.78563C1.90902 3.71798 1.25506 4.90587 0.990121 6.19908C0.725182 7.49228 0.861158 8.83273 1.38086 10.0509C1.90055 11.2691 2.78063 12.3103 3.90979 13.0428C5.03896 13.7754 6.3665 14.1663 7.72453 14.1663C9.5456 14.1663 11.2921 13.464 12.5798 12.2137C13.8675 10.9635 14.5909 9.26779 14.5909 7.49968ZM7.90906 10.833C7.79688 10.7217 7.73406 10.5721 7.73406 10.4163C7.73406 10.2606 7.79688 10.111 7.90906 9.99968L9.87026 8.08301L3.80213 8.08301C3.64279 8.08301 3.48997 8.02155 3.3773 7.91216C3.26462 7.80276 3.20133 7.65439 3.20133 7.49968C3.20133 7.34497 3.26462 7.19659 3.3773 7.0872C3.48997 6.9778 3.64279 6.91634 3.80213 6.91634L9.81018 6.91634L7.90906 5.07051C7.79525 4.96 7.7313 4.81012 7.7313 4.65384C7.7313 4.49756 7.79525 4.34768 7.90906 4.23718C8.02288 4.12667 8.17725 4.06459 8.33821 4.06459C8.49917 4.06459 8.65354 4.12667 8.76735 4.23718L12.1447 7.53301L8.75877 10.833C8.70298 10.8872 8.63675 10.9302 8.56385 10.9595C8.49095 10.9888 8.41282 11.0039 8.33392 11.0039C8.25501 11.0039 8.17688 10.9888 8.10398 10.9595C8.03109 10.9302 7.96485 10.8872 7.90906 10.833Z" fill="#8EC038"/>
</g>
<defs>
<clipPath id="clip0_323_1799">
<rect width="15" height="15.4493" fill="white" transform="matrix(0 1 -1 0 15.4493 0)"/>
</clipPath>
</defs>
</svg>
