<svg width="46" height="46" viewBox="0 0 46 46" fill="none" xmlns="http://www.w3.org/2000/svg">
<path d="M25.8301 3.5874C25.8301 3.5874 26.2606 5.5863 27.265 5.73984C30.8316 6.28369 34.0352 7.10664 34.4398 7.59309C36.5923 10.1796 40.1797 33.7215 40.1797 33.7215" stroke="currentColor" stroke-width="2" stroke-miterlimit="10" stroke-linecap="round" stroke-linejoin="round"/>
<path d="M20.0898 3.5874C20.0898 3.5874 19.6593 5.5863 18.6549 5.73984C15.0883 6.28369 11.8847 7.10664 11.4801 7.59309C9.32763 10.1796 5.74023 33.7215 5.74023 33.7215" stroke="currentColor" stroke-width="2" stroke-miterlimit="10" stroke-linecap="round" stroke-linejoin="round"/>
<path d="M32.3667 13.1191C32.333 12.8171 32.3086 12.5035 32.3086 12.228" stroke="currentColor" stroke-width="2" stroke-miterlimit="10" stroke-linecap="round" stroke-linejoin="round"/>
<path d="M13.553 13.1191C13.5867 12.8171 13.6111 12.5035 13.6111 12.228" stroke="currentColor" stroke-width="2" stroke-miterlimit="10" stroke-linecap="round" stroke-linejoin="round"/>
<path d="M32.5619 14.3948C32.5619 14.3948 32.442 13.7864 32.3674 13.1199" stroke="currentColor" stroke-width="2" stroke-miterlimit="10" stroke-linejoin="round"/>
<path d="M13.3574 14.3948C13.3574 14.3948 13.4772 13.7864 13.5519 13.1199" stroke="currentColor" stroke-width="2" stroke-miterlimit="10" stroke-linejoin="round"/>
<path d="M32.1328 18.5755C32.3172 18.1457 32.4392 17.6923 32.5174 17.2474" stroke="currentColor" stroke-width="2" stroke-miterlimit="10" stroke-linejoin="round"/>
<path d="M13.7869 18.5755C13.6025 18.1457 13.4805 17.6923 13.4023 17.2474" stroke="currentColor" stroke-width="2" stroke-miterlimit="10" stroke-linejoin="round"/>
<path d="M25.4709 19.4172C25.4709 19.4172 26.065 20.8521 28.531 20.8521C30.5521 20.8521 31.6011 19.8175 32.1327 18.5756" stroke="currentColor" stroke-width="2" stroke-miterlimit="10" stroke-linecap="round" stroke-linejoin="round"/>
<path d="M20.4489 19.4172C20.4489 19.4172 19.8548 20.8521 17.3889 20.8521C15.3677 20.8521 14.3188 19.8175 13.7871 18.5756" stroke="currentColor" stroke-width="2" stroke-miterlimit="10" stroke-linecap="round" stroke-linejoin="round"/>
<path d="M34.306 40.9867C34.2579 41.4581 34.2148 41.6138 34.2148 41.6138" stroke="currentColor" stroke-width="2" stroke-miterlimit="10" stroke-linecap="round" stroke-linejoin="round"/>
<path d="M11.6133 40.9867C11.6614 41.4581 11.7051 41.6138 11.7051 41.6138" stroke="currentColor" stroke-width="2" stroke-miterlimit="10" stroke-linecap="round" stroke-linejoin="round"/>
<path d="M34.3676 40.214C34.3483 40.5347 34.3267 40.7887 34.3066 40.9867" stroke="currentColor" stroke-width="2" stroke-miterlimit="10" stroke-linejoin="round"/>
<path d="M11.5527 40.214C11.5721 40.5347 11.5936 40.7887 11.6137 40.9867" stroke="currentColor" stroke-width="2" stroke-miterlimit="10" stroke-linejoin="round"/>
<path d="M31.543 28.9087C32.5855 31.4629 34.4387 33.9569 34.4387 37.3089" stroke="currentColor" stroke-width="2" stroke-miterlimit="10" stroke-linejoin="round"/>
<path d="M14.3762 28.9087C13.3337 31.4629 11.4805 33.9569 11.4805 37.3089" stroke="currentColor" stroke-width="2" stroke-miterlimit="10" stroke-linejoin="round"/>
<path d="M31.4126 19.7106C31.4126 19.7106 30.8516 23.722 30.8516 25.8292" stroke="currentColor" stroke-width="2" stroke-miterlimit="10" stroke-linejoin="round"/>
<path d="M14.5059 19.7106C14.5059 19.7106 15.0669 23.722 15.0669 25.8292" stroke="currentColor" stroke-width="2" stroke-miterlimit="10" stroke-linejoin="round"/>
<path d="M13.6107 23.9423C12.7117 24.4072 12.1973 24.9453 12.1973 25.5186C12.1973 27.2757 17.0151 28.6992 22.9595 28.6992C28.9038 28.6992 33.7217 27.2757 33.7217 25.5186C33.7217 24.9446 33.2072 24.4065 32.3082 23.9423" stroke="currentColor" stroke-width="2" stroke-miterlimit="10" stroke-linejoin="round"/>
<path d="M22.2422 26.5468L26.5772 28.6992L22.2422 30.8516V26.5468Z" fill="currentColor"/>
<path d="M9.91734 35.6703C9.07717 36.0742 8.60938 36.5241 8.60938 36.9983C8.60938 38.7554 15.033 40.1789 22.959 40.1789C30.885 40.1789 37.3086 38.7554 37.3086 36.9983C37.3086 36.5241 36.8408 36.0742 36.0006 35.6696" stroke="currentColor" stroke-width="2" stroke-miterlimit="10" stroke-linejoin="round"/>
<path d="M25.8301 38.0265L30.1651 40.1789L25.8301 42.3314V38.0265Z" fill="currentColor"/>
<path d="M12.1377 12.9756C11.7115 13.3085 11.4805 13.6665 11.4805 14.0389C11.4805 15.796 16.6191 17.2195 22.9601 17.2195C29.3012 17.2195 34.4398 15.796 34.4398 14.0389C34.4398 13.6658 34.2088 13.3078 33.7826 12.9756" stroke="currentColor" stroke-width="2" stroke-miterlimit="10" stroke-linejoin="round"/>
<path d="M26.5469 14.3496L30.8518 16.502L26.5469 18.6545V14.3496Z" fill="currentColor"/>
</svg>
