<svg width="32" height="32" viewBox="0 0 32 32" fill="none" xmlns="http://www.w3.org/2000/svg">
<path d="M11.3346 25.3346H10.668C5.33464 25.3346 2.66797 24.0013 2.66797 17.3346V10.668C2.66797 5.33464 5.33464 2.66797 10.668 2.66797H21.3346C26.668 2.66797 29.3346 5.33464 29.3346 10.668V17.3346C29.3346 22.668 26.668 25.3346 21.3346 25.3346H20.668C20.2546 25.3346 19.8546 25.5346 19.6013 25.868L17.6013 28.5346C16.7213 29.708 15.2813 29.708 14.4013 28.5346L12.4013 25.868C12.188 25.5746 11.6946 25.3346 11.3346 25.3346Z" stroke="currentColor" stroke-width="1.5" stroke-miterlimit="10" stroke-linecap="round" stroke-linejoin="round"/>
<path d="M21.3273 14.6667H21.3393" stroke="currentColor" stroke-width="2" stroke-linecap="round" stroke-linejoin="round"/>
<path d="M15.9953 14.6667H16.0073" stroke="currentColor" stroke-width="2" stroke-linecap="round" stroke-linejoin="round"/>
<path d="M10.6593 14.6667H10.6713" stroke="currentColor" stroke-width="2" stroke-linecap="round" stroke-linejoin="round"/>
</svg>
