<svg width="30" height="30" viewBox="0 0 30 30" fill="none" xmlns="http://www.w3.org/2000/svg">
<path d="M11.0801 4.29297C12.2425 4.043 13.0802 3.85513 13.8926 4.50488C14.7175 5.17985 14.7178 6.08018 14.7178 7.45508V15.293H22.5557C23.9179 15.293 24.8305 15.2931 25.4805 16.1055C26.1427 16.9429 25.9551 17.7681 25.7051 18.918C24.455 24.4429 19.4427 28.4423 13.7803 28.4424L13.7676 28.4307C7.03012 28.4306 1.55566 22.9552 1.55566 16.2178C1.55567 10.4678 5.46764 5.55551 11.0801 4.29297ZM12.5801 5.93066C12.3926 5.93069 12.0548 6.00549 11.5674 6.10547C6.81755 7.18058 3.43067 11.4179 3.43066 16.2178C3.43066 21.6052 7.56763 26.0425 12.8301 26.5176V7.44336C12.8301 6.70586 12.8301 6.05508 12.7051 5.95508C12.6801 5.94261 12.6424 5.93066 12.5801 5.93066ZM14.7051 26.5176C19.1049 26.1051 22.8803 22.8682 23.8555 18.5059C24.0305 17.7184 24.0924 17.3801 24.0049 17.2676C23.9161 17.1679 23.1797 17.168 22.543 17.168H14.7051V26.5176ZM17.8057 2.03027C19.0555 1.18056 20.1676 1.62979 21.5674 2.17969C24.4047 3.29213 26.6923 5.56738 27.8174 8.42969C28.3923 9.89207 28.805 10.9423 27.9678 12.1797C27.1303 13.4296 25.8178 13.4297 23.8555 13.4297H21.293C19.3055 13.4297 18.2174 13.4303 17.3799 12.5928C16.555 11.7803 16.5557 10.6798 16.5557 8.69238V6.15527C16.5557 4.18027 16.5557 2.86777 17.8057 2.03027ZM19.293 3.42969C19.118 3.42969 18.9929 3.48016 18.8555 3.58008C18.4805 3.84258 18.4307 4.33027 18.4307 6.15527V8.69238C18.4307 10.0798 18.4301 10.9925 18.7051 11.2676C18.9926 11.5551 19.8555 11.5547 21.293 11.5547H23.8301C25.6551 11.5547 26.1428 11.5174 26.4053 11.1299C26.6676 10.755 26.6173 10.5297 26.0674 9.12988C25.1298 6.75503 23.2421 4.85465 20.8672 3.92969C20.0053 3.57997 19.5804 3.42979 19.293 3.42969Z" fill="#161616"/>
</svg>
