<svg width="30" height="30" viewBox="0 0 30 30" fill="none" xmlns="http://www.w3.org/2000/svg">
<path d="M25.1911 12.5195L22.5724 15.1382V15.4291C22.5724 20.6665 18.3534 24.8855 13.116 24.8855C7.87865 24.8855 3.65966 20.6665 3.65966 15.4291C3.65966 10.1918 7.87866 5.97277 13.116 5.97277C14.8618 5.97277 16.6076 6.40921 17.917 7.28211L19.9537 5.09987C18.0624 3.79052 15.7347 3.06311 13.116 3.06311C6.27834 3.06311 0.75 8.59146 0.75 15.4291C0.75 22.2668 6.27834 27.7952 13.116 27.7952C19.9537 27.7952 25.4821 22.2668 25.4821 15.4291C25.4821 14.4108 25.3366 13.3924 25.1911 12.5195Z" fill="black"/>
<path d="M28.8284 4.66342L14.8621 18.6298C14.2996 19.1922 13.3878 19.1922 12.8253 18.6298L8.16987 13.9743C7.60744 13.4119 7.60744 12.5 8.16987 11.9376C8.73231 11.3751 9.6442 11.3751 10.2066 11.9376L13.8437 15.5746L26.7917 2.62666C27.3541 2.06423 28.266 2.06423 28.8284 2.62666C29.3909 3.1891 29.3909 4.10098 28.8284 4.66342Z" fill="black"/>
<path d="M28.8284 4.66342L14.8621 18.6298C14.2996 19.1922 13.3878 19.1922 12.8253 18.6298L8.16987 13.9743C7.60744 13.4119 7.60744 12.5 8.16987 11.9376C8.73231 11.3751 9.6442 11.3751 10.2066 11.9376L13.8437 15.5746L26.7917 2.62666C27.3541 2.06423 28.266 2.06423 28.8284 2.62666C29.3909 3.1891 29.3909 4.10098 28.8284 4.66342Z" fill="black"/>
</svg>
