<svg width="14" height="18" viewBox="0 0 14 18" fill="none" xmlns="http://www.w3.org/2000/svg">
<path d="M8.61757 0H1.72351C0.775581 0 0 0.775581 0 1.72351V15.5116C0 16.4596 0.775581 17.2351 1.72351 17.2351H12.0646C13.0125 17.2351 13.7881 16.4596 13.7881 15.5116V5.17054L8.61757 0ZM6.89406 6.89406C7.84199 6.89406 8.61757 7.66964 8.61757 8.61757C8.61757 9.5655 7.84199 10.3411 6.89406 10.3411C5.94612 10.3411 5.17054 9.5655 5.17054 8.61757C5.17054 7.66964 5.94612 6.89406 6.89406 6.89406ZM10.3411 13.7881H3.44703V13.2969C3.44703 12.5989 3.86067 11.9784 4.49837 11.7027C5.23087 11.3838 6.04092 11.2028 6.89406 11.2028C7.7472 11.2028 8.55725 11.3838 9.28974 11.7027C9.92744 11.9784 10.3411 12.5989 10.3411 13.2969V13.7881Z" fill="currentColor"/>
</svg>
