<svg width="20" height="20" viewBox="0 0 20 20" fill="none" xmlns="http://www.w3.org/2000/svg">
<path d="M7.5 1.875C7.845 1.875 8.125 2.155 8.125 2.5V6.125C8.125 7.225 7.79773 8.16203 7.17773 8.83203C6.75136 9.29309 6.21398 9.59941 5.625 9.72656V17.5C5.625 17.845 5.345 18.125 5 18.125C4.655 18.125 4.375 17.845 4.375 17.5V9.72656C3.78554 9.59947 3.24813 9.29321 2.82227 8.83203C2.20227 8.1612 1.875 7.225 1.875 6.125V2.5C1.875 2.155 2.155 1.875 2.5 1.875C2.845 1.875 3.125 2.155 3.125 2.5V6.04199H4.375V2.5C4.375 2.155 4.655 1.875 5 1.875C5.345 1.875 5.625 2.155 5.625 2.5V6.04199H6.875V2.5C6.875 2.155 7.155 1.875 7.5 1.875ZM17.5 1.875C17.845 1.875 18.125 2.155 18.125 2.5C18.125 2.845 17.845 3.125 17.5 3.125C13.7092 3.125 10.625 6.20917 10.625 10C10.625 13.7908 13.7092 16.875 17.5 16.875C17.845 16.875 18.125 17.155 18.125 17.5C18.125 17.845 17.845 18.125 17.5 18.125C13.02 18.125 9.375 14.48 9.375 10C9.375 5.52 13.02 1.875 17.5 1.875ZM17.5 5.20801C17.8449 5.20801 18.1248 5.48816 18.125 5.83301C18.125 6.17801 17.845 6.45801 17.5 6.45801C15.5475 6.45801 13.958 8.0475 13.958 10C13.958 11.9525 15.5475 13.542 17.5 13.542C17.845 13.542 18.125 13.822 18.125 14.167C18.1248 14.5118 17.8449 14.792 17.5 14.792C14.8575 14.792 12.708 12.6425 12.708 10C12.708 7.3575 14.8575 5.20801 17.5 5.20801ZM3.33594 7.29199C3.60684 7.99418 4.14487 8.53756 4.9873 8.54297C4.99153 8.54288 4.99575 8.54199 5 8.54199C5.00392 8.54199 5.00781 8.5429 5.01172 8.54297C5.85471 8.53797 6.39306 7.99446 6.66406 7.29199H3.33594Z" fill="currentColor"/>
</svg>
