<svg width="40" height="40" viewBox="0 0 40 40" fill="none" xmlns="http://www.w3.org/2000/svg">
<path d="M20 0.25C30.9088 0.25 39.75 9.04771 39.75 19.8975C39.75 30.7472 30.9088 39.5449 20 39.5449C9.09118 39.5449 0.250033 30.7472 0.25 19.8975C0.25 9.04771 9.09116 0.25 20 0.25Z" fill="#61A23C" stroke="white" stroke-width="0.5"/>
<g clip-path="url(#clip0_531_752)">
<path d="M23.3303 13.2501H25.1561V10.0864C24.8411 10.0433 23.7578 9.94629 22.4961 9.94629C16.7194 9.94629 18.2911 16.4544 18.0611 17.4078H15.1553V20.9446H18.0603V29.8437H21.6219V20.9454H24.4094L24.8519 17.4086H21.6211C21.7778 15.0674 20.9869 13.2501 23.3303 13.2501Z" fill="white"/>
</g>
<defs>
<clipPath id="clip0_531_752">
<rect width="20" height="19.8974" fill="white" transform="translate(10 9.94629)"/>
</clipPath>
</defs>
</svg>
