<svg width="30" height="30" viewBox="0 0 30 30" fill="none" xmlns="http://www.w3.org/2000/svg">
<path fill-rule="evenodd" clip-rule="evenodd" d="M5.18112 4.19358C8.90734 1.90791 12.2501 2.81885 14.2695 4.33539C14.6018 4.58489 14.8298 4.75563 14.9995 4.87094C15.1692 4.75563 15.3973 4.58489 15.7295 4.33539C17.7489 2.81885 21.0917 1.90791 24.8179 4.19358C27.3945 5.77403 28.8442 9.07538 28.3355 12.8685C27.8243 16.68 25.3573 20.9908 20.1328 24.8578C20.0891 24.8901 20.0458 24.9222 20.0028 24.954C18.1886 26.2977 16.9871 27.1875 14.9995 27.1875C13.0119 27.1875 11.8104 26.2977 9.99622 24.954C9.95323 24.9222 9.90988 24.8901 9.86618 24.8578C4.64168 20.9908 2.17469 16.68 1.66351 12.8685C1.15478 9.07538 2.60457 5.77403 5.18112 4.19358ZM14.8036 4.99175C14.7996 4.99356 14.8003 4.99297 14.8053 4.99094C14.8047 4.99125 14.8041 4.99152 14.8036 4.99175ZM15.1937 4.99094C15.1987 4.99297 15.1995 4.99356 15.1954 4.99175C15.1949 4.99152 15.1943 4.99125 15.1937 4.99094ZM13.1436 5.83469C11.6479 4.71148 9.1394 3.9652 6.1615 5.79185C4.33884 6.90987 3.09131 9.40896 3.52187 12.6193C3.94998 15.8113 6.05891 19.707 10.9817 23.3507C12.9594 24.8145 13.6812 25.3125 14.9995 25.3125C16.3178 25.3125 17.0396 24.8145 19.0174 23.3507C23.9401 19.707 26.049 15.8113 26.4772 12.6193C26.9077 9.40896 25.6602 6.90987 23.8375 5.79185C20.8596 3.9652 18.3511 4.71148 16.8554 5.83469L16.8293 5.85432C16.4913 6.10816 16.201 6.32619 15.9688 6.47822C15.8481 6.55724 15.7144 6.63772 15.5757 6.7004C15.444 6.75989 15.2418 6.83431 14.9995 6.83431C14.7572 6.83431 14.555 6.75989 14.4233 6.7004C14.2846 6.63772 14.151 6.55724 14.0303 6.47823C13.798 6.32618 13.5077 6.10813 13.1697 5.85428L13.1436 5.83469Z" fill="#161616"/>
</svg>
