<svg width="30" height="30" viewBox="0 0 30 30" fill="none" xmlns="http://www.w3.org/2000/svg">
<path fill-rule="evenodd" clip-rule="evenodd" d="M7.72766 2.8125C7.74933 2.8125 7.77107 2.8125 7.79289 2.8125L22.2723 2.8125C23.2355 2.81246 24.0532 2.81242 24.6983 2.90038C25.3812 2.99348 26.0341 3.20364 26.534 3.75387C27.0382 4.30892 27.1762 4.97783 27.1868 5.66159C27.1967 6.30016 27.0946 7.0934 26.9756 8.01826L26.9669 8.08562C26.9248 8.41291 26.8617 8.72946 26.73 9.04638C26.5963 9.36816 26.4123 9.64221 26.183 9.91456C24.9584 11.3694 22.6818 13.9986 19.4768 16.393C19.4249 16.4317 19.3595 16.5235 19.3471 16.6612C19.0357 20.1024 18.7617 21.9231 18.5641 22.9779C18.3504 24.1185 17.4803 24.908 16.7302 25.4515C16.3376 25.736 15.9209 25.9921 15.5498 26.218C15.52 26.2361 15.4906 26.254 15.4616 26.2716C15.1149 26.4825 14.8201 26.6617 14.5738 26.8359C13.8981 27.3137 13.1186 27.2801 12.5228 26.933C11.9606 26.6055 11.5649 26.0082 11.485 25.3325C11.3094 23.8495 10.9911 20.9462 10.6397 16.6532C10.6284 16.5155 10.6069 16.4756 10.6051 16.4722C10.6039 16.4699 10.6007 16.4641 10.5902 16.4526C10.5785 16.4397 10.555 16.4168 10.5104 16.3835C7.3119 13.9921 5.03978 11.3675 3.81688 9.91452C3.5885 9.64317 3.39901 9.37564 3.2639 9.05028C3.13164 8.73177 3.07524 8.41361 3.03305 8.08562C3.03015 8.06309 3.02726 8.04063 3.02438 8.01825C2.90536 7.0934 2.80328 6.30016 2.81316 5.66159C2.82375 4.97783 2.96177 4.30892 3.466 3.75387C3.96586 3.20364 4.61878 2.99348 5.30163 2.90038C5.94676 2.81242 6.76446 2.81246 7.72766 2.8125ZM5.55493 4.75819C5.0748 4.82365 4.93017 4.93062 4.85384 5.01464C4.78189 5.09384 4.69502 5.23331 4.68794 5.69061C4.6804 6.17765 4.76265 6.83514 4.89273 7.8464C4.92887 8.12741 4.96054 8.24692 4.99554 8.3312C5.02769 8.40864 5.08466 8.50902 5.25142 8.70715C6.44928 10.1304 8.61058 12.6219 11.6332 14.8818C11.876 15.0633 12.0988 15.2881 12.26 15.5908C12.4188 15.889 12.4838 16.1992 12.5084 16.5003C12.8579 20.7698 13.1739 23.6505 13.3469 25.112C13.3522 25.1566 13.3685 25.2006 13.3934 25.2388C13.419 25.278 13.4474 25.3017 13.4667 25.3129C13.4691 25.3143 13.4713 25.3155 13.4731 25.3164C13.4776 25.314 13.4836 25.3104 13.4912 25.305C13.7939 25.091 14.1451 24.8775 14.4767 24.6761C14.5097 24.656 14.5425 24.6361 14.575 24.6163C14.9485 24.389 15.3058 24.1682 15.63 23.9332C16.3135 23.4379 16.6488 23.0188 16.7212 22.6326C16.9043 21.6553 17.1715 19.8976 17.4797 16.4923C17.5361 15.8683 17.8425 15.2735 18.3546 14.8909C21.3834 12.6282 23.549 10.1321 24.7485 8.70712C24.894 8.53431 24.9587 8.42288 24.9985 8.32701C25.0403 8.22628 25.0755 8.09299 25.1072 7.8464C25.2373 6.83515 25.3196 6.17766 25.312 5.69061C25.3049 5.23332 25.2181 5.09384 25.1461 5.01464C25.0698 4.93062 24.9252 4.82365 24.445 4.75819C23.9417 4.68957 23.2534 4.6875 22.2071 4.6875H7.79289C6.74658 4.6875 6.05825 4.68957 5.55493 4.75819ZM13.4633 25.3208C13.4634 25.3207 13.464 25.3205 13.4651 25.3202L13.4633 25.3208Z" fill="#161616"/>
</svg>
