<svg width="14" height="14" viewBox="0 0 14 14" fill="none" xmlns="http://www.w3.org/2000/svg">
<path d="M10.0565 8.38578C9.94304 9.01945 9.63817 9.60315 9.18293 10.0583C8.72769 10.5134 8.14393 10.8182 7.51023 10.9315C7.48618 10.9353 7.46186 10.9374 7.4375 10.9375C7.32776 10.9375 7.22203 10.8962 7.14129 10.8219C7.06056 10.7475 7.0107 10.6456 7.00162 10.5362C6.99253 10.4269 7.02488 10.3181 7.09225 10.2314C7.15961 10.1448 7.25708 10.0867 7.36531 10.0685C8.27148 9.91594 9.04039 9.14703 9.19406 8.23922C9.2135 8.12478 9.2776 8.02276 9.37226 7.95558C9.46692 7.8884 9.58439 7.86158 9.69883 7.88102C9.81327 7.90045 9.91529 7.96455 9.98247 8.05922C10.0496 8.15388 10.0765 8.27135 10.057 8.38578H10.0565ZM11.8125 7.875C11.8125 9.15136 11.3055 10.3754 10.403 11.278C9.50043 12.1805 8.27635 12.6875 7 12.6875C5.72365 12.6875 4.49957 12.1805 3.59705 11.278C2.69453 10.3754 2.1875 9.15136 2.1875 7.875C2.1875 6.34813 2.78906 4.7868 3.97359 3.23477C4.01109 3.18562 4.05857 3.14498 4.11292 3.11552C4.16726 3.08607 4.22723 3.06846 4.28887 3.06386C4.35051 3.05926 4.41243 3.06778 4.47054 3.08885C4.52866 3.10991 4.58164 3.14306 4.62602 3.1861L5.94508 4.46633L7.1482 1.16266C7.17224 1.09677 7.21177 1.03762 7.26345 0.990207C7.31513 0.942792 7.37746 0.908498 7.44517 0.890216C7.51289 0.871933 7.584 0.870199 7.65253 0.885159C7.72105 0.900119 7.78497 0.931335 7.83891 0.976175C9.03492 1.96875 11.8125 4.62383 11.8125 7.875ZM10.9375 7.875C10.9375 5.35446 8.98023 3.17625 7.75414 2.06008L6.53625 5.39985C6.51125 5.46844 6.46949 5.52969 6.41476 5.57801C6.36004 5.62633 6.29409 5.66019 6.22292 5.6765C6.15176 5.69281 6.07765 5.69105 6.00734 5.67139C5.93703 5.65172 5.87276 5.61477 5.82039 5.56391L4.37828 4.165C3.50492 5.42555 3.0625 6.67188 3.0625 7.875C3.0625 8.91929 3.47734 9.92081 4.21577 10.6592C4.95419 11.3977 5.95571 11.8125 7 11.8125C8.04429 11.8125 9.04581 11.3977 9.78423 10.6592C10.5227 9.92081 10.9375 8.91929 10.9375 7.875Z" fill="#272932"/>
</svg>
