<svg width="12" height="12" viewBox="0 0 12 12" fill="none" xmlns="http://www.w3.org/2000/svg">
<g clip-path="url(#clip0_682_894)">
<path d="M7.87477 3.56251C7.87477 3.67377 7.84178 3.78252 7.77997 3.87502C7.71816 3.96752 7.63031 4.03962 7.52753 4.0822C7.42474 4.12477 7.31164 4.13591 7.20253 4.11421C7.09342 4.0925 6.99319 4.03893 6.91452 3.96026C6.83585 3.88159 6.78228 3.78137 6.76058 3.67225C6.73887 3.56314 6.75001 3.45004 6.79259 3.34725C6.83516 3.24447 6.90726 3.15662 6.99976 3.09481C7.09226 3.033 7.20102 3.00001 7.31227 3.00001C7.46145 3.00001 7.60453 3.05928 7.71002 3.16477C7.81551 3.27026 7.87477 3.41333 7.87477 3.56251ZM10.1585 6.73314C9.25055 8.36908 7.55977 9.25314 5.13164 9.36283L4.10039 11.7727C4.07141 11.8403 4.02315 11.898 3.96164 11.9384C3.90012 11.9788 3.82807 12.0003 3.75446 12H3.73055C3.65327 11.9952 3.57939 11.9665 3.51905 11.918C3.4587 11.8695 3.41485 11.8035 3.39352 11.7291L2.69977 9.29955L0.271643 8.60439C0.197005 8.58343 0.130698 8.53984 0.0818498 8.47964C0.0330013 8.41944 0.00401213 8.34558 -0.00112783 8.26822C-0.00626778 8.19087 0.0126941 8.11382 0.0531482 8.04768C0.0936022 7.98155 0.15356 7.92957 0.224768 7.89892L2.63461 6.86767C2.74477 4.44048 3.62883 2.75017 5.26383 1.84173C6.42399 1.19767 7.73602 1.09923 8.63321 1.13017C9.50696 1.16017 10.3207 1.33033 10.4548 1.41142C10.5095 1.44369 10.5552 1.48933 10.5874 1.54408C10.6666 1.67767 10.8373 2.49142 10.8687 3.36517C10.9005 4.26048 10.8026 5.57298 10.1585 6.73314ZM7.57196 8.09251C7.13866 7.92733 6.76134 7.64222 6.4841 7.27051C6.20685 6.8988 6.04114 6.45586 6.00633 5.99345C5.54403 5.95871 5.10117 5.79307 4.72954 5.5159C4.35791 5.23874 4.07287 4.8615 3.90774 4.4283C3.58117 5.17173 3.40461 6.07158 3.37805 7.12783C3.37639 7.19975 3.35407 7.26969 3.31376 7.32928C3.27345 7.38887 3.21685 7.43561 3.15071 7.46392L1.4918 8.17361L3.10664 8.6358C3.16791 8.65336 3.2237 8.68625 3.26872 8.73136C3.31375 8.77647 3.34654 8.83231 3.36399 8.89361L3.82524 10.508L4.53586 8.84861C4.56424 8.78255 4.61101 8.72605 4.6706 8.68582C4.73019 8.6456 4.80008 8.62335 4.87196 8.62173C5.92727 8.59642 6.82727 8.42001 7.57196 8.09251ZM9.95696 2.04236C9.29367 1.90173 6.95227 1.52673 5.25539 2.73376C4.97454 2.93416 4.72223 3.1718 4.50539 3.44017C4.48763 3.68505 4.52351 3.93085 4.61053 4.16043C4.69756 4.39001 4.83364 4.59784 5.00927 4.76941C5.18489 4.94097 5.39585 5.07215 5.6274 5.15378C5.85895 5.23541 6.10553 5.26554 6.34993 5.24205C6.40498 5.23674 6.46053 5.24369 6.51259 5.26238C6.56465 5.28107 6.61192 5.31104 6.65104 5.35015C6.69015 5.38926 6.72012 5.43654 6.73881 5.4886C6.7575 5.54066 6.76445 5.59621 6.75914 5.65126C6.7357 5.89575 6.7659 6.1424 6.84765 6.37401C6.92939 6.60561 7.06071 6.81658 7.23243 6.99218C7.40415 7.16778 7.61212 7.30378 7.84184 7.39068C8.07156 7.47759 8.31748 7.5133 8.56242 7.49533C8.82979 7.27844 9.06635 7.02612 9.26555 6.74533C10.4726 5.04986 10.0976 2.70658 9.95696 2.04236Z" fill="#52545B"/>
</g>
<defs>
<clipPath id="clip0_682_894">
<rect width="12" height="12" fill="white"/>
</clipPath>
</defs>
</svg>
