<svg width="24" height="24" viewBox="0 0 24 24" fill="none" xmlns="http://www.w3.org/2000/svg">
<path d="M15.0013 1.33045e-07C14.449 1.33045e-07 14.0013 0.447716 14.0013 1C14.0013 1.55229 14.449 2 15.0013 2H20.5884L15.9622 6.62623C15.5716 7.01675 15.5716 7.64992 15.9622 8.04044C16.3527 8.43096 16.9859 8.43096 17.3764 8.04044L22.0013 3.41552V9C22.0013 9.55229 22.449 10 23.0013 10C23.5536 10 24.0013 9.55229 24.0013 9V1.0512C24.0152 0.77849 23.918 0.501181 23.7097 0.292894C23.5144 0.0975597 23.2583 -7.14208e-05 23.0023 1.33045e-07H15.0013Z" fill="currentColor"/>
<path d="M2.0013 15C2.0013 14.4477 1.55359 14 1.0013 14C0.449019 14 0.00130407 14.4477 0.00130407 15V23C0.00113744 23.2561 0.0987687 23.513 0.294197 23.7084C0.502491 23.9167 0.77981 24.0139 1.05252 24H9.0013C9.55359 24 10.0013 23.5523 10.0013 23C10.0013 22.4477 9.55359 22 9.0013 22H3.41682L8.04174 17.3751C8.43227 16.9846 8.43227 16.3514 8.04174 15.9609C7.65122 15.5703 7.01805 15.5703 6.62753 15.9609L2.0013 20.5871V15Z" fill="currentColor"/>
<path d="M23.0013 14C23.5536 14 24.0013 14.4477 24.0013 15V23C24.0015 23.2562 23.9039 23.5129 23.7084 23.7084C23.5001 23.9167 23.2228 24.0139 22.9501 24H15.0013C14.449 24 14.0013 23.5523 14.0013 23C14.0013 22.4477 14.449 22 15.0013 22H20.5858L15.9609 17.3751C15.5703 16.9846 15.5703 16.3514 15.9609 15.9609C16.3514 15.5703 16.9846 15.5703 17.3751 15.9609L22.0013 20.5871V15C22.0013 14.4477 22.449 14 23.0013 14Z" fill="currentColor"/>
<path d="M9.0013 2C9.55359 2 10.0013 1.55229 10.0013 1C10.0013 0.447716 9.55359 1.33045e-07 9.0013 1.33045e-07H1.0013C1.00104 1.33045e-07 1.00157 -6.871e-08 1.0013 1.33045e-07C0.745209 -0.000131558 0.488286 0.0974998 0.292893 0.292894C0.0846029 0.501184 -0.0125934 0.778498 0.00130385 1.05121L0.0013035 9C0.00130348 9.55229 0.449019 10 1.0013 10C1.55359 10 2.0013 9.55229 2.0013 9L2.0013 3.41552L6.62623 8.04044C7.01675 8.43097 7.64992 8.43097 8.04044 8.04044C8.43097 7.64992 8.43097 7.01675 8.04044 6.62623L3.41421 2L9.0013 2Z" fill="currentColor"/>
</svg>
