<svg width="25" height="32" viewBox="0 0 25 32" fill="none" xmlns="http://www.w3.org/2000/svg">
<path d="M9.98828 22.043H10.9902V22.9823H9.98828V22.043Z" fill="currentColor"/>
<path d="M11.9922 22.043H12.9941V22.9823H11.9922V22.043Z" fill="currentColor"/>
<path d="M13.9961 22.043H14.9981V22.9823H13.9961V22.043Z" fill="currentColor"/>
<path d="M23.5655 13.7152C22.6661 11.9991 21.3575 10.4926 19.7811 9.35865L19.2326 10.1211C20.3348 10.9141 21.2952 11.9041 22.0578 13.0255H18.9052C18.6036 12.193 18.2415 11.4149 17.8221 10.7068C18.5877 9.2237 18.9746 7.81013 18.9746 6.48141C18.9746 2.90755 16.067 0 12.4932 0C8.9193 0 6.01174 2.90755 6.01174 6.48141C6.01174 7.81013 6.39856 9.2237 7.16431 10.7067C6.74486 11.4149 6.38278 12.1929 6.08119 13.0254H2.92853C3.69121 11.904 4.65159 10.9141 5.7538 10.1211L5.20523 9.35859C3.6289 10.4926 2.32028 11.9991 1.42084 13.7152C0.491335 15.4887 0 17.4914 0 19.5068C0 26.3956 5.60438 32 12.4932 32C19.3819 32 24.9863 26.3956 24.9863 19.5068C24.9863 17.4914 24.495 15.4887 23.5655 13.7152ZM12.0235 31.0307C10.4975 30.8361 9.06195 29.6964 7.93938 27.7721C7.61782 27.2208 7.33245 26.6233 7.08534 25.9883H12.0235V31.0307ZM12.9628 31.0307V25.9883H17.901C17.6539 26.6234 17.3685 27.2208 17.0469 27.7721C15.9244 29.6964 14.4888 30.8361 12.9628 31.0307ZM12.9628 25.0489V24.0157H12.0235V25.0489H6.75645C6.27125 23.5023 5.99584 21.7766 5.95494 19.9765H12.0235V21.0098H12.9628V19.9765H19.0314C18.9905 21.7766 18.7151 23.5023 18.2299 25.0489H12.9628ZM0.949667 19.9765H5.01542C5.05443 21.7629 5.31482 23.4847 5.77528 25.0489H2.35792C1.52498 23.5317 1.02331 21.8083 0.949667 19.9765ZM9.36617 13.9648C10.5182 15.3566 11.6129 16.3566 12.0235 16.7164V19.0372H5.95519C5.99728 17.2525 6.27789 15.5162 6.76277 13.9648H9.36617ZM15.6201 13.9648H18.2235C18.7084 15.5162 18.989 17.2525 19.0311 19.0372H12.9628V16.7164C13.3734 16.3566 14.4681 15.3566 15.6201 13.9648ZM19.9709 19.9765H24.0366C23.963 21.8083 23.4613 23.5317 22.6284 25.0489H19.211C19.6714 23.4847 19.9319 21.7629 19.9709 19.9765ZM22.6322 13.9648C22.6662 14.0268 22.7007 14.0886 22.7335 14.1513C23.5206 15.6529 23.9666 17.3329 24.0362 19.0372H19.9709C19.9322 17.2445 19.6725 15.5254 19.213 13.9648H22.6322ZM17.8966 13.0254H16.3572C16.6981 12.5662 17.006 12.1124 17.2807 11.6645C17.506 12.0925 17.7118 12.5475 17.8966 13.0254ZM12.4932 0.939335C15.5491 0.939335 18.0352 3.4255 18.0352 6.48141C18.0352 10.581 13.6883 14.7947 12.493 15.8756C11.2973 14.7955 6.95108 10.5859 6.95108 6.48141C6.95108 3.4255 9.43725 0.939335 12.4932 0.939335ZM7.70561 11.6645C7.98034 12.1124 8.28819 12.5662 8.6291 13.0254H7.08966C7.27446 12.5475 7.4803 12.0925 7.70561 11.6645ZM2.25284 14.1513C2.28565 14.0887 2.32009 14.0268 2.35416 13.9648H5.7734C5.31388 15.5254 5.05418 17.2445 5.01548 19.0372H0.950106C1.01974 17.3329 1.46574 15.6529 2.25284 14.1513ZM2.93329 25.9883H6.08332C6.37589 26.797 6.72501 27.5546 7.12805 28.2454C7.65439 29.1477 8.24924 29.8986 8.89431 30.486C6.44578 29.6815 4.3557 28.0796 2.93329 25.9883ZM16.092 30.486C16.7371 29.8986 17.3319 29.1477 17.8583 28.2454C18.2612 27.5546 18.6103 26.797 18.903 25.9883H22.053C20.6306 28.0796 18.5405 29.6815 16.092 30.486Z" fill="currentColor"/>
<path d="M16.9706 6.4814C16.9706 4.01252 14.962 2.00391 12.4931 2.00391C10.0242 2.00391 8.01562 4.01252 8.01562 6.4814C8.01562 8.95029 10.0242 10.9589 12.4931 10.9589C14.962 10.9589 16.9706 8.95029 16.9706 6.4814ZM12.4931 2.94324C13.7143 2.94324 14.7928 3.56514 15.4289 4.5088H9.55732C10.1934 3.56514 11.272 2.94324 12.4931 2.94324ZM9.10926 5.44813H15.877C15.9771 5.77515 16.0313 6.12201 16.0313 6.4814C16.0313 6.84079 15.9771 7.18766 15.877 7.51467H9.10926C9.00919 7.18766 8.95496 6.84079 8.95496 6.4814C8.95496 6.12201 9.00919 5.77515 9.10926 5.44813ZM9.55732 8.454H15.4289C14.7928 9.39766 13.7143 10.0196 12.4931 10.0196C11.272 10.0196 10.1934 9.39766 9.55732 8.454Z" fill="currentColor"/>
</svg>
