<svg width="20" height="20" viewBox="0 0 20 20" fill="none" xmlns="http://www.w3.org/2000/svg">
<path d="M9.93175 5.39356C9.3581 5.23634 8.76253 5.15661 8.16159 5.15661C4.47722 5.15661 1.4798 8.15403 1.4798 11.8384C1.4798 15.5228 4.47722 18.5202 8.16159 18.5202C11.846 18.5202 14.8434 15.5228 14.8434 11.8384C14.8434 11.2375 14.7637 10.6419 14.6064 10.0682C14.4984 9.67416 14.7303 9.26712 15.1244 9.1591C15.5183 9.05112 15.9255 9.28298 16.0336 9.67707C16.2257 10.3782 16.3232 11.1054 16.3232 11.8384C16.3232 16.3387 12.6619 20 8.16159 20C3.6613 20 0 16.3387 0 11.8384C0 7.33811 3.6613 3.67681 8.16159 3.67681C8.89469 3.67681 9.62183 3.77425 10.3229 3.96644C10.6516 4.05652 10.8674 4.35461 10.8674 4.6797C10.8674 4.7444 10.8588 4.81015 10.8409 4.87559C10.7329 5.26968 10.3259 5.50173 9.93175 5.39356ZM8.16159 8.87881C8.2704 8.87881 8.38028 8.88482 8.48821 8.89666C8.8946 8.94138 9.25988 8.64806 9.30437 8.2419C9.34895 7.83569 9.05581 7.47028 8.6496 7.42574C8.48821 7.40799 8.32409 7.39901 8.16159 7.39901C5.71368 7.39901 3.7222 9.3905 3.7222 11.8384C3.7222 14.2863 5.71368 16.2778 8.16159 16.2778C10.6095 16.2778 12.601 14.2863 12.601 11.8384C12.601 11.4298 12.2697 11.0985 11.8611 11.0985C11.4524 11.0985 11.1212 11.4298 11.1212 11.8384C11.1212 13.4703 9.79353 14.798 8.16159 14.798C6.52965 14.798 5.202 13.4703 5.202 11.8384C5.202 10.2065 6.52965 8.87881 8.16159 8.87881ZM11.9394 7.01431L12.308 3.31727C12.3249 3.14719 12.4002 2.98829 12.521 2.86746L15.1719 0.216724C15.3761 0.0125579 15.6803 -0.0541717 15.9512 0.0457609C16.2221 0.145694 16.4101 0.394115 16.4327 0.681981L16.6429 3.35718L19.318 3.56731C19.6059 3.58992 19.8543 3.77795 19.9542 4.0488C20.0542 4.31969 19.9874 4.62398 19.7833 4.82814L17.1325 7.47888C17.0117 7.59971 16.8528 7.675 16.6827 7.69192L12.9858 8.06067L8.68479 12.3616C8.54028 12.5061 8.35096 12.5783 8.16159 12.5783C7.97218 12.5783 7.7829 12.5061 7.63844 12.3616C7.34946 12.0726 7.34946 11.6041 7.63844 11.3152L11.9394 7.01431ZM13.4754 6.52473L16.2729 6.2457L17.6017 4.91688L15.8968 4.78296C15.5339 4.75443 15.2457 4.46615 15.2171 4.10327L15.0832 2.39822L13.7543 3.72708L13.4754 6.52473Z" fill="currentColor"/>
</svg>
