<svg width="30" height="30" viewBox="0 0 30 30" fill="none" xmlns="http://www.w3.org/2000/svg">
<g clip-path="url(#clip0_219_1796)">
<path d="M14.4595 8.73472C13.6243 8.50581 12.7572 8.38975 11.8823 8.38975C6.51831 8.38975 2.15441 12.7536 2.15441 18.1177C2.15441 23.4817 6.51831 27.8456 11.8823 27.8456C17.2463 27.8456 21.6102 23.4817 21.6102 18.1177C21.6102 17.2428 21.4942 16.3757 21.2653 15.5405C21.108 14.9668 21.4456 14.3742 22.0194 14.2169C22.5928 14.0597 23.1857 14.3973 23.343 14.971C23.6227 15.9917 23.7646 17.0504 23.7646 18.1177C23.7646 24.6696 18.4342 30 11.8823 30C5.33042 30 0 24.6696 0 18.1177C0 11.5658 5.33042 6.23533 11.8823 6.23533C12.9496 6.23533 14.0083 6.37719 15.029 6.65699C15.5075 6.78814 15.8217 7.22212 15.8217 7.69542C15.8217 7.78961 15.8091 7.88534 15.7831 7.98061C15.6259 8.55436 15.0333 8.89219 14.4595 8.73472ZM11.8823 13.8088C12.0407 13.8088 12.2007 13.8176 12.3578 13.8348C12.9495 13.8999 13.4813 13.4729 13.5461 12.8816C13.611 12.2902 13.1842 11.7582 12.5928 11.6933C12.3578 11.6675 12.1189 11.6544 11.8823 11.6544C8.31845 11.6544 5.41909 14.5538 5.41909 18.1177C5.41909 21.6815 8.31845 24.5809 11.8823 24.5809C15.4462 24.5809 18.3456 21.6815 18.3456 18.1177C18.3456 17.5227 17.8633 17.0404 17.2683 17.0404C16.6734 17.0404 16.1911 17.5227 16.1911 18.1177C16.1911 20.4936 14.2582 22.4265 11.8823 22.4265C9.50641 22.4265 7.5735 20.4936 7.5735 18.1177C7.5735 15.7417 9.50641 13.8088 11.8823 13.8088ZM17.3824 11.0943L17.919 5.71188C17.9436 5.46426 18.0532 5.23293 18.2291 5.05701L22.0884 1.19785C22.3857 0.900607 22.8286 0.803457 23.2231 0.948947C23.6174 1.09444 23.8911 1.45611 23.9241 1.87521L24.2301 5.76998L28.1248 6.07591C28.5439 6.10883 28.9055 6.38257 29.051 6.7769C29.1965 7.17129 29.0994 7.61429 28.8021 7.91153L24.9429 11.7707C24.767 11.9466 24.5356 12.0562 24.2881 12.0809L18.9058 12.6177L12.644 18.8794C12.4336 19.0897 12.158 19.1949 11.8823 19.1949C11.6066 19.1949 11.331 19.0897 11.1207 18.8793C10.7 18.4587 10.7 17.7766 11.1207 17.3559L17.3824 11.0943ZM19.6185 10.3816L23.6915 9.97532L25.626 8.04073L23.1439 7.84576C22.6155 7.80422 22.1959 7.38451 22.1543 6.85621L21.9594 4.37386L20.0246 6.30852L19.6185 10.3816Z" fill="black"/>
</g>
<defs>
<clipPath id="clip0_219_1796">
<rect width="30" height="30" fill="white"/>
</clipPath>
</defs>
</svg>
