<svg width="24" height="24" viewBox="0 0 24 24" fill="none" xmlns="http://www.w3.org/2000/svg">
<path d="M1 2.33333C1 1.97971 1.14048 1.64057 1.39052 1.39052C1.64057 1.14048 1.97971 1 2.33333 1H7.66667C8.02029 1 8.35943 1.14048 8.60948 1.39052C8.85952 1.64057 9 1.97971 9 2.33333V7.66667C9 8.02029 8.85952 8.35943 8.60948 8.60948C8.35943 8.85952 8.02029 9 7.66667 9H2.33333C1.97971 9 1.64057 8.85952 1.39052 8.60948C1.14048 8.35943 1 8.02029 1 7.66667V2.33333Z" fill="currentColor"/>
<path d="M14.3333 2.33333C14.3333 1.97971 14.4738 1.64057 14.7239 1.39052C14.9739 1.14048 15.313 1 15.6667 1H21C21.3536 1 21.6928 1.14048 21.9428 1.39052C22.1929 1.64057 22.3333 1.97971 22.3333 2.33333V7.66667C22.3333 8.02029 22.1929 8.35943 21.9428 8.60948C21.6928 8.85952 21.3536 9 21 9H15.6667C15.313 9 14.9739 8.85952 14.7239 8.60948C14.4738 8.35943 14.3333 8.02029 14.3333 7.66667V2.33333Z" fill="currentColor"/>
<path d="M1 15.6667C1 15.313 1.14048 14.9739 1.39052 14.7239C1.64057 14.4738 1.97971 14.3333 2.33333 14.3333H7.66667C8.02029 14.3333 8.35943 14.4738 8.60948 14.7239C8.85952 14.9739 9 15.313 9 15.6667V21C9 21.3536 8.85952 21.6928 8.60948 21.9428C8.35943 22.1929 8.02029 22.3333 7.66667 22.3333H2.33333C1.97971 22.3333 1.64057 22.1929 1.39052 21.9428C1.14048 21.6928 1 21.3536 1 21V15.6667Z" fill="currentColor"/>
<path d="M14.3333 15.6667C14.3333 15.313 14.4738 14.9739 14.7239 14.7239C14.9739 14.4738 15.313 14.3333 15.6667 14.3333H21C21.3536 14.3333 21.6928 14.4738 21.9428 14.7239C22.1929 14.9739 22.3333 15.313 22.3333 15.6667V21C22.3333 21.3536 22.1929 21.6928 21.9428 21.9428C21.6928 22.1929 21.3536 22.3333 21 22.3333H15.6667C15.313 22.3333 14.9739 22.1929 14.7239 21.9428C14.4738 21.6928 14.3333 21.3536 14.3333 21V15.6667Z" fill="currentColor"/>
<path d="M1 2.33333C1 1.97971 1.14048 1.64057 1.39052 1.39052C1.64057 1.14048 1.97971 1 2.33333 1H7.66667C8.02029 1 8.35943 1.14048 8.60948 1.39052C8.85952 1.64057 9 1.97971 9 2.33333V7.66667C9 8.02029 8.85952 8.35943 8.60948 8.60948C8.35943 8.85952 8.02029 9 7.66667 9H2.33333C1.97971 9 1.64057 8.85952 1.39052 8.60948C1.14048 8.35943 1 8.02029 1 7.66667V2.33333Z" stroke="currentColor" stroke-width="2" stroke-linecap="round" stroke-linejoin="round"/>
<path d="M14.3333 2.33333C14.3333 1.97971 14.4738 1.64057 14.7239 1.39052C14.9739 1.14048 15.313 1 15.6667 1H21C21.3536 1 21.6928 1.14048 21.9428 1.39052C22.1929 1.64057 22.3333 1.97971 22.3333 2.33333V7.66667C22.3333 8.02029 22.1929 8.35943 21.9428 8.60948C21.6928 8.85952 21.3536 9 21 9H15.6667C15.313 9 14.9739 8.85952 14.7239 8.60948C14.4738 8.35943 14.3333 8.02029 14.3333 7.66667V2.33333Z" stroke="currentColor" stroke-width="2" stroke-linecap="round" stroke-linejoin="round"/>
<path d="M1 15.6667C1 15.313 1.14048 14.9739 1.39052 14.7239C1.64057 14.4738 1.97971 14.3333 2.33333 14.3333H7.66667C8.02029 14.3333 8.35943 14.4738 8.60948 14.7239C8.85952 14.9739 9 15.313 9 15.6667V21C9 21.3536 8.85952 21.6928 8.60948 21.9428C8.35943 22.1929 8.02029 22.3333 7.66667 22.3333H2.33333C1.97971 22.3333 1.64057 22.1929 1.39052 21.9428C1.14048 21.6928 1 21.3536 1 21V15.6667Z" stroke="currentColor" stroke-width="2" stroke-linecap="round" stroke-linejoin="round"/>
<path d="M14.3333 15.6667C14.3333 15.313 14.4738 14.9739 14.7239 14.7239C14.9739 14.4738 15.313 14.3333 15.6667 14.3333H21C21.3536 14.3333 21.6928 14.4738 21.9428 14.7239C22.1929 14.9739 22.3333 15.313 22.3333 15.6667V21C22.3333 21.3536 22.1929 21.6928 21.9428 21.9428C21.6928 22.1929 21.3536 22.3333 21 22.3333H15.6667C15.313 22.3333 14.9739 22.1929 14.7239 21.9428C14.4738 21.6928 14.3333 21.3536 14.3333 21V15.6667Z" stroke="currentColor" stroke-width="2" stroke-linecap="round" stroke-linejoin="round"/>
</svg>
