<svg width="32" height="32" viewBox="0 0 32 32" fill="none" xmlns="http://www.w3.org/2000/svg">
<path fill-rule="evenodd" clip-rule="evenodd"
 d="M30.2473 23.9072H29.1095C28.9449 24.5052 28.7061 25.0801 28.3987 25.6188L29.204 26.4241C29.2927 26.5129 29.3449 26.6318 29.35 26.7573C29.3551 26.8827 29.3128 27.0055 29.2315 27.1012C28.6394 27.94 27.9064 28.6699 27.065 29.2583C26.9689 29.3259 26.852 29.3574 26.7349 29.3473C26.6179 29.3372 26.5081 29.2861 26.425 29.203L26.4244 29.2036L25.6198 28.399C25.0804 28.7047 24.5053 28.9427 23.9076 29.1077V30.2469C23.9076 30.3681 23.8636 30.4851 23.7838 30.5763C23.704 30.6675 23.5938 30.7266 23.4737 30.7426C22.4535 30.9192 21.4105 30.918 20.3907 30.7391C20.2749 30.7189 20.1699 30.6584 20.0942 30.5684C20.0185 30.4784 19.977 30.3645 19.977 30.2469V29.1094C19.3791 28.9447 18.8042 28.7059 18.2655 28.3986L17.4602 29.2038C17.3714 29.2926 17.2525 29.3448 17.127 29.3499C17.0015 29.355 16.8788 29.3127 16.783 29.2314C15.9441 28.6393 15.2142 27.9062 14.6257 27.0647C14.5581 26.9685 14.5265 26.8516 14.5366 26.7346C14.5467 26.6175 14.5978 26.5077 14.6809 26.4246L14.6804 26.424L15.485 25.6194C15.1794 25.0799 14.9414 24.5047 14.7764 23.9069H13.637C13.5158 23.9069 13.3987 23.8629 13.3076 23.7831C13.2164 23.7032 13.1573 23.593 13.1414 23.4729C13.0765 23.0926 13.0353 22.7087 13.0179 22.3233C12.5988 22.5357 12.169 22.7265 11.7304 22.895C11.6147 22.9395 11.4865 22.9389 11.3711 22.8935C8.52454 21.7977 5.48691 19.4896 3.4661 16.0553C1.83816 13.2891 0.8676 9.79509 1.18485 5.62047C1.19413 5.49549 1.25004 5.37857 1.3415 5.2929C1.43296 5.20723 1.55329 5.15907 1.6786 5.15797C3.42695 5.05728 5.14659 4.66792 6.76779 4.00565C8.39583 3.34003 9.90193 2.40847 11.2245 1.24903C11.316 1.16903 11.4335 1.12519 11.5549 1.12574C11.6764 1.12629 11.7935 1.1712 11.8842 1.25203C14.5142 3.57891 17.9448 4.96453 21.4497 5.15934C21.5707 5.166 21.6851 5.21645 21.7716 5.30128C21.8581 5.38611 21.9108 5.49952 21.9198 5.62034H21.9204C22.119 8.23341 21.8218 10.7373 21.0212 13.0567C21.8454 12.9715 22.6774 13.001 23.4935 13.1442C23.6094 13.1644 23.7144 13.2249 23.7901 13.3149C23.8657 13.4049 23.9073 13.5187 23.9073 13.6363V14.7757C24.5051 14.9406 25.0803 15.1787 25.6199 15.4843L26.4244 14.6797C26.5113 14.5928 26.6272 14.541 26.7498 14.534C26.8725 14.5271 26.9935 14.5656 27.0896 14.6422C27.9336 15.2368 28.6675 15.9739 29.2583 16.8205C29.3254 16.9164 29.3565 17.0329 29.3462 17.1495C29.3359 17.266 29.2849 17.3753 29.2021 17.458L29.2035 17.4593L28.3982 18.2647C28.7056 18.8033 28.9444 19.3782 29.109 19.9762H30.2468C30.368 19.9762 30.4851 20.0202 30.5762 20.1C30.6674 20.1798 30.7265 20.29 30.7425 20.4101C30.8697 21.2448 30.9137 21.8733 30.8402 22.7211C30.8179 22.9778 30.7842 23.2352 30.739 23.4931C30.7188 23.6089 30.6583 23.7139 30.5683 23.7896C30.4783 23.8652 30.3644 23.9068 30.2468 23.9068L30.2473 23.9072ZM24.0007 19.9802L21.1382 22.8427L19.8835 21.5882C19.7893 21.4967 19.6629 21.4459 19.5315 21.4469C19.4002 21.4478 19.2745 21.5004 19.1816 21.5933C19.0888 21.6862 19.0362 21.8119 19.0352 21.9432C19.0343 22.0746 19.085 22.201 19.1765 22.2952L20.7846 23.9033C20.8784 23.997 21.0055 24.0497 21.1381 24.0497C21.2707 24.0497 21.3978 23.997 21.4916 23.9033L24.7077 20.6872C24.7992 20.5929 24.85 20.4665 24.849 20.3351C24.848 20.2038 24.7954 20.0781 24.7026 19.9853C24.6097 19.8924 24.484 19.8398 24.3527 19.8388C24.2213 19.8379 24.0949 19.8886 24.0007 19.9802ZM13.042 21.1818L13.1448 20.3903C13.1651 20.2744 13.2255 20.1695 13.3156 20.0938C13.4056 20.0181 13.5194 19.9766 13.637 19.9765H14.7764C14.9414 19.3789 15.1794 18.8038 15.485 18.2644L14.6804 17.4594C14.5935 17.3725 14.5416 17.2567 14.5347 17.134C14.5278 17.0113 14.5663 16.8903 14.6429 16.7942C15.2375 15.9501 15.9746 15.216 16.8212 14.625C16.9172 14.558 17.0336 14.527 17.1502 14.5373C17.2668 14.5475 17.376 14.5985 17.4587 14.6813L17.4601 14.6799L18.2654 15.4852C18.5138 15.3435 18.7701 15.2162 19.033 15.104C19.7761 13.736 20.3128 12.2657 20.6257 10.7407C20.9339 9.22274 21.0438 7.67123 20.9524 6.12503C17.4988 5.83795 14.217 4.49542 11.5524 2.27959C8.888 4.49532 5.60651 5.83784 2.1531 6.12503C1.9481 9.88884 2.84923 13.0427 4.32566 15.5515C6.18191 18.7057 8.94273 20.8447 11.5529 21.8952C11.804 21.7938 12.0619 21.6794 12.3268 21.5521C12.565 21.4375 12.8035 21.3139 13.0422 21.1815L13.042 21.1818ZM28.718 22.9072H29.8163C29.8939 22.2658 29.8939 21.6174 29.8163 20.976H28.718V20.9756C28.6039 20.9755 28.4932 20.9364 28.4044 20.8647C28.3156 20.793 28.254 20.693 28.2298 20.5815C28.1487 20.2057 28.0338 19.8381 27.8867 19.483C27.7423 19.1354 27.568 18.801 27.3657 18.4835C27.295 18.3872 27.261 18.2687 27.2701 18.1496C27.2792 18.0304 27.3306 17.9184 27.4152 17.8339L28.1933 17.0558C27.7937 16.5482 27.3351 16.0901 26.8272 15.691L26.0507 16.4677L26.05 16.467C25.9695 16.5475 25.8639 16.5981 25.7506 16.6103C25.6374 16.6225 25.5234 16.5956 25.4276 16.5341C24.8219 16.1449 24.0276 15.7975 23.3228 15.66C23.2066 15.64 23.1012 15.5796 23.0252 15.4894C22.9492 15.3992 22.9075 15.2851 22.9075 15.1672V14.0672C22.2661 13.9896 21.6177 13.9896 20.9763 14.0672V15.1655H20.9759C20.9759 15.2796 20.9368 15.3903 20.8651 15.4792C20.7933 15.568 20.6934 15.6296 20.5818 15.6537C20.2061 15.7349 19.8386 15.8498 19.4835 15.9969C19.1357 16.1413 18.8012 16.3156 18.4835 16.5179C18.3872 16.5886 18.2688 16.6225 18.1496 16.6134C18.0305 16.6044 17.9185 16.5529 17.834 16.4684L17.0559 15.6903C16.5483 16.0899 16.0902 16.5485 15.6911 17.0564L16.4682 17.8332L16.4675 17.8338C16.548 17.9144 16.5986 18.02 16.6108 18.1332C16.623 18.2464 16.5961 18.3604 16.5346 18.4562C16.1455 19.0618 15.798 19.8562 15.6605 20.561C15.6405 20.6772 15.5801 20.7826 15.4899 20.8586C15.3997 20.9346 15.2856 20.9762 15.1677 20.9762H14.068C13.9903 21.6176 13.9903 22.2661 14.068 22.9075H15.168V22.9078C15.2821 22.9079 15.3928 22.9471 15.4817 23.0188C15.5705 23.0905 15.6321 23.1904 15.6563 23.302C15.8162 24.0474 16.108 24.7582 16.5179 25.401C16.5887 25.4973 16.6226 25.6157 16.6135 25.7349C16.6044 25.8541 16.553 25.966 16.4685 26.0505L15.692 26.827C16.0911 27.335 16.5493 27.7936 17.0568 28.1932L17.835 27.415L17.8356 27.4157C17.9161 27.3352 18.0218 27.2847 18.135 27.2725C18.2482 27.2603 18.3622 27.2872 18.458 27.3487C19.0632 27.7374 19.8615 28.0884 20.5618 28.2252C20.678 28.2452 20.7834 28.3057 20.8594 28.3958C20.9353 28.486 20.977 28.6001 20.977 28.718V29.8163C21.6184 29.8938 22.2668 29.8938 22.9082 29.8163V28.7163H22.9087C22.9087 28.6021 22.9478 28.4914 23.0195 28.4026C23.0912 28.3137 23.1912 28.2521 23.3028 28.228C24.0482 28.0681 24.7591 27.7763 25.4018 27.3663C25.4981 27.2955 25.6166 27.2616 25.7357 27.2707C25.8549 27.2798 25.9669 27.3313 26.0513 27.4158L26.8278 28.1922C27.3357 27.7931 27.7943 27.335 28.194 26.8275L27.4158 26.0493L27.4164 26.0486C27.3359 25.9681 27.2854 25.8624 27.2732 25.7492C27.261 25.636 27.2879 25.522 27.3494 25.4262C27.7383 24.8209 28.0891 24.0232 28.2259 23.3225C28.2459 23.2063 28.3063 23.1009 28.3965 23.0249C28.4866 22.9489 28.6008 22.9072 28.7187 22.9072H28.718ZM21.9421 16.9862C20.962 16.9862 20.0039 17.2768 19.1889 17.8213C18.374 18.3658 17.7388 19.1398 17.3638 20.0453C16.9887 20.9508 16.8905 21.9472 17.0818 22.9085C17.273 23.8698 17.7449 24.7528 18.438 25.4458C19.131 26.1389 20.014 26.6108 20.9753 26.8021C21.9366 26.9933 22.933 26.8951 23.8385 26.5201C24.744 26.145 25.518 25.5098 26.0625 24.6949C26.607 23.8799 26.8977 22.9218 26.8977 21.9417C26.8976 20.6274 26.3755 19.367 25.4462 18.4376C24.5168 17.5083 23.2564 16.9862 21.9421 16.9862ZM24.7392 19.1447C24.186 18.5915 23.4811 18.2148 22.7138 18.0621C21.9465 17.9095 21.1512 17.9878 20.4284 18.2872C19.7056 18.5866 19.0878 19.0936 18.6531 19.7441C18.2185 20.3946 17.9865 21.1594 17.9865 21.9417C17.9865 22.7241 18.2185 23.4889 18.6531 24.1394C19.0878 24.7899 19.7056 25.2969 20.4284 25.5963C21.1512 25.8957 21.9465 25.974 22.7138 25.8214C23.4811 25.6687 24.186 25.292 24.7392 24.7388C25.4808 23.9969 25.8975 22.9909 25.8975 21.9419C25.8975 20.8929 25.4808 19.8869 24.7392 19.145V19.1447ZM7.60691 13.0093H10.0708C10.2034 13.0093 10.3306 13.062 10.4243 13.1557C10.5181 13.2495 10.5708 13.3767 10.5708 13.5093V15.9731H12.5346V13.5093C12.5346 13.3767 12.5873 13.2495 12.681 13.1557C12.7748 13.062 12.902 13.0093 13.0346 13.0093H15.4985V11.0454H13.0345C12.9019 11.0454 12.7748 10.9927 12.681 10.899C12.5872 10.8052 12.5345 10.678 12.5345 10.5454V8.08128H10.5707V10.5452C10.5707 10.6778 10.518 10.8049 10.4243 10.8987C10.3305 10.9925 10.2033 11.0452 10.0707 11.0452H7.60691V13.009V13.0093ZM9.57079 14.0093V16.4731C9.57079 16.6057 9.62347 16.7329 9.71723 16.8266C9.811 16.9204 9.93818 16.9731 10.0708 16.9731H13.0346C13.1672 16.9731 13.2944 16.9204 13.3882 16.8266C13.4819 16.7329 13.5346 16.6057 13.5346 16.4731V14.0093H15.9985C16.1311 14.0093 16.2583 13.9566 16.352 13.8628C16.4458 13.7691 16.4985 13.6419 16.4985 13.5093V10.5454C16.4985 10.4128 16.4458 10.2856 16.352 10.1919C16.2583 10.0981 16.1311 10.0454 15.9985 10.0454H13.5345V7.58128C13.5345 7.44867 13.4819 7.32149 13.3881 7.22773C13.2943 7.13396 13.1671 7.08128 13.0345 7.08128H10.0707C9.93812 7.08128 9.81094 7.13396 9.71717 7.22773C9.6234 7.32149 9.57073 7.44867 9.57073 7.58128V10.0452H7.10691C6.9743 10.0452 6.84713 10.0978 6.75336 10.1916C6.65959 10.2854 6.60691 10.4125 6.60691 10.5452V13.509C6.60691 13.6416 6.65959 13.7688 6.75336 13.8626C6.84713 13.9564 6.9743 14.009 7.10691 14.009L9.57079 14.0093Z" fill="currentColor"/>
</svg>
