<svg width="15" height="17" viewBox="0 0 15 17" fill="none" xmlns="http://www.w3.org/2000/svg">
<path d="M7.4292 2.39355L9.26856 6.39355L12.9473 6.89355L10.4212 9.97355L11.1079 14.3936L7.4292 12.3936L3.75049 14.3936L4.44331 9.97355L1.91113 6.89355L5.58985 6.39355L7.4292 2.39355Z" fill="url(#paint0_linear_323_1937)"/>
<path d="M7.88379 2.18457L9.60742 5.93457L13.0146 6.39844L13.9014 6.51855L13.334 7.21094L10.9492 10.1172L11.6016 14.3164L11.7568 15.3154L10.8691 14.833L7.42871 12.9619L3.98926 14.833L3.09961 15.3164L3.25684 14.3164L3.91406 10.1172L1.52539 7.21094L0.956055 6.51855L1.84375 6.39844L5.25 5.93457L6.97461 2.18457L7.42969 1.19629L7.88379 2.18457Z" stroke="#765C00" stroke-opacity="0.5"/>
<defs>
<linearGradient id="paint0_linear_323_1937" x1="7.4292" y1="2.39355" x2="7.4292" y2="14.3936" gradientUnits="userSpaceOnUse">
<stop stop-color="#FFD02A"/>
<stop offset="0.0001" stop-color="#FFC806"/>
<stop offset="1" stop-color="#FFD643"/>
</linearGradient>
</defs>
</svg>
