<svg width="30" height="30" viewBox="0 0 30 30" fill="none" xmlns="http://www.w3.org/2000/svg">
<g clip-path="url(#clip0_212_1737)">
<path d="M21.0742 3.92126C24.5504 3.9213 26.893 6.49869 27.5869 8.86951H27.5859C27.9839 10.1779 28.0985 12.0905 27.0986 14.4437H29.4863C29.6356 14.4437 29.7866 14.4931 29.9014 14.5824C30.017 14.6724 30.0995 14.8066 30.0996 14.9711C30.0996 15.2829 29.8557 15.5276 29.5439 15.5277H26.6084C26.3858 15.9408 26.136 16.3554 25.832 16.7699C24.1985 19.1478 21.8309 21.3361 19.75 22.9886C17.7414 24.5838 15.9904 25.6851 15.4141 25.9818V26.0502H15.2627C15.248 26.0595 15.2337 26.0663 15.2207 26.0707C15.2092 26.0745 15.1988 26.0763 15.1904 26.0775C15.1862 26.0781 15.1819 26.0783 15.1787 26.0785C15.1773 26.0786 15.176 26.0794 15.1748 26.0795H15.0713V26.0228C14.9154 25.9719 14.7044 25.8743 14.4541 25.7357C14.1571 25.5713 13.7956 25.3478 13.3867 25.0756C12.5688 24.5308 11.5583 23.7872 10.4922 22.9193C8.36124 21.1846 5.99952 18.9464 4.50879 16.7963V16.7953C4.32147 16.554 4.15876 16.3121 4.02051 16.0697H0.456055C0.144277 16.0696 -0.0996094 15.8249 -0.0996094 15.5131C-0.0994998 15.2014 0.144346 14.9575 0.456055 14.9574H3.37793C2.10181 12.348 2.24335 10.2634 2.6416 8.86951L2.71191 8.64685C3.48335 6.34015 5.78655 3.92126 9.1543 3.92126C10.0509 3.9213 11.0034 4.09413 11.9541 4.43982C13.5551 5.01948 14.6001 5.65322 15.1143 6.00916C15.6308 5.65294 16.701 5.02014 18.2734 4.4408V4.43982C19.2242 4.09409 20.1488 3.92126 21.0742 3.92126ZM15.666 19.5912C15.6066 19.7979 15.4417 19.9591 15.2344 19.9965L15.1426 20.0052H15.1143C15.0078 20.0052 14.8965 19.9696 14.8037 19.9105C14.7119 19.852 14.6307 19.7653 14.5928 19.6547V19.6556L11.6797 12.1927L9.87012 15.7562L9.87109 15.7572C9.76626 15.9669 9.55695 16.0697 9.35352 16.0697H5.34863L5.41504 16.1693L5.70703 16.5765C8.74923 20.7024 13.8566 24.0511 15.1416 24.8617C16.4443 24.024 21.8747 20.508 24.8418 16.1693C24.9814 15.9599 25.1184 15.7508 25.2568 15.5277H22.8711C22.6635 15.5277 22.4886 15.4226 22.3857 15.2513V15.2504L21.5234 13.7894L20.501 15.2845L20.4961 15.2904C20.3656 15.4535 20.161 15.5627 19.9453 15.5267C19.7397 15.4924 19.5655 15.3538 19.4961 15.1459V15.1439L18.1963 10.9271L15.666 19.5912ZM21.1025 5.06189C20.3161 5.0619 19.5011 5.20274 18.6855 5.51208H18.6846C17.6357 5.89479 16.8351 6.30591 16.2979 6.62048C16.0294 6.77767 15.8267 6.91074 15.6914 7.00427C15.6238 7.05106 15.5727 7.08766 15.5391 7.11267C15.5225 7.12501 15.5102 7.13466 15.502 7.14099C15.4978 7.14416 15.4941 7.14727 15.4922 7.1488L15.4902 7.14978V7.15076L15.4893 7.14978C15.2858 7.31796 15.0137 7.32134 14.8076 7.15955C14.8056 7.15852 14.8041 7.15736 14.8027 7.15662C14.797 7.15337 14.7907 7.14946 14.7852 7.14587C14.7736 7.13837 14.7577 7.12734 14.7393 7.11462C14.7018 7.0888 14.6486 7.05208 14.5791 7.00525C14.4397 6.9113 14.2344 6.77777 13.9658 6.62048C13.4286 6.30595 12.6362 5.89454 11.6025 5.51208V5.51306C10.7829 5.23044 9.96707 5.0619 9.18262 5.06189C6.27112 5.06189 4.33552 7.18962 3.74609 9.18201C3.24623 10.9322 3.54328 12.8824 4.65137 14.9281H9.06445L11.2891 10.5629C11.339 10.4633 11.4084 10.3843 11.498 10.3304C11.5876 10.2767 11.6915 10.2514 11.8057 10.2513C12.0157 10.2513 12.2248 10.389 12.2979 10.6L15.0713 17.683L17.6416 8.81287C17.7113 8.56876 17.9517 8.39783 18.1943 8.39783H18.2012L18.208 8.3988C18.4275 8.43015 18.6721 8.55945 18.7451 8.81091H18.7461L20.2529 13.7152L21.1055 12.4623C21.2148 12.2845 21.3954 12.2191 21.5879 12.2191C21.7954 12.2193 21.9695 12.3251 22.0723 12.4965L22.0732 12.4974L23.2129 14.4437H25.8867C26.7141 12.6877 26.9777 11.015 26.6201 9.48865L26.5391 9.18201C25.9497 7.18994 23.9858 5.06189 21.1025 5.06189Z" fill="black" stroke="black" stroke-width="0.2"/>
</g>
<defs>
<clipPath id="clip0_212_1737">
<rect width="30" height="30" fill="white"/>
</clipPath>
</defs>
</svg>
