<svg width="30" height="30" viewBox="0 0 30 30" fill="none" xmlns="http://www.w3.org/2000/svg">
<path d="M15 1.5625C16.0824 1.56256 17.05 1.90887 18.0947 2.49512C19.1071 3.06323 20.2678 3.90229 21.7266 4.95703L23.6123 6.32031C24.7829 7.16666 25.7176 7.84308 26.4229 8.46875C27.151 9.11483 27.6964 9.75916 28.042 10.5693C28.3882 11.3811 28.4722 12.2135 28.4258 13.1729C28.3809 14.0988 28.2092 15.2164 27.9951 16.6094L27.6006 19.1738C27.2964 21.1534 27.0541 22.73 26.6982 23.958C26.3303 25.2278 25.8122 26.2362 24.8857 27.0068C23.963 27.7743 22.8632 28.1162 21.5205 28.2793C20.2144 28.4379 18.5663 28.4375 16.4854 28.4375H13.5137C11.4325 28.4375 9.78468 28.4379 8.47852 28.2793C7.13599 28.1162 6.0369 27.7741 5.11426 27.0068C4.18775 26.2362 3.66877 25.2278 3.30078 23.958C2.94493 22.73 2.70262 21.1534 2.39844 19.1738L2.00488 16.6094C1.79079 15.2163 1.61907 14.0988 1.57422 13.1729C1.52777 12.2134 1.61177 11.3812 1.95801 10.5693C2.30356 9.75917 2.848 9.11482 3.57617 8.46875C4.28138 7.84305 5.2161 7.16669 6.38672 6.32031L8.27344 4.95703C9.73208 3.90236 10.892 3.06323 11.9043 2.49512C12.9491 1.90879 13.9174 1.5625 15 1.5625ZM15 3.4375C14.3538 3.4375 13.7078 3.63298 12.8223 4.12988C11.9149 4.63906 10.8411 5.4137 9.3252 6.50977L7.52539 7.81152C6.30595 8.69322 5.44722 9.31487 4.82031 9.87109C4.20837 10.4141 3.87994 10.8421 3.68262 11.3047C3.48604 11.7656 3.40783 12.2876 3.44629 13.082C3.48584 13.8988 3.64169 14.9194 3.86523 16.374L4.24219 18.8232C4.55873 20.8831 4.78368 22.3384 5.10156 23.4355C5.41131 24.5045 5.7792 25.1218 6.3125 25.5654C6.84967 26.0122 7.54852 26.2775 8.70508 26.418C9.88501 26.5612 11.4187 26.5625 13.5762 26.5625H16.4229C18.5806 26.5625 20.1149 26.5613 21.2949 26.418C22.4513 26.2775 23.1494 26.0121 23.6865 25.5654C24.2198 25.1218 24.5877 24.5045 24.8975 23.4355C25.2154 22.3383 25.4413 20.8832 25.7578 18.8232L26.1338 16.374C26.3573 14.9193 26.5132 13.8988 26.5527 13.082C26.5912 12.2877 26.5139 11.7655 26.3174 11.3047C26.1201 10.842 25.7907 10.4141 25.1787 9.87109C24.5518 9.31487 23.6931 8.69325 22.4736 7.81152L20.6738 6.50977C19.1581 5.41385 18.085 4.63904 17.1777 4.12988C16.2922 3.63295 15.6461 3.43756 15 3.4375ZM18.1738 20.5098C18.5823 20.192 19.1712 20.2656 19.4893 20.6738C19.8073 21.0824 19.7338 21.6722 19.3252 21.9902C18.1583 22.8984 16.6423 23.4374 15 23.4375C13.3575 23.4375 11.8408 22.8985 10.6738 21.9902C10.2653 21.6722 10.1917 21.0824 10.5098 20.6738C10.8277 20.2655 11.4167 20.1921 11.8252 20.5098C12.657 21.1573 13.767 21.5625 15 21.5625C16.2329 21.5624 17.3421 21.1572 18.1738 20.5098Z" fill="#161616"/>
</svg>
