<svg width="53" height="39" viewBox="0 0 53 39" fill="none" xmlns="http://www.w3.org/2000/svg">
<rect x="0.5" y="0.5" width="51.7742" height="37.3812" rx="18.6906" fill="white"/>
<rect x="0.5" y="0.5" width="51.7742" height="37.3812" rx="18.6906" stroke="#E1E1E1"/>
<path fill-rule="evenodd" clip-rule="evenodd" d="M25.8728 11.4085C28.1636 9.11772 31.8778 9.11772 34.1686 11.4085C36.4594 13.6994 36.4594 17.4135 34.1686 19.7044L32.9573 20.9157C32.3389 21.534 31.3364 21.534 30.7181 20.9157C30.0998 20.2973 30.0998 19.2948 30.7181 18.6765L31.9294 17.4652C32.9836 16.411 32.9836 14.7019 31.9294 13.6477C30.8753 12.5936 29.1661 12.5936 28.112 13.6477L26.9006 14.859C26.2823 15.4774 25.2798 15.4774 24.6615 14.859C24.0431 14.2407 24.0431 13.2382 24.6615 12.6199L25.8728 11.4085ZM30.5042 15.0729C31.1225 15.6913 31.1225 16.6938 30.5042 17.3121L24.5084 23.3079C23.8901 23.9262 22.8876 23.9262 22.2693 23.3079C21.6509 22.6895 21.6509 21.687 22.2693 21.0687L28.265 15.0729C28.8833 14.4546 29.8859 14.4546 30.5042 15.0729ZM22.0553 17.4652C22.6737 18.0835 22.6737 19.086 22.0553 19.7044L20.844 20.9157C19.7898 21.9698 19.7898 23.679 20.844 24.7331C21.8982 25.7873 23.6073 25.7873 24.6615 24.7331L25.8728 23.5218C26.4911 22.9035 27.4936 22.9035 28.112 23.5218C28.7303 24.1401 28.7303 25.1427 28.112 25.761L26.9006 26.9723C24.6098 29.2631 20.8957 29.2631 18.6048 26.9723C16.314 24.6815 16.314 20.9673 18.6048 18.6765L19.8162 17.4652C20.4345 16.8469 21.437 16.8469 22.0553 17.4652Z" fill="#6AB240"/>
</svg>
