<svg width="19" height="19" viewBox="0 0 19 19" fill="none" xmlns="http://www.w3.org/2000/svg">
<path d="M13.7572 0H5.244C2.35244 0 0 2.35244 0 5.244V13.7584C0 16.6488 2.35244 19 5.244 19H13.7572C16.6488 19 19 16.6488 19 13.7584V5.244C19.0012 2.35244 16.6488 0 13.7572 0ZM16.8506 13.5054C16.8506 15.3496 15.3496 16.8518 13.5042 16.8518H5.49575C3.65037 16.8518 2.14937 15.3484 2.14937 13.5054V5.49575C2.14937 3.64919 3.65156 2.14937 5.49575 2.14937H13.5042C15.3508 2.14937 16.8506 3.65037 16.8506 5.49575V13.5054ZM9.5 5.08844C7.068 5.08844 5.08844 7.06919 5.08844 9.5C5.08844 11.932 7.068 13.9104 9.5 13.9104C11.932 13.9104 13.9116 11.932 13.9116 9.5C13.9128 7.06919 11.9332 5.08844 9.5 5.08844ZM9.5 12.0994C8.0655 12.0994 6.89937 10.9333 6.89937 9.5C6.89937 8.06431 8.0655 6.89937 9.5 6.89937C10.9345 6.89937 12.1006 8.06431 12.1006 9.5C12.1006 10.9333 10.9345 12.0994 9.5 12.0994ZM14.3747 3.39387C14.0505 3.39387 13.5411 3.53044 13.2905 3.78575C13.0364 4.0375 12.8915 4.389 12.8915 4.74762C12.8915 5.10506 13.0364 5.45656 13.2905 5.7095C13.5411 5.96244 13.8926 6.10731 14.2488 6.10731C14.6086 6.10731 14.9577 5.96244 15.2107 5.7095C15.4636 5.45656 15.6085 5.10506 15.6085 4.74762C15.6085 4.389 15.4636 4.0375 15.2107 3.78575C14.9589 3.53044 14.7012 3.39387 14.3747 3.39387Z" fill="currentColor"/>
</svg>
