<svg width="53" height="39" viewBox="0 0 53 39" fill="none" xmlns="http://www.w3.org/2000/svg">
<rect x="0.5" y="0.5" width="51.7742" height="37.3812" rx="18.6906" fill="white"/>
<rect x="0.5" y="0.5" width="51.7742" height="37.3812" rx="18.6906" stroke="#E1E1E1"/>
<path d="M30.6439 9.69043H22.1307C19.2392 9.69043 16.8867 12.0429 16.8867 14.9344V23.4488C16.8867 26.3392 19.2392 28.6904 22.1307 28.6904H30.6439C33.5355 28.6904 35.8867 26.3392 35.8867 23.4488V14.9344C35.8879 12.0429 33.5355 9.69043 30.6439 9.69043ZM33.7373 23.1959C33.7373 25.0401 32.2363 26.5422 30.391 26.5422H22.3825C20.5371 26.5422 19.0361 25.0389 19.0361 23.1959V15.1862C19.0361 13.3396 20.5383 11.8398 22.3825 11.8398H30.391C32.2375 11.8398 33.7373 13.3408 33.7373 15.1862V23.1959ZM26.3867 14.7789C23.9547 14.7789 21.9752 16.7596 21.9752 19.1904C21.9752 21.6224 23.9547 23.6008 26.3867 23.6008C28.8187 23.6008 30.7983 21.6224 30.7983 19.1904C30.7995 16.7596 28.8199 14.7789 26.3867 14.7789ZM26.3867 21.7899C24.9522 21.7899 23.7861 20.6237 23.7861 19.1904C23.7861 17.7547 24.9522 16.5898 26.3867 16.5898C27.8212 16.5898 28.9873 17.7547 28.9873 19.1904C28.9873 20.6237 27.8212 21.7899 26.3867 21.7899ZM31.2614 13.0843C30.9372 13.0843 30.4278 13.2209 30.1772 13.4762C29.9231 13.7279 29.7782 14.0794 29.7782 14.4381C29.7782 14.7955 29.9231 15.147 30.1772 15.3999C30.4278 15.6529 30.7793 15.7977 31.1355 15.7977C31.4953 15.7977 31.8445 15.6529 32.0974 15.3999C32.3503 15.147 32.4952 14.7955 32.4952 14.4381C32.4952 14.0794 32.3503 13.7279 32.0974 13.4762C31.8457 13.2209 31.588 13.0843 31.2614 13.0843Z" fill="#6AB240"/>
</svg>
