<svg width="40" height="40" viewBox="0 0 40 40" fill="none" xmlns="http://www.w3.org/2000/svg">
<path d="M20 0.25C30.9088 0.25 39.75 9.04771 39.75 19.8975C39.75 30.7472 30.9088 39.5449 20 39.5449C9.09118 39.5449 0.250033 30.7472 0.25 19.8975C0.25 9.04771 9.09116 0.25 20 0.25Z" fill="#61A23C" stroke="white" stroke-width="0.5"/>
<path d="M19.9996 17.2037C18.566 17.2037 17.3961 18.3736 17.3961 19.8072C17.3961 21.2408 18.566 22.4107 19.9996 22.4107C21.4332 22.4107 22.6031 21.2408 22.6031 19.8072C22.6031 18.3736 21.4332 17.2037 19.9996 17.2037ZM27.8082 19.8072C27.8082 18.7291 27.818 17.6607 27.7574 16.5846C27.6969 15.3346 27.4117 14.2252 26.4977 13.3111C25.5816 12.3951 24.4742 12.1119 23.2242 12.0514C22.1461 11.9908 21.0777 12.0006 20.0016 12.0006C18.9234 12.0006 17.8551 11.9908 16.7789 12.0514C15.5289 12.1119 14.4195 12.3971 13.5055 13.3111C12.5894 14.2271 12.3062 15.3346 12.2457 16.5846C12.1852 17.6627 12.1949 18.7311 12.1949 19.8072C12.1949 20.8834 12.1852 21.9537 12.2457 23.0299C12.3062 24.2799 12.5914 25.3893 13.5055 26.3033C14.4215 27.2193 15.5289 27.5025 16.7789 27.5631C17.857 27.6236 18.9254 27.6139 20.0016 27.6139C21.0797 27.6139 22.148 27.6236 23.2242 27.5631C24.4742 27.5025 25.5836 27.2174 26.4977 26.3033C27.4137 25.3873 27.6969 24.2799 27.7574 23.0299C27.8199 21.9537 27.8082 20.8853 27.8082 19.8072ZM19.9996 23.8131C17.7828 23.8131 15.9937 22.024 15.9937 19.8072C15.9937 17.5904 17.7828 15.8014 19.9996 15.8014C22.2164 15.8014 24.0055 17.5904 24.0055 19.8072C24.0055 22.024 22.2164 23.8131 19.9996 23.8131ZM24.1695 16.5728C23.6519 16.5728 23.234 16.1549 23.234 15.6373C23.234 15.1197 23.6519 14.7018 24.1695 14.7018C24.6871 14.7018 25.1051 15.1197 25.1051 15.6373C25.1052 15.7602 25.0811 15.8819 25.0342 15.9955C24.9872 16.1091 24.9183 16.2123 24.8314 16.2992C24.7445 16.3861 24.6413 16.455 24.5277 16.5019C24.4142 16.5489 24.2924 16.573 24.1695 16.5728Z" fill="white"/>
</svg>
