<svg width="30" height="30" viewBox="0 0 30 30" fill="none" xmlns="http://www.w3.org/2000/svg">
<path d="M15 1.5625C22.4213 1.5625 28.4375 7.57867 28.4375 15C28.4375 22.4213 22.4213 28.4375 15 28.4375C7.57867 28.4375 1.5625 22.4213 1.5625 15C1.5625 7.57867 7.57867 1.5625 15 1.5625ZM10.9541 15.9375C11.0452 18.9189 11.5645 21.5638 12.335 23.4902C12.7612 24.5559 13.2457 25.3553 13.7354 25.873C14.2231 26.3888 14.6505 26.5625 15 26.5625C15.3495 26.5625 15.7769 26.3888 16.2646 25.873C16.7543 25.3553 17.2388 24.5559 17.665 23.4902C18.4355 21.5638 18.9548 18.9189 19.0459 15.9375H10.9541ZM3.47852 15.9375C3.86022 20.6931 7.11633 24.636 11.5107 26.0254C11.1696 25.4786 10.8626 24.8597 10.5938 24.1875C9.71988 22.0028 9.16956 19.1117 9.07812 15.9375H3.47852ZM20.9219 15.9375C20.8304 19.1117 20.2801 22.0028 19.4062 24.1875C19.1373 24.8599 18.8295 25.4785 18.4883 26.0254C22.8831 24.6362 26.1398 20.6935 26.5215 15.9375H20.9219ZM11.5107 3.97363C7.11618 5.36298 3.86023 9.30677 3.47852 14.0625H9.07812C9.16956 10.8883 9.71988 7.99717 10.5938 5.8125C10.8628 5.14003 11.1695 4.52061 11.5107 3.97363ZM15 3.4375C14.6505 3.4375 14.2231 3.6112 13.7354 4.12695C13.2457 4.64468 12.7612 5.44413 12.335 6.50977C11.5645 8.43617 11.0452 11.0811 10.9541 14.0625H19.0459C18.9548 11.0811 18.4355 8.43617 17.665 6.50977C17.2388 5.44413 16.7543 4.64468 16.2646 4.12695C15.7769 3.6112 15.3495 3.4375 15 3.4375ZM18.4883 3.97363C18.8297 4.52071 19.1372 5.13985 19.4062 5.8125C20.2801 7.99717 20.8304 10.8883 20.9219 14.0625H26.5215C26.1397 9.30645 22.8833 5.36273 18.4883 3.97363Z" fill="#161616"/>
</svg>
