<svg width="30" height="30" viewBox="0 0 30 30" fill="none" xmlns="http://www.w3.org/2000/svg">
<path d="M12.2754 3.69183C15.1149 0.852404 19.7191 0.852371 22.5586 3.69183C25.3981 6.53134 25.398 11.1355 22.5586 13.975L22.5078 14.0248C24.0645 16.7951 23.6659 20.3677 21.3086 22.725L17.7256 26.308C14.886 29.1475 10.2819 29.1476 7.44238 26.308C4.60292 23.4685 4.60295 18.8644 7.44238 16.0248L7.49219 15.9741C5.93628 13.204 6.33547 9.63184 8.69238 7.27484L12.2754 3.69183ZM21.2324 5.01801C19.1251 2.91078 15.7089 2.91081 13.6016 5.01801L10.0186 8.60101C7.91136 10.7083 7.91133 14.1246 10.0186 16.2319C12.1258 18.3391 15.5421 18.3391 17.6494 16.2319L17.9082 15.9731C18.2743 15.607 18.8683 15.607 19.2344 15.9731C19.6005 16.3392 19.6005 16.9331 19.2344 17.2993L18.9756 17.558C16.136 20.3975 11.5319 20.3976 8.69238 17.558C8.67152 17.5372 8.6524 17.5146 8.63184 17.4936C6.66284 19.6097 6.70808 22.9214 8.76855 24.9819C10.8758 27.0891 14.2921 27.0891 16.3994 24.9819L19.9824 21.3989C22.0896 19.2916 22.0897 15.8753 19.9824 13.768C17.8751 11.6608 14.4589 11.6608 12.3516 13.768L12.0928 14.0268C11.7267 14.3929 11.1327 14.3929 10.7666 14.0268C10.4005 13.6607 10.4005 13.0667 10.7666 12.7006L11.0254 12.4418C13.8649 9.6024 18.4691 9.60237 21.3086 12.4418C21.3291 12.4624 21.3479 12.4846 21.3682 12.5053C23.3371 10.3892 23.2929 7.07851 21.2324 5.01801Z" fill="#161616"/>
</svg>
