<svg width="30" height="30" viewBox="0 0 30 30" fill="none" xmlns="http://www.w3.org/2000/svg">
<path opacity="0.4" d="M8.75 15.3125C9.26777 15.3125 9.6875 15.7322 9.6875 16.25V21.25C9.6875 21.7678 9.26777 22.1875 8.75 22.1875C8.23223 22.1875 7.8125 21.7678 7.8125 21.25V16.25C7.8125 15.7322 8.23223 15.3125 8.75 15.3125ZM15 7.8125C15.5178 7.8125 15.9375 8.23223 15.9375 8.75V21.25C15.9375 21.7678 15.5178 22.1875 15 22.1875C14.4822 22.1875 14.0625 21.7678 14.0625 21.25V8.75C14.0625 8.23223 14.4822 7.8125 15 7.8125ZM21.25 12.8125C21.7678 12.8125 22.1875 13.2322 22.1875 13.75V21.25C22.1875 21.7678 21.7678 22.1875 21.25 22.1875C20.7322 22.1875 20.3125 21.7678 20.3125 21.25V13.75C20.3125 13.2322 20.7322 12.8125 21.25 12.8125Z" fill="black"/>
<path fill-rule="evenodd" clip-rule="evenodd" d="M14.9285 2.1875H15.0715C17.8098 2.18748 19.9607 2.18747 21.64 2.41324C23.3608 2.6446 24.7261 3.12839 25.7989 4.20114C26.8716 5.27389 27.3554 6.63921 27.5868 8.36003C27.8125 10.0393 27.8125 12.1902 27.8125 14.9285V15.0715C27.8125 17.8098 27.8125 19.9607 27.5868 21.64C27.3554 23.3608 26.8716 24.7261 25.7989 25.7989C24.7261 26.8716 23.3608 27.3554 21.64 27.5868C19.9607 27.8125 17.8098 27.8125 15.0715 27.8125H14.9285C12.1902 27.8125 10.0393 27.8125 8.36003 27.5868C6.63921 27.3554 5.27389 26.8716 4.20114 25.7989C3.12839 24.7261 2.6446 23.3608 2.41324 21.64C2.18747 19.9607 2.18748 17.8098 2.1875 15.0715V14.9285C2.18748 12.1902 2.18747 10.0393 2.41324 8.36003C2.6446 6.63921 3.12839 5.27389 4.20114 4.20114C5.27389 3.12839 6.63921 2.6446 8.36003 2.41324C10.0393 2.18747 12.1902 2.18748 14.9285 2.1875ZM8.60987 4.27152C7.09696 4.47493 6.19327 4.86066 5.52697 5.52697C4.86066 6.19327 4.47493 7.09696 4.27152 8.60987C4.06449 10.1497 4.0625 12.1745 4.0625 15C4.0625 17.8255 4.06449 19.8503 4.27152 21.3901C4.47493 22.903 4.86066 23.8067 5.52697 24.473C6.19327 25.1393 7.09696 25.5251 8.60987 25.7285C10.1497 25.9355 12.1745 25.9375 15 25.9375C17.8255 25.9375 19.8503 25.9355 21.3901 25.7285C22.903 25.5251 23.8067 25.1393 24.473 24.473C25.1393 23.8067 25.5251 22.903 25.7285 21.3901C25.9355 19.8503 25.9375 17.8255 25.9375 15C25.9375 12.1745 25.9355 10.1497 25.7285 8.60987C25.5251 7.09696 25.1393 6.19327 24.473 5.52697C23.8067 4.86066 22.903 4.47493 21.3901 4.27152C19.8503 4.06449 17.8255 4.0625 15 4.0625C12.1745 4.0625 10.1497 4.06449 8.60987 4.27152Z" fill="#161616"/>
</svg>
