<svg xmlns="http://www.w3.org/2000/svg" viewBox="0 0 48 48" width="48" height="48">
    <path fill="#3F51B5"
        d="M45,35c0,2.209-1.791,4-4,4H7c-2.209,0-4-1.791-4-4V13c0-2.209,1.791-4,4-4h34c2.209,0,4,1.791,4,4V35z" />
    <path fill="#FFC107" d="M30 14A10 10 0 1 0 30 34A10 10 0 1 0 30 14Z" />
    <path fill="#FF3D00"
        d="M22.014,30c-0.464-0.617-0.863-1.284-1.176-2h6.325c0.313,0.716,0.711,1.383,1.176,2H22.014z M19.825,26c-0.17-0.647-0.275-1.315-0.292-2h8.934c-0.017,0.685-0.122,1.353-0.292,2H19.825z M18.533,22c0.017-0.685,0.122-1.353,0.292-2h10.351c0.17,0.647,0.275,1.315,0.292,2H18.533z M19.825,18c0.313-0.716,0.711-1.383,1.176-2h5.997c0.464,0.617,0.863,1.284,1.176,2H19.825z M24.014,14c-0.464,0.617-0.863,1.284-1.176,2h-0.678c0.464-0.617,0.863-1.284,1.176-2H24.014z M29.176,16h-0.678c-0.313-0.716-0.711-1.383-1.176-2h0.678C28.465,14.617,28.863,15.284,29.176,16z M17.533,24c0-0.685,0.057-1.353,0.167-2h1.133c-0.104,0.647-0.167,1.315-0.167,2s0.063,1.353,0.167,2h-1.133C17.59,25.353,17.533,24.685,17.533,24z M30.467,24c0,0.685-0.063,1.353-0.167,2h1.133c0.104-0.647,0.167-1.315,0.167-2s-0.057-1.353-0.167-2h-1.133C30.404,22.647,30.467,23.315,30.467,24z" />
    <path fill="#FF3D00" d="M18 14A10 10 0 1 0 18 34A10 10 0 1 0 18 14Z" />
</svg>