<svg width="30" height="30" viewBox="0 0 30 30" fill="none" xmlns="http://www.w3.org/2000/svg">
<path d="M13.75 16.5625C17.7195 16.5625 20.9375 19.7805 20.9375 23.75C20.9375 25.6485 19.3985 27.1875 17.5 27.1875H5C3.10152 27.1875 1.5625 25.6485 1.5625 23.75C1.5625 19.7805 4.78045 16.5625 8.75 16.5625H13.75ZM21.25 16.5625C25.2195 16.5625 28.4375 19.7805 28.4375 23.75C28.4375 25.6485 26.8985 27.1875 25 27.1875H23.125C22.6072 27.1875 22.1875 26.7678 22.1875 26.25C22.1875 25.7322 22.6072 25.3125 23.125 25.3125H25C25.8629 25.3125 26.5625 24.6129 26.5625 23.75C26.5625 20.816 24.184 18.4375 21.25 18.4375C20.7322 18.4375 20.3125 18.0178 20.3125 17.5C20.3125 16.9822 20.7322 16.5625 21.25 16.5625ZM8.75 18.4375C5.81599 18.4375 3.4375 20.816 3.4375 23.75C3.4375 24.6129 4.13706 25.3125 5 25.3125H17.5C18.3629 25.3125 19.0625 24.6129 19.0625 23.75C19.0625 20.816 16.684 18.4375 13.75 18.4375H8.75ZM11.25 2.8125C14.5292 2.8125 17.1875 5.47081 17.1875 8.75C17.1875 12.0292 14.5292 14.6875 11.25 14.6875C7.97081 14.6875 5.3125 12.0292 5.3125 8.75C5.3125 5.47081 7.97081 2.8125 11.25 2.8125ZM18.75 2.8125C22.0292 2.8125 24.6875 5.47081 24.6875 8.75C24.6875 12.0292 22.0292 14.6875 18.75 14.6875C18.2322 14.6875 17.8125 14.2678 17.8125 13.75C17.8125 13.2322 18.2322 12.8125 18.75 12.8125C20.9937 12.8125 22.8125 10.9937 22.8125 8.75C22.8125 6.50634 20.9937 4.6875 18.75 4.6875C18.2322 4.6875 17.8125 4.26777 17.8125 3.75C17.8125 3.23223 18.2322 2.8125 18.75 2.8125ZM11.25 4.6875C9.00634 4.6875 7.1875 6.50634 7.1875 8.75C7.1875 10.9937 9.00634 12.8125 11.25 12.8125C13.4937 12.8125 15.3125 10.9937 15.3125 8.75C15.3125 6.50634 13.4937 4.6875 11.25 4.6875Z" fill="#161616"/>
</svg>
