<svg width="46" height="46" viewBox="0 0 46 46" fill="none" xmlns="http://www.w3.org/2000/svg">
<g clip-path="url(#clip0_5_154)">
<path d="M43.9806 44.2101C37.5611 44.922 32.4701 42.0794 32.4193 42.0507C32.2462 41.9522 32.0417 41.9256 31.8497 41.9785C31.7687 42.0002 23.6932 44.1646 17.1897 42.7212C13.1353 41.8198 9.3107 38.9635 6.5182 36.8784C6.14299 36.5981 5.78776 36.3329 5.45424 36.0887C4.99846 35.7556 4.27397 35.4781 3.63497 35.2336C3.34804 35.1239 2.95497 34.9736 2.87089 34.9207C2.79767 34.8636 2.75773 34.7792 2.75773 34.6832V32.9424C2.79382 31.5649 8.56939 10.3694 9.46484 7.67293C9.48691 7.64105 9.5731 7.57869 9.63651 7.54856L21.0661 2.32861L24.761 7.13902C24.9432 7.38846 24.9261 7.73669 24.7208 7.96651L21.0696 12.0598C20.8307 12.3281 20.4285 12.3572 20.1787 12.1488L18.7024 10.7877C18.5297 10.6283 18.2838 10.5754 18.0525 10.6178C17.8213 10.6592 17.6143 10.8242 17.5078 11.0337C17.3841 11.2764 16.2665 11.5746 15.1259 11.583L14.7542 11.5455C14.4581 11.5101 14.1677 11.6653 14.022 11.9281C13.8762 12.1901 13.9007 12.5142 14.0843 12.752C14.4014 13.1619 14.6484 13.4912 14.7885 13.6801L15.5193 26.1025C15.0663 27.8668 14.6512 28.3681 14.5482 28.4683C14.2437 28.5646 14.023 28.8488 14.023 29.1847C14.023 29.5995 14.3593 29.9358 14.7741 29.9358C15.6258 29.9358 16.3499 28.8165 16.9308 26.6315C22.9043 22.162 28.1176 26.38 28.5264 26.7271C30.4235 28.6312 30.5412 29.8962 30.545 29.9523C30.5541 30.3594 30.887 30.6869 31.2961 30.6869C31.7109 30.6869 32.0473 30.3506 32.0473 29.9358C32.0473 29.7631 31.9849 28.2812 30.0409 26.1403C31.8738 23.8863 33.9615 22.5883 36.26 22.3056C40.2223 21.8176 43.556 24.4826 43.5889 24.5092C43.9106 24.7712 44.3832 24.7232 44.6452 24.4016C44.9069 24.0807 44.8596 23.6085 44.5391 23.3461C44.3842 23.2196 40.6966 20.2527 36.0922 20.8128C33.4009 21.1393 30.985 22.595 28.9023 25.1422C27.2127 23.9928 22.3665 21.3916 16.9465 24.7937L16.2742 13.3693C16.2676 13.246 16.2298 13.1262 16.1653 13.0211C16.8372 12.9416 17.6377 12.7661 18.2182 12.3842L19.1862 13.2758C20.0862 14.0318 21.4066 13.9379 22.1896 13.06L25.8411 8.9667C26.5145 8.21209 26.5709 7.07141 25.963 6.23902L21.8929 0.939544C21.6806 0.662782 21.3047 0.568893 20.9852 0.71393L9.02167 6.17841C8.8966 6.23341 8.26215 6.5403 8.05335 7.1681C7.62805 8.44471 1.25586 31.1697 1.25586 32.9399V34.6835C1.25586 35.243 1.50705 35.7605 1.94461 36.1031C2.16357 36.2747 2.49043 36.4044 3.09861 36.6366C3.59468 36.8269 4.27397 37.0868 4.56755 37.3012C4.89756 37.5426 5.24895 37.805 5.6196 38.0818C8.52105 40.2489 12.4945 43.2162 16.8646 44.1873C23.0847 45.5698 30.387 43.8983 31.9516 43.5042C32.997 44.0441 36.8317 45.829 41.8517 45.829C42.5926 45.829 43.3595 45.7901 44.1467 45.7025C44.559 45.657 44.8558 45.2856 44.8102 44.8733C44.7643 44.4606 44.3916 44.1611 43.9806 44.2101Z" fill="currentColor"/>
<path d="M40.3043 35.1103C40.263 34.7344 39.9445 34.4419 39.5578 34.4419C39.143 34.4419 38.8066 34.7782 38.8066 35.193C38.8066 35.6947 39.1769 37.3931 43.9401 38.1869C43.9817 38.1936 44.0238 38.1971 44.0644 38.1971C44.4249 38.1971 44.743 37.9368 44.8043 37.5697C44.8723 37.1605 44.5959 36.7737 44.187 36.7054C40.8561 36.1501 40.3488 35.2102 40.3043 35.1103Z" fill="currentColor"/>
<path d="M32.0127 9.03254H34.3011V11.1605C34.3011 11.5753 34.6374 11.9116 35.0522 11.9116H41.06C41.4748 11.9116 41.8112 11.5753 41.8112 11.1605V9.03254H44.0645C44.3521 9.03254 44.6149 8.86824 44.7403 8.60899C44.8657 8.34974 44.8324 8.0418 44.6541 7.81584L38.628 0.181051C38.3429 -0.180142 37.734 -0.180142 37.4488 0.181051L31.4231 7.81619C31.2448 8.0418 31.2115 8.3501 31.3369 8.60899C31.4623 8.86824 31.7247 9.03254 32.0127 9.03254ZM38.0384 1.85879L42.515 7.53032H41.06C40.6452 7.53032 40.3089 7.86664 40.3089 8.28143V10.4097H35.803V8.28143C35.803 7.86664 35.4666 7.53032 35.0518 7.53032H33.5619L38.0384 1.85879Z" fill="currentColor"/>
<path d="M41.8112 13.4135C41.8112 12.999 41.4749 12.6627 41.0601 12.6627H35.0519C34.6371 12.6627 34.3008 12.999 34.3008 13.4135V15.6668C34.3008 16.0816 34.6371 16.4179 35.0519 16.4179H41.0601C41.4749 16.4179 41.8112 16.0816 41.8112 15.6668V13.4135ZM40.309 14.9157H35.803V14.1646H40.309V14.9157Z" fill="currentColor"/>
<path d="M41.0597 17.1687H35.0519C34.6371 17.1687 34.3008 17.505 34.3008 17.9198C34.3008 18.3346 34.6371 18.6709 35.0519 18.6709H41.0597C41.4745 18.6709 41.8109 18.3346 41.8109 17.9198C41.8109 17.505 41.4745 17.1687 41.0597 17.1687Z" fill="currentColor"/>
<path d="M25.8818 38.965C16.0448 41.0716 11.8363 34.3414 11.6618 34.0544C11.4474 33.6996 10.9864 33.5853 10.6322 33.7983C10.2766 34.0121 10.1614 34.4734 10.3747 34.8287C10.4245 34.9114 11.6194 36.8732 14.1751 38.5443C15.9355 39.6955 18.6205 40.8681 22.2524 40.8681C23.4617 40.8681 24.7765 40.7381 26.1964 40.434C26.6017 40.3471 26.8603 39.9477 26.7734 39.542C26.6865 39.1367 26.2857 38.8771 25.8818 38.965Z" fill="currentColor"/>
</g>
<defs>
<clipPath id="clip0_5_154">
<rect width="45.9187" height="45.9187" fill="white"/>
</clipPath>
</defs>
</svg>
