<svg width="24" height="24" viewBox="0 0 24 24" fill="none" xmlns="http://www.w3.org/2000/svg">
<path d="M16.5204 6.06535C16.3984 3.79891 14.4989 2 12.1752 2H11.8245C9.4221 2 7.47304 3.92287 7.47304 6.29727V10.9208C7.47304 12.0765 7.93558 13.1258 8.68773 13.8981L7.29254 15.2932C6.14489 14.1257 5.43743 12.5342 5.43743 10.7826C5.43743 10.2535 5.00345 9.82592 4.46872 9.82592C3.93398 9.82592 3.5 10.2535 3.5 10.7826C3.5 13.0665 4.42873 15.1391 5.93277 16.653L2.79289 19.7929C2.40237 20.1834 2.40237 20.8166 2.79289 21.2071C3.18342 21.5976 3.81658 21.5976 4.20711 21.2071L21.2071 4.20711C21.5976 3.81658 21.5976 3.18342 21.2071 2.79289C20.8166 2.40237 20.1834 2.40237 19.7929 2.79289L16.5204 6.06535Z" fill="currentColor"/>
<path d="M8.8421 18.5721C9.53219 18.8457 10.2667 19.0325 11.0318 19.1188V21.0436C11.0318 21.5717 11.4648 22.0002 12.0005 22.0002C12.5352 22.0002 12.9692 21.5717 12.9692 21.0436V19.1188C17.2006 18.6414 20.5 15.0875 20.5 10.7826C20.5 10.2535 20.066 9.82592 19.5313 9.82592C18.9966 9.82592 18.5626 10.2535 18.5626 10.7826C18.5626 14.3557 15.6186 17.2629 12.0005 17.2629C11.4331 17.2629 10.8824 17.1915 10.357 17.0572L8.8421 18.5721Z" fill="currentColor"/>
<path d="M16.5267 10.9208C16.5267 13.286 14.5895 15.2053 12.1972 15.217L16.5267 10.8876V10.9208Z" fill="currentColor"/>
</svg>
