<svg width="30" height="30" viewBox="0 0 30 30" fill="none" xmlns="http://www.w3.org/2000/svg">
<path d="M27.5 20.3125C28.0175 20.3125 28.4375 20.7325 28.4375 21.25C28.4375 21.7675 28.0175 22.1875 27.5 22.1875H26.9824L26.3828 24.584C25.9991 26.1177 24.6268 27.1884 23.0469 27.1885L6.95215 27.1885C5.37215 27.1885 4.00094 26.1165 3.61719 24.584L3.01758 22.1875H2.5C1.9825 22.1875 1.5625 21.7675 1.5625 21.25C1.5625 20.7325 1.9825 20.3125 2.5 20.3125L27.5 20.3125ZM5.43652 24.1289C5.61027 24.8264 6.23438 25.3135 6.95313 25.3135L23.0479 25.3135C23.7666 25.3135 24.3907 24.8252 24.5645 24.1289L25.0498 22.1875L4.95117 22.1875L5.43652 24.1289ZM15 2.8125C16.3975 2.8125 17.8125 3.86051 17.8125 5.86426C17.8124 6.56908 17.5525 7.29539 17.0596 7.99512C22.0228 8.87715 25.9518 12.89 26.5566 18.0146C26.6179 18.5284 26.249 18.9953 25.7354 19.0566C25.2217 19.1179 24.7558 18.7489 24.6943 18.2354C24.1193 13.3629 19.9513 9.6875 15 9.6875C10.0488 9.68758 5.88163 13.3629 5.30664 18.2354C5.25024 18.7127 4.84462 19.0625 4.37598 19.0625C4.34002 19.0625 4.30281 19.0603 4.26563 19.0566C3.75187 18.9954 3.38434 18.5296 3.44434 18.0146C4.049 12.8915 7.97536 8.87967 12.9365 7.99609C12.5233 7.40898 12.1876 6.68287 12.1875 5.86426C12.1875 3.83676 13.6025 2.8125 15 2.8125ZM15 4.6875C14.5462 4.6875 14.0625 4.99676 14.0625 5.86426C14.0628 6.46411 14.5601 7.09648 15 7.52637C15.4399 7.09648 15.9372 6.46411 15.9375 5.86426C15.9375 4.99676 15.4538 4.6875 15 4.6875Z" fill="#161616"/>
</svg>
