<svg width="68" height="68" viewBox="0 0 68 68" fill="none" xmlns="http://www.w3.org/2000/svg">
<path d="M59.6201 55.2791L67.014 47.6937C67.6746 47.0296 68.0311 46.1218 67.9989 45.1857C67.9667 44.2495 67.5486 43.3684 66.8439 42.7513C65.6559 41.7285 63.9247 41.644 62.6427 42.5461L55.3553 47.4829L55.3406 47.4444C54.5507 45.4704 52.4968 44.309 50.3981 44.6496L48.5179 44.9579C52.2183 41.9477 54.4011 36.5905 54.4011 30.0296C54.4011 19.6868 48.9815 12.4629 41.2204 12.4629C38.9772 12.4703 36.7903 13.1662 34.9553 14.4565C34.846 13.3846 34.65 12.3234 34.3694 11.2831C35.509 10.0502 36.8279 8.99612 38.2817 8.15625C39.3321 9.48059 40.9427 10.2358 42.6325 10.1963C43.3197 10.1945 44.0021 10.0836 44.6544 9.86759C46.2683 9.33718 47.9048 7.66325 49.5187 4.89225C50.2218 3.62907 49.8075 2.03628 48.578 1.27578C46.4574 -0.0520905 43.8538 -0.361423 41.4811 0.432584C39.95 0.911184 38.6708 1.9768 37.9235 3.39625C37.5074 4.20865 37.3369 5.12466 37.4328 6.03238C36.0121 6.831 34.6929 7.7979 33.5035 8.91218C32.6497 7.1148 31.6003 5.41701 30.3744 3.84958C29.9989 3.34885 29.2885 3.24736 28.7877 3.62292C28.287 3.99847 28.1855 4.70885 28.5611 5.20958C31.1496 8.66058 32.2104 10.8899 32.6411 14.1924C30.893 13.0685 28.8599 12.4684 26.7817 12.4629C19.0207 12.4629 13.6011 19.6868 13.6011 30.0296C13.6011 36.5905 15.7839 41.9477 19.4842 44.9624L17.6074 44.6553C15.5126 44.3143 13.4606 45.4682 12.6638 47.4353L12.6468 47.4784L5.35948 42.5461C4.33818 41.8141 2.99553 41.7078 1.87175 42.2699C0.747969 42.8321 0.0278276 43.9702 0.00107445 45.2265C-0.0222233 46.1492 0.334213 47.0411 0.987075 47.6937L8.38321 55.2871C9.20603 56.1268 10.2693 56.6904 11.4262 56.8998L21.5344 58.7324V65.7296C21.5344 66.9814 22.5492 67.9963 23.8011 67.9963H30.6011C31.8529 67.9963 32.8677 66.9814 32.8677 65.7296V51.7114C32.8719 49.8612 32.1623 48.0807 30.8867 46.7406C31.1847 46.6171 31.4862 46.5139 31.7786 46.3598C33.1691 45.6197 34.8365 45.6197 36.2269 46.3598C36.5182 46.5094 36.8185 46.6171 37.1155 46.7395C35.8396 48.0799 35.13 49.8608 35.1344 51.7114V65.7296C35.1344 66.9814 36.1492 67.9963 37.4011 67.9963H44.2011C45.4529 67.9963 46.4677 66.9814 46.4677 65.7296V58.7324L56.5759 56.8953C57.7337 56.6852 58.7975 56.1205 59.6201 55.2791ZM39.9499 4.41625C40.4262 3.53316 41.2332 2.87494 42.1939 2.58592C42.8287 2.37372 43.4933 2.26467 44.1625 2.26292C45.3032 2.27166 46.419 2.59692 47.3857 3.20245C47.5781 3.31419 47.6521 3.55505 47.5557 3.75552C45.8172 6.73845 44.5411 7.51705 43.9449 7.71425C42.1248 8.30698 40.2571 7.64058 39.7811 6.22958C39.5898 5.62717 39.6508 4.97299 39.9499 4.41625ZM30.6011 65.7296H23.8011V58.7324C23.8012 57.6369 23.0179 56.6981 21.9401 56.502L11.8331 54.6649C11.1382 54.5393 10.4994 54.2012 10.005 53.697L2.60434 46.1037L2.58847 46.0867C2.37462 45.875 2.25843 45.5839 2.26774 45.2831C2.27704 44.9599 2.42131 44.6553 2.66554 44.4433C2.85788 44.279 3.10393 44.191 3.35687 44.1963C3.61805 44.1972 3.87298 44.2761 4.08901 44.4229L11.5452 49.4685C11.9861 49.7303 12.4636 49.9247 12.9619 50.0454L18.5401 51.6321C19.368 51.8713 20.1222 52.3152 20.7331 52.9229C21.1757 53.3658 21.8934 53.366 22.3362 52.9235C22.7791 52.481 22.7793 51.7632 22.3368 51.3204C21.4535 50.4437 20.3644 49.8027 19.1691 49.4561L14.8001 48.2094C15.2171 47.2653 16.2193 46.722 17.2379 46.8879L20.4192 47.4081C21.1878 47.5364 21.9745 47.5067 22.7312 47.3209L24.4097 46.8959C25.433 46.6578 26.504 46.7308 27.4855 47.1055C29.3747 47.8512 30.612 49.6804 30.6011 51.7114L30.6011 65.7296ZM37.2628 44.3447C35.2203 43.2765 32.7841 43.2765 30.7416 44.3447C30.0522 44.6951 29.321 44.9563 28.5656 45.1222C28.4817 45.0859 28.4069 45.0383 28.3219 45.0089C26.9045 44.458 25.3531 44.3513 23.8736 44.7029L23.6311 44.7641C18.8359 43.0051 15.8677 37.4042 15.8677 30.0296C15.8677 21.0207 20.3557 14.7296 26.7817 14.7296C29.2085 14.7656 31.521 15.7668 33.2077 17.5119C33.6484 17.9439 34.3537 17.9439 34.7944 17.5119C36.4812 15.7668 38.7936 14.7656 41.2204 14.7296C47.6464 14.7296 52.1344 21.0207 52.1344 30.0296C52.1344 37.4042 49.1651 43.0051 44.3699 44.7629L44.107 44.6961C42.6339 44.3498 41.0903 44.4584 39.6802 45.0077C39.5952 45.0417 39.5204 45.0893 39.4366 45.1211C38.682 44.9555 37.9516 44.6946 37.2628 44.3447ZM46.062 56.502C44.9842 56.6981 44.2009 57.6369 44.2011 58.7324V65.7296H37.401L37.4011 51.7114C37.3915 49.6817 38.6286 47.8542 40.5166 47.1089C41.1166 46.8768 41.7547 46.7592 42.3979 46.7621C42.7927 46.7616 43.1861 46.8057 43.5709 46.8936L45.2845 47.3277C46.0359 47.5113 46.8167 47.5402 47.5795 47.4127L50.7676 46.8902C51.7854 46.7261 52.7858 47.2696 53.202 48.2128L48.8239 49.4595C47.6321 49.8067 46.5462 50.4468 45.6653 51.3215C45.2361 51.7665 45.2428 52.4734 45.6803 52.9103C46.1177 53.3471 46.8246 53.3528 47.269 52.9229C47.8775 52.3182 48.628 51.8759 49.4518 51.6366L55.038 50.0499C55.5389 49.9284 56.0187 49.7324 56.4615 49.4685L63.9132 44.4229C64.338 44.1099 64.9193 44.1178 65.3355 44.4422C65.5804 44.6538 65.7251 44.9585 65.7344 45.282C65.744 45.5831 65.6278 45.8747 65.4137 46.0867L65.3978 46.1037L58.0005 53.697C57.5058 54.2026 56.8662 54.542 56.1702 54.6683L46.062 56.502Z" fill="#87B740"/>
</svg>
