<svg width="32" height="32" viewBox="0 0 32 32" fill="none" xmlns="http://www.w3.org/2000/svg">
<path d="M12.2115 14.4946C12.0781 14.4813 11.9181 14.4813 11.7715 14.4946C8.59812 14.388 6.07812 11.788 6.07812 8.58797C6.07812 5.3213 8.71813 2.66797 11.9981 2.66797C15.2648 2.66797 17.9181 5.3213 17.9181 8.58797C17.9048 11.788 15.3848 14.388 12.2115 14.4946Z" stroke="currentColor" stroke-width="1.5" stroke-linecap="round" stroke-linejoin="round"/>
<path d="M21.8804 5.33203C24.467 5.33203 26.547 7.42536 26.547 9.9987C26.547 12.5187 24.547 14.572 22.0537 14.6654C21.947 14.652 21.827 14.652 21.707 14.6654" stroke="currentColor" stroke-width="1.5" stroke-linecap="round" stroke-linejoin="round"/>
<path d="M5.545 19.412C2.31833 21.572 2.31833 25.092 5.545 27.2387C9.21167 29.692 15.225 29.692 18.8917 27.2387C22.1183 25.0787 22.1183 21.5587 18.8917 19.412C15.2383 16.972 9.225 16.972 5.545 19.412Z" stroke="currentColor" stroke-width="1.5" stroke-linecap="round" stroke-linejoin="round"/>
<path d="M24.4531 26.668C25.4131 26.468 26.3198 26.0813 27.0665 25.508C29.1465 23.948 29.1465 21.3746 27.0665 19.8146C26.3331 19.2546 25.4398 18.8813 24.4931 18.668" stroke="currentColor" stroke-width="1.5" stroke-linecap="round" stroke-linejoin="round"/>
</svg>
