<svg width="72" height="72" viewBox="0 0 72 72" fill="none" xmlns="http://www.w3.org/2000/svg">
<path d="M21.082 11.925L22.6683 13.5C23.3996 12.7686 24.2677 12.1885 25.2232 11.7927C26.1787 11.3969 27.2028 11.1932 28.237 11.1932C29.2713 11.1932 30.2954 11.3969 31.2508 11.7927C32.2063 12.1885 33.0745 12.7686 33.8058 13.5L35.392 11.9025C33.4906 10.0094 30.9155 8.94843 28.2324 8.95265C25.5492 8.95687 22.9775 10.0259 21.082 11.925Z" fill="#6AB240"/>
<path d="M16.875 55.125C17.4963 55.125 18 54.6213 18 54C18 53.3787 17.4963 52.875 16.875 52.875C16.2537 52.875 15.75 53.3787 15.75 54C15.75 54.6213 16.2537 55.125 16.875 55.125Z" fill="#6AB240"/>
<path d="M35.37 41.4562C35.5602 41.3641 35.7206 41.2203 35.8329 41.0412C35.9451 40.8622 36.0046 40.6551 36.0046 40.4438C36.0046 40.2324 35.9451 40.0253 35.8329 39.8463C35.7206 39.6672 35.5602 39.5234 35.37 39.4313C33.8198 38.6536 32.1093 38.2491 30.375 38.25C27.6473 38.251 25.0129 39.2431 22.9621 41.0414C20.9112 42.8398 19.5836 45.3221 19.2262 48.0262C12.8813 49.1737 7.875 51.5813 7.875 55.125C7.875 60.2438 18.3038 63 28.125 63C29.6839 65.1142 31.938 66.6115 34.4913 67.2287C37.0446 67.8459 39.7337 67.5437 42.0863 66.375C42.2756 66.2822 42.435 66.1381 42.5464 65.9591C42.6578 65.7801 42.7167 65.5733 42.7163 65.3625C42.7156 65.1547 42.6575 64.9512 42.5483 64.7745C42.439 64.5978 42.283 64.4547 42.0975 64.3613C40.9051 63.7656 39.86 62.9126 39.0375 61.8638C41.4298 61.3653 43.7151 60.4474 45.7875 59.1525C46.8286 61.5936 48.7865 63.5284 51.2397 64.5404C53.693 65.5525 56.4456 65.5608 58.905 64.5638C59.1113 64.479 59.2878 64.3348 59.412 64.1495C59.5362 63.9642 59.6025 63.7462 59.6025 63.5231C59.6025 63.3001 59.5362 63.082 59.412 62.8967C59.2878 62.7114 59.1113 62.5673 58.905 62.4825C57.4432 61.8982 56.1901 60.8892 55.3074 59.5858C54.4246 58.2823 53.9528 56.7442 53.9528 55.17C53.9528 53.5958 54.4246 52.0577 55.3074 50.7542C56.1901 49.4508 57.4432 48.4418 58.905 47.8575C59.1113 47.7727 59.2878 47.6286 59.412 47.4433C59.5362 47.258 59.6025 47.0399 59.6025 46.8169C59.6025 46.5938 59.5362 46.3758 59.412 46.1905C59.2878 46.0052 59.1113 45.861 58.905 45.7762C56.4456 44.7792 53.693 44.7875 51.2397 45.7996C48.7865 46.8116 46.8286 48.7464 45.7875 51.1875C42.75 49.05 37.125 47.61 30.6562 47.3063C30.9685 46.0467 31.5522 44.8706 32.3664 43.8601C33.1806 42.8497 34.2057 42.0293 35.37 41.4562ZM19.0125 59.9175C13.3875 58.7925 10.125 56.745 10.125 55.125C10.125 53.505 13.365 51.4575 19.0125 50.3325C19.8241 51.7995 20.2498 53.4485 20.2498 55.125C20.2498 56.8015 19.8241 58.4505 19.0125 59.9175ZM39.105 65.025C37.6973 65.3432 36.2337 65.3181 34.8376 64.952C33.4416 64.5859 32.1541 63.8894 31.0837 62.9213C32.9692 62.8189 34.8473 62.6086 36.7088 62.2913C37.3521 63.3278 38.1616 64.2514 39.105 65.025ZM45.5288 53.8425C45.667 53.9969 45.8452 54.1102 46.0437 54.1697C46.2422 54.2293 46.4533 54.2328 46.6538 54.18C46.8538 54.1298 47.0362 54.0257 47.181 53.8788C47.3259 53.732 47.4276 53.5482 47.475 53.3475C47.8887 51.5539 48.9175 49.962 50.3829 48.8481C51.8482 47.7342 53.6574 47.1687 55.4963 47.25C54.3218 48.1991 53.3745 49.3989 52.7237 50.7615C52.073 52.1241 51.7352 53.615 51.7352 55.125C51.7352 56.635 52.073 58.1259 52.7237 59.4885C53.3745 60.8511 54.3218 62.0509 55.4963 63C53.6571 63.0845 51.8464 62.5219 50.379 61.41C48.9115 60.2981 47.88 58.7072 47.4637 56.9138C47.4163 56.713 47.3146 56.5292 47.1698 56.3824C47.025 56.2356 46.8425 56.1314 46.6425 56.0812C46.5491 56.0703 46.4547 56.0703 46.3612 56.0812C46.2043 56.0816 46.0491 56.1148 45.9057 56.1788C45.7623 56.2427 45.6339 56.336 45.5288 56.4525C43.6613 58.5 37.4175 60.75 28.125 60.75C25.8673 60.7553 23.612 60.605 21.375 60.3C22.1221 58.6771 22.509 56.9116 22.509 55.125C22.509 53.3384 22.1221 51.5729 21.375 49.95C23.612 49.6451 25.8673 49.4947 28.125 49.5C37.4175 49.5 43.6613 51.75 45.5288 53.8425ZM28.3612 47.25H28.125C25.9322 47.2524 23.7417 47.3914 21.5662 47.6663C21.9876 45.6415 23.0935 43.8237 24.6978 42.5185C26.302 41.2134 28.3069 40.5006 30.375 40.5C31.0376 40.5013 31.698 40.5768 32.3438 40.725C30.2895 42.3634 28.8792 44.674 28.3612 47.25Z" fill="#6AB240"/>
<path d="M69.5034 25.875C70.0648 25.216 70.4698 24.4384 70.688 23.6007C70.9062 22.7629 70.932 21.8866 70.7634 21.0375V20.8575C69.8625 16.6891 67.6091 12.9354 64.3536 10.1804C61.0982 7.42555 57.0234 5.82399 52.7634 5.625C48.0165 5.43407 43.3722 7.04108 39.7584 10.125C39.2688 9.48495 38.7309 8.8832 38.1497 8.325C35.4667 5.88473 31.9775 4.52038 28.3508 4.49339C24.7241 4.4664 21.215 5.77868 18.4959 8.17875C16.9974 9.50918 15.7908 11.1358 14.9524 12.9559C14.114 14.776 13.6619 16.7502 13.6247 18.7537C13.6191 23.1461 11.909 27.3647 8.85469 30.5212C7.63002 30.0342 6.27324 29.9927 5.02108 30.4039C3.76893 30.8152 2.70093 31.653 2.00344 32.7712C1.47348 33.6487 1.19336 34.6543 1.19336 35.6794C1.19336 36.7045 1.47348 37.71 2.00344 38.5875C2.42935 39.3133 3.01578 39.932 3.7178 40.3961C4.41982 40.8602 5.21878 41.1575 6.05344 41.265C6.23795 42.6091 6.90203 43.8412 7.92331 44.7343C8.94459 45.6274 10.2542 46.1213 11.6109 46.125C12.6535 46.1287 13.6757 45.8361 14.5584 45.2813C15.6741 44.5842 16.5102 43.5181 16.9213 42.2684C17.3324 41.0188 17.2925 39.6645 16.8084 38.4412C19.9339 35.4117 24.122 33.7276 28.4747 33.75C30.5458 33.7124 32.5854 33.237 34.4597 32.355C35.6859 35.1717 37.5669 37.6548 39.9464 39.5979C42.3258 41.5409 45.1348 42.8877 48.1397 43.5262H48.3197C48.6897 43.6034 49.0668 43.6411 49.4447 43.6388C50.8076 43.638 52.1264 43.1559 53.1684 42.2775C53.8918 41.6749 54.4699 40.9169 54.8594 40.0598C55.249 39.2027 55.4401 38.2687 55.4184 37.3275C55.4058 36.5707 55.4851 35.8152 55.6547 35.0775C56.0336 33.4326 56.8675 31.9274 58.061 30.7339C59.2546 29.5403 60.7598 28.7064 62.4047 28.3275C63.1413 28.152 63.8976 28.0726 64.6547 28.0912C65.5755 28.0972 66.4866 27.902 67.3241 27.5192C68.1616 27.1364 68.9054 26.5752 69.5034 25.875ZM28.4409 31.5C23.4949 31.5082 18.7492 33.455 15.2222 36.9225L14.6034 37.5412C14.4292 37.7178 14.3181 37.947 14.2876 38.1932C14.2571 38.4394 14.3088 38.6887 14.4347 38.9025C14.7091 39.3575 14.8723 39.8708 14.9109 40.4007C14.9495 40.9307 14.8624 41.4622 14.6567 41.9522C14.451 42.4421 14.1326 42.8765 13.7273 43.2201C13.322 43.5637 12.8414 43.8068 12.3244 43.9295C11.8074 44.0523 11.2688 44.0512 10.7523 43.9264C10.2358 43.8017 9.75607 43.5567 9.35214 43.2115C8.94821 42.8663 8.63149 42.4306 8.42775 41.9399C8.22402 41.4492 8.13902 40.9173 8.17969 40.3875C8.20118 40.2208 8.18506 40.0514 8.13249 39.8918C8.07993 39.7321 7.99226 39.5863 7.87594 39.465C7.6664 39.2572 7.38357 39.14 7.08844 39.1388H6.98719C6.45589 39.1837 5.9215 39.1022 5.4278 38.9008C4.9341 38.6994 4.49515 38.3839 4.1469 37.9801C3.79865 37.5763 3.55102 37.0958 3.4243 36.5779C3.29757 36.06 3.29537 35.5194 3.41786 35.0005C3.54034 34.4815 3.78404 33.999 4.12898 33.5924C4.47392 33.1858 4.91029 32.8667 5.40232 32.6613C5.89436 32.4559 6.42807 32.37 6.95972 32.4106C7.49136 32.4512 8.00582 32.6172 8.46094 32.895C8.67585 33.0237 8.92756 33.077 9.17618 33.0464C9.4248 33.0158 9.65611 32.9032 9.83344 32.7263L10.4409 32.1075C13.914 28.5467 15.863 23.7728 15.8747 18.7987C15.9001 17.0952 16.2792 15.4155 16.988 13.8662C17.6968 12.3169 18.7198 10.9318 19.9922 9.79875C22.2921 7.76721 25.261 6.65632 28.3296 6.67916C31.3982 6.70199 34.3503 7.85695 36.6197 9.9225C38.4755 11.5909 39.7836 13.7814 40.3722 16.2065C40.9608 18.6316 40.8025 21.178 39.918 23.5115C39.0335 25.845 37.4642 27.8566 35.416 29.2822C33.3678 30.7078 30.9364 31.4809 28.4409 31.5ZM67.8159 24.5025C67.4172 24.9613 66.9193 25.3233 66.3598 25.5611C65.8004 25.7989 65.1942 25.9062 64.5872 25.875C63.6607 25.8621 62.7357 25.9564 61.8309 26.1562C59.7737 26.621 57.8903 27.6592 56.399 29.1506C54.9077 30.6419 53.8695 32.5253 53.4047 34.5825C53.2043 35.491 53.1099 36.4197 53.1234 37.35C53.1435 37.9441 53.0307 38.5352 52.7933 39.0802C52.5558 39.6251 52.1997 40.1102 51.7509 40.5C51.3492 40.8457 50.8739 41.0953 50.3612 41.2298C49.8485 41.3643 49.3119 41.3802 48.7922 41.2762H48.6347C45.94 40.6976 43.4259 39.4741 41.3078 37.7107C39.1897 35.9472 37.5308 33.6964 36.4734 31.1513C37.2442 30.6321 37.9637 30.0407 38.6222 29.385C38.9438 29.064 39.2479 28.726 39.5334 28.3725C40.2244 30.0444 41.2735 31.5445 42.6069 32.7671C43.9403 33.9897 45.5255 34.905 47.2509 35.4488C47.6624 35.5776 48.0988 35.606 48.5235 35.5317C48.9482 35.4573 49.349 35.2823 49.6922 35.0212C50.0522 34.736 50.3412 34.3712 50.5364 33.9554C50.7316 33.5396 50.8277 33.0842 50.8172 32.625C50.8172 29.9397 51.8839 27.3644 53.7827 25.4655C55.6815 23.5667 58.2569 22.5 60.9422 22.5C61.2234 22.5 61.4934 22.5 61.7634 22.5C61.9356 22.5195 62.11 22.4989 62.2729 22.4399C62.4359 22.3808 62.583 22.285 62.7027 22.1597C62.8225 22.0345 62.9118 21.8833 62.9635 21.7179C63.0152 21.5525 63.028 21.3774 63.0009 21.2062C62.56 19.0233 61.5382 16.9997 60.0432 15.349C58.5481 13.6983 56.6354 12.4817 54.5066 11.8274C52.3778 11.1731 50.1119 11.1054 47.9479 11.6314C45.7838 12.1575 43.8018 13.2578 42.2109 14.8162C41.9129 13.8271 41.5093 12.8729 41.0072 11.97C44.2268 9.15922 48.4034 7.69318 52.6734 7.875C56.4354 8.05906 60.0307 9.48329 62.8982 11.9254C65.7657 14.3676 67.7441 17.6903 68.5247 21.375V21.5325C68.6295 22.0445 68.6172 22.5735 68.4886 23.0801C68.36 23.5866 68.1185 24.0575 67.7822 24.4575L67.8159 24.5025ZM42.7509 17.5837C43.8461 16.1099 45.3214 14.9616 47.0191 14.2618C48.7167 13.562 50.5726 13.337 52.3883 13.6109C54.2039 13.8848 55.9109 14.6473 57.3265 15.8168C58.7421 16.9863 59.813 18.5187 60.4247 20.25C57.2431 20.3977 54.2409 21.7664 52.0428 24.0713C49.8447 26.3763 48.62 29.44 48.6234 32.625C48.6248 32.736 48.6 32.8457 48.5511 32.9454C48.5023 33.045 48.4307 33.1318 48.3422 33.1988C48.2812 33.247 48.2092 33.2794 48.1327 33.2931C48.0561 33.3069 47.9774 33.3015 47.9034 33.2775C46.243 32.7644 44.7425 31.8324 43.5465 30.5714C42.3505 29.3104 41.4993 27.7628 41.0747 26.0775C42.2988 23.8378 42.9155 21.3168 42.8634 18.765C42.8522 18.3825 42.8184 18 42.7509 17.5837Z" fill="#6AB240"/>
</svg>
