<svg width="32" height="31" viewBox="0 0 32 31" fill="none" xmlns="http://www.w3.org/2000/svg">
<rect width="31.8082" height="31" rx="10" fill="#C2E66E"/>
<path d="M22.2679 19.7538L20.253 18.1767C20.3873 17.5818 20.2545 17.0077 19.8526 16.5138C19.0466 15.5213 18.869 14.3466 18.6818 13.1033C18.4106 11.3057 18.1027 9.26879 15.8299 7.48549C14.5741 6.5 13.2831 6 11.9926 6C9.62245 6 8.12728 7.67846 8.07102 7.74308C7.97146 7.85341 5.62157 10.4804 6.05278 13.6185C6.31541 15.5303 7.5453 17.1873 9.7097 18.5448L9.75146 18.5684C9.92574 18.6549 14.0392 20.6811 15.2699 21.0611C15.8231 21.2316 16.2787 21.3116 16.702 21.3116C17.0697 21.3116 17.4106 21.2462 17.726 21.12L19.997 22.5457C19.9057 23.2266 19.8701 24.7182 21.1424 25.4147C21.4785 25.5985 21.8471 25.6888 22.2126 25.6888C22.7484 25.6888 23.2781 25.496 23.6919 25.1229C24.1972 24.6673 24.4262 24.0387 24.3442 23.3936C24.7453 23.2945 25.2576 23.0813 25.5633 22.6266C25.7646 22.3259 25.9451 21.8046 25.6616 21.0277C25.0805 19.4305 23.3137 19.4684 22.2679 19.7538ZM18.4323 19.2237L18.3879 19.2958C17.8088 20.2499 17.1484 20.3598 16.7027 20.3598C16.3767 20.3598 16.0112 20.2936 15.551 20.1521C14.4359 19.8081 10.5242 17.8875 10.195 17.7259C8.29629 16.5292 7.21981 15.1064 6.99673 13.4952C6.62289 10.8011 8.75475 8.40637 8.78113 8.37758C8.79366 8.36352 10.0646 6.95253 11.993 6.95253C13.0655 6.95253 14.1589 7.38374 15.2429 8.23451C17.2183 9.78505 17.4715 11.4659 17.7405 13.2459C17.9389 14.5604 18.1442 15.9204 19.1139 17.1143C19.3055 17.3492 19.5185 17.7354 19.1675 18.3719C18.9134 18.8338 18.5009 19.1688 18.4983 19.1716L18.4323 19.2237ZM24.7745 22.0941C24.5567 22.4204 23.9319 22.5204 23.7319 22.5299C23.5759 22.5356 23.4334 22.6178 23.3493 22.7497C23.2657 22.8818 23.251 23.0462 23.3119 23.1897C23.5855 23.8407 23.2235 24.264 23.0559 24.4152C22.7253 24.7132 22.1471 24.8793 21.5996 24.5793C20.6035 24.0343 20.98 22.4433 20.9838 22.4286C21.0339 22.2286 20.9499 22.0193 20.7748 21.9099L18.6016 20.5459C18.8035 20.3519 18.9908 20.1248 19.1596 19.8576C19.2923 19.7415 19.5937 19.4567 19.8517 19.0712L21.877 20.656C22.004 20.7552 22.1739 20.7829 22.3264 20.7314C22.406 20.7031 24.2989 20.0666 24.7677 21.353C24.8857 21.6743 24.8875 21.9242 24.7745 22.0941Z" fill="black"/>
<path d="M14.0679 8.65211C12.1172 7.54397 10.5347 8.38244 9.97056 8.98024C9.79012 9.17145 9.79891 9.47276 9.98946 9.6532C10.0818 9.7398 10.1989 9.78266 10.3165 9.78266C10.4427 9.78266 10.5688 9.73298 10.6624 9.63364C10.6732 9.62178 11.8018 8.46002 13.5976 9.48002C13.8259 9.60969 14.1165 9.52991 14.2464 9.30134C14.3765 9.07255 14.2967 8.78244 14.0679 8.65211Z" fill="black"/>
<path d="M14.9408 9.40173C14.6202 9.40173 14.3586 9.66327 14.3586 9.98459C14.3586 10.3052 14.6202 10.5674 14.9408 10.5674C15.2622 10.5674 15.5237 10.3052 15.5237 9.98459C15.5237 9.66327 15.2624 9.40173 14.9408 9.40173Z" fill="black"/>
</svg>
