<svg width="30" height="30" viewBox="0 0 30 30" fill="none" xmlns="http://www.w3.org/2000/svg">
<path d="M11.25 2.8125C11.7675 2.8125 12.1875 3.2325 12.1875 3.75V9.1875C12.1875 10.8375 11.6966 12.243 10.7666 13.248C10.127 13.9396 9.32096 14.3991 8.4375 14.5898V26.25C8.4375 26.7675 8.0175 27.1875 7.5 27.1875C6.9825 27.1875 6.5625 26.7675 6.5625 26.25V14.5898C5.67831 14.3992 4.8722 13.9398 4.2334 13.248C3.3034 12.2418 2.8125 10.8375 2.8125 9.1875V3.75C2.8125 3.2325 3.2325 2.8125 3.75 2.8125C4.2675 2.8125 4.6875 3.2325 4.6875 3.75V9.0625H6.5625V3.75C6.5625 3.2325 6.9825 2.8125 7.5 2.8125C8.0175 2.8125 8.4375 3.2325 8.4375 3.75V9.0625H10.3125V3.75C10.3125 3.2325 10.7325 2.8125 11.25 2.8125ZM26.25 2.8125C26.7675 2.8125 27.1875 3.2325 27.1875 3.75C27.1875 4.2675 26.7675 4.6875 26.25 4.6875C20.5637 4.6875 15.9375 9.31375 15.9375 15C15.9375 20.6863 20.5637 25.3125 26.25 25.3125C26.7675 25.3125 27.1875 25.7325 27.1875 26.25C27.1875 26.7675 26.7675 27.1875 26.25 27.1875C19.53 27.1875 14.0625 21.72 14.0625 15C14.0625 8.28 19.53 2.8125 26.25 2.8125ZM26.25 7.8125C26.7675 7.8125 27.1875 8.2325 27.1875 8.75C27.1875 9.2675 26.7675 9.6875 26.25 9.6875C23.3212 9.6875 20.9375 12.0712 20.9375 15C20.9375 17.9288 23.3212 20.3125 26.25 20.3125C26.7675 20.3125 27.1875 20.7325 27.1875 21.25C27.1875 21.7675 26.7675 22.1875 26.25 22.1875C22.2863 22.1875 19.0625 18.9637 19.0625 15C19.0625 11.0363 22.2863 7.8125 26.25 7.8125ZM5.00293 10.9375C5.4062 11.9834 6.2051 12.7946 7.45312 12.8145C7.46867 12.8137 7.48427 12.8125 7.5 12.8125C7.5154 12.8125 7.53068 12.8137 7.5459 12.8145C8.79448 12.795 9.5937 11.9837 9.99707 10.9375H5.00293Z" fill="#161616"/>
</svg>
