<svg width="30" height="30" viewBox="0 0 30 30" fill="none" xmlns="http://www.w3.org/2000/svg">
<path d="M15.0684 1.5625C17.3673 1.56248 19.1847 1.56295 20.6064 1.74707C22.0655 1.93607 23.249 2.33328 24.1855 3.23535C25.127 4.14238 25.5466 5.29664 25.7451 6.71875C25.9372 8.09526 25.9375 9.85244 25.9375 12.0615V22.5576C25.9376 23.9294 25.9374 25.0693 25.8057 25.9258C25.6693 26.8119 25.3518 27.6747 24.4756 28.1426C23.6941 28.5598 22.8342 28.4752 22.1055 28.2539C21.3685 28.0302 20.6195 27.6238 19.9336 27.1904C19.2412 26.7529 18.562 26.2537 17.9717 25.8174L17.9014 25.7656C17.3231 25.3381 16.8586 24.9948 16.5039 24.7812C16.0047 24.4806 15.6892 24.2923 15.4336 24.1719C15.1976 24.0607 15.0829 24.043 15 24.043C14.9171 24.043 14.8023 24.0607 14.5664 24.1719C14.3108 24.2923 13.9953 24.4806 13.4961 24.7812C13.1414 24.9948 12.6769 25.3381 12.0986 25.7656L12.0283 25.8174C11.438 26.2537 10.7588 26.7529 10.0664 27.1904C9.38051 27.6238 8.6315 28.0302 7.89453 28.2539C7.16576 28.4752 6.30588 28.5598 5.52441 28.1426C4.64821 27.6747 4.33066 26.8119 4.19434 25.9258C4.0626 25.0693 4.06245 23.9294 4.0625 22.5576V12.0615C4.06248 9.85244 4.06279 8.09526 4.25488 6.71875C4.45338 5.29663 4.87301 4.14238 5.81445 3.23535C6.75101 2.33327 7.93447 1.93607 9.39355 1.74707C10.8153 1.56294 12.6327 1.56248 14.9316 1.5625H15.0684ZM5.95215 9.6875C5.94083 10.408 5.9375 11.218 5.9375 12.1348V22.4756C5.9375 23.9497 5.94068 24.9439 6.04785 25.6406C6.15291 26.3235 6.31735 26.4402 6.40723 26.4883C6.56114 26.5705 6.8422 26.613 7.34961 26.459C7.84866 26.3075 8.43204 26.0057 9.06543 25.6055C9.69223 25.2094 10.3194 24.749 10.9141 24.3096C10.9514 24.282 10.989 24.2542 11.0264 24.2266C11.563 23.8297 12.0951 23.4362 12.5293 23.1748L12.5654 23.1523C13.0172 22.8803 13.4151 22.6417 13.7676 22.4756C14.1493 22.2957 14.5451 22.168 15 22.168C15.4549 22.168 15.8507 22.2957 16.2324 22.4756C16.5849 22.6417 16.9828 22.8803 17.4346 23.1523L17.4707 23.1748C17.9048 23.4362 18.437 23.8297 18.9736 24.2266C19.011 24.2542 19.0486 24.282 19.0859 24.3096C19.6805 24.749 20.3078 25.2094 20.9346 25.6055C21.568 26.0057 22.1513 26.3075 22.6504 26.459C23.1578 26.613 23.4389 26.5705 23.5928 26.4883C23.6827 26.4402 23.8481 26.3236 23.9531 25.6406C24.0603 24.9439 24.0625 23.9497 24.0625 22.4756V12.1348C24.0625 11.218 24.0592 10.408 24.0479 9.6875H5.95215ZM15 3.4375C12.6174 3.4375 10.9211 3.4397 9.63379 3.60645C8.37035 3.77014 7.64301 4.07757 7.11523 4.58594C6.59229 5.08977 6.27897 5.77721 6.11133 6.97852C6.07511 7.23811 6.0481 7.51533 6.02539 7.8125H23.9746C23.9519 7.51533 23.9249 7.23811 23.8887 6.97852C23.721 5.77721 23.4077 5.08977 22.8848 4.58594C22.357 4.07757 21.6297 3.77014 20.3662 3.60645C19.0789 3.4397 17.3826 3.4375 15 3.4375Z" fill="#161616"/>
</svg>
