<svg width="24" height="24" viewBox="0 0 24 24" fill="none" xmlns="http://www.w3.org/2000/svg">
<path d="M22.0018 5.11V16.47C22.0018 17.92 20.9618 18.53 19.6918 17.83L17.7618 16.75C17.6018 16.66 17.5018 16.49 17.5018 16.31V8.99C17.5018 6.45 15.4318 4.38 12.8918 4.38H8.82179C8.45179 4.38 8.19179 3.99 8.36179 3.67C8.88179 2.68 9.92179 2 11.1118 2H18.8918C20.6018 2 22.0018 3.4 22.0018 5.11Z" fill="currentColor"/>
<path d="M12.89 5.87891H5.11C3.4 5.87891 2 7.27891 2 8.98891V20.3489C2 21.7989 3.04 22.4089 4.31 21.7089L8.24 19.5189C8.66 19.2889 9.34 19.2889 9.76 19.5189L13.69 21.7089C14.96 22.4089 16 21.7989 16 20.3489V8.98891C16 7.27891 14.6 5.87891 12.89 5.87891ZM11 12.7489H9.75V13.9989C9.75 14.4089 9.41 14.7489 9 14.7489C8.59 14.7489 8.25 14.4089 8.25 13.9989V12.7489H7C6.59 12.7489 6.25 12.4089 6.25 11.9989C6.25 11.5889 6.59 11.2489 7 11.2489H8.25V9.99891C8.25 9.58891 8.59 9.24891 9 9.24891C9.41 9.24891 9.75 9.58891 9.75 9.99891V11.2489H11C11.41 11.2489 11.75 11.5889 11.75 11.9989C11.75 12.4089 11.41 12.7489 11 12.7489Z" fill="currentColor"/>
</svg>
