<svg width="21" height="22" viewBox="0 0 21 22" fill="none" xmlns="http://www.w3.org/2000/svg">
<path fill-rule="evenodd" clip-rule="evenodd" d="M10.0712 0C15.6243 0 20.1413 4.51699 20.1413 10.0701C20.1413 12.6901 19.1359 15.0797 17.4905 16.873L20.7281 20.1038C21.0311 20.4068 21.0321 20.897 20.7291 21.1999C20.5781 21.353 20.3786 21.4285 20.18 21.4285C19.9825 21.4285 19.7839 21.353 19.6319 21.202L16.3553 17.9345C14.6317 19.3149 12.4462 20.1413 10.0712 20.1413C4.51802 20.1413 0 15.6233 0 10.0701C0 4.51699 4.51802 0 10.0712 0ZM10.0712 1.55116C5.37323 1.55116 1.55116 5.37219 1.55116 10.0701C1.55116 14.7681 5.37323 18.5902 10.0712 18.5902C14.7681 18.5902 18.5902 14.7681 18.5902 10.0701C18.5902 5.37219 14.7681 1.55116 10.0712 1.55116Z" fill="currentColor"/>
</svg>
