<svg width="24" height="26" viewBox="0 0 24 26" fill="none" xmlns="http://www.w3.org/2000/svg">
<path fill-rule="evenodd" clip-rule="evenodd" d="M22.5409 5.68726L23.3708 7.12738V7.13959C24.0638 8.35389 23.6501 9.89976 22.4433 10.6056C22.0571 10.8268 21.7369 11.147 21.5157 11.5332C21.1756 12.117 21.0822 12.8123 21.2563 13.4652C21.4304 14.118 21.8576 14.6745 22.4433 15.0114C23.0289 15.3484 23.4561 15.9049 23.6302 16.5577C23.8043 17.2106 23.7109 17.9059 23.3708 18.4897L22.4921 19.9542C21.7858 21.1684 20.2308 21.583 19.0138 20.8818C18.6414 20.6689 18.2221 20.5515 17.7934 20.54C17.1159 20.5368 16.4652 20.8045 15.9861 21.2835C15.5071 21.7626 15.2394 22.4133 15.2426 23.0908C15.2359 24.4947 14.0959 25.6293 12.6919 25.6293H11.0199C9.61119 25.6293 8.46919 24.4873 8.46919 23.0786C8.46473 22.6488 8.34684 22.2278 8.12746 21.8581C7.79289 21.2733 7.23857 20.8463 6.5877 20.6722C5.93683 20.498 5.24335 20.591 4.66141 20.9306C4.06943 21.2624 3.36962 21.3447 2.71684 21.1592C2.06405 20.9736 1.51211 20.5356 1.18315 19.942L0.341043 18.4897C-0.359116 17.2763 0.0559893 15.7252 1.26858 15.0236C2.05778 14.568 2.54396 13.7259 2.54396 12.8146C2.54396 11.9034 2.05778 11.0613 1.26858 10.6056C0.0544474 9.89937 -0.360206 8.34442 0.341043 7.12738L1.23197 5.66285C1.93406 4.44429 3.49 4.02392 4.71023 4.72311C5.07986 4.94249 5.50086 5.06037 5.93067 5.06484C7.32522 5.06498 8.46138 3.94513 8.48139 2.55073C8.47815 1.87536 8.74416 1.22653 9.22058 0.747826C9.697 0.269118 10.3445 2.16365e-07 11.0199 2.16365e-07H12.6919C13.3813 -0.000283509 14.0414 0.278481 14.5219 0.772792C15.0025 1.2671 15.2624 1.93486 15.2426 2.62395C15.2471 3.05376 15.365 3.47476 15.5844 3.84439C15.9254 4.42592 16.4837 4.84793 17.1362 5.01735C17.7887 5.18677 18.4818 5.08969 19.0626 4.74752C20.2829 4.04833 21.8388 4.4687 22.5409 5.68726ZM15.6289 12.9629C15.6289 15.172 13.838 16.9629 11.6289 16.9629C9.41977 16.9629 7.62891 15.172 7.62891 12.9629C7.62891 10.7538 9.41977 8.96289 11.6289 8.96289C13.838 8.96289 15.6289 10.7538 15.6289 12.9629Z" fill="currentColor"/>
</svg>
