<svg width="30" height="30" viewBox="0 0 30 30" fill="none" xmlns="http://www.w3.org/2000/svg">
<path d="M22.5 3.4375C25.0888 3.4375 27.1875 5.53617 27.1875 8.125C27.1875 10.7138 25.0888 12.8125 22.5 12.8125C20.9379 12.8125 19.5549 12.0479 18.7031 10.873L12.0645 13.9355C12.1439 14.2776 12.1875 14.6337 12.1875 15C12.1875 15.3659 12.1438 15.7217 12.0645 16.0635L18.7031 19.126C19.555 17.9515 20.9382 17.1875 22.5 17.1875C25.0888 17.1875 27.1875 19.2862 27.1875 21.875C27.1875 24.4638 25.0888 26.5625 22.5 26.5625C19.9112 26.5625 17.8125 24.4638 17.8125 21.875C17.8125 21.5171 17.8537 21.1689 17.9297 20.834L11.2822 17.7666C10.4293 18.9306 9.05363 19.6875 7.5 19.6875C4.91117 19.6875 2.8125 17.5888 2.8125 15C2.8125 12.4112 4.91117 10.3125 7.5 10.3125C9.05335 10.3125 10.4293 11.0688 11.2822 12.2324L17.9297 9.16504C17.8539 8.83043 17.8125 8.48254 17.8125 8.125C17.8125 5.53617 19.9112 3.4375 22.5 3.4375ZM22.5 19.0625C20.9467 19.0625 19.6875 20.3217 19.6875 21.875C19.6875 23.4283 20.9467 24.6875 22.5 24.6875C24.0533 24.6875 25.3125 23.4283 25.3125 21.875C25.3125 20.3217 24.0533 19.0625 22.5 19.0625ZM7.5 12.1875C5.9467 12.1875 4.6875 13.4467 4.6875 15C4.6875 16.5533 5.9467 17.8125 7.5 17.8125C9.0533 17.8125 10.3125 16.5533 10.3125 15C10.3125 13.4467 9.0533 12.1875 7.5 12.1875ZM22.5 5.3125C20.9467 5.3125 19.6875 6.5717 19.6875 8.125C19.6875 9.6783 20.9467 10.9375 22.5 10.9375C24.0533 10.9375 25.3125 9.6783 25.3125 8.125C25.3125 6.5717 24.0533 5.3125 22.5 5.3125Z" fill="#161616"/>
</svg>
