<svg width="27" height="19" viewBox="0 0 27 19" fill="none" xmlns="http://www.w3.org/2000/svg">
<path fill-rule="evenodd" clip-rule="evenodd" d="M0.00247281 9.33352C-0.00124722 10.9731 -0.0744077 13.2093 0.939919 14.0452C1.88605 14.8249 2.55193 14.624 4.27926 14.7508C6.00783 14.8788 9.65594 19.96 12.4683 18.3528C13.9191 17.2119 14.027 14.8202 14.027 9.33352C14.027 3.84687 13.9191 1.45514 12.4683 0.314277C9.65594 -1.29417 6.00783 3.78827 4.27926 3.91623C2.55193 4.04299 1.88605 3.84209 0.939919 4.62179C-0.0744077 5.45771 -0.00124722 7.69398 0.00247281 9.33352Z" fill="currentColor"/>
<path fill-rule="evenodd" clip-rule="evenodd" d="M22.2088 0.383821C22.6624 0.0687368 23.2855 0.181015 23.6006 0.634601C27.2383 5.87143 27.2508 12.7832 23.6002 18.0316C23.2849 18.485 22.6617 18.5968 22.2083 18.2815C21.7549 17.9661 21.643 17.3429 21.9583 16.8895C25.1302 12.3294 25.1204 6.32817 21.958 1.77562C21.6429 1.32204 21.7552 0.698905 22.2088 0.383821Z" fill="currentColor"/>
<path fill-rule="evenodd" clip-rule="evenodd" d="M18.9451 3.55132C19.4244 3.27694 20.0353 3.44307 20.3097 3.92238C22.234 7.28392 22.2348 11.3925 20.3091 14.746C20.034 15.2249 19.4228 15.3902 18.9439 15.1152C18.4649 14.8402 18.2997 14.229 18.5747 13.75C20.1457 11.0142 20.1465 7.66295 18.574 4.91599C18.2996 4.43669 18.4658 3.8257 18.9451 3.55132Z" fill="currentColor"/>
</svg>
