<svg width="16" height="16" viewBox="0 0 16 16" fill="none" xmlns="http://www.w3.org/2000/svg">
<rect width="16" height="16" fill="transparent"/>
<path d="M9.15523 2.34172L10.3286 4.68839C10.4886 5.01505 10.9152 5.32839 11.2752 5.38839L13.4019 5.74172C14.7619 5.96839 15.0819 6.95505 14.1019 7.92839L12.4486 9.58172C12.1686 9.86172 12.0152 10.4017 12.1019 10.7884L12.5752 12.8351C12.9486 14.4551 12.0886 15.0817 10.6552 14.2351L8.66189 13.0551C8.30189 12.8417 7.70856 12.8417 7.34189 13.0551L5.34856 14.2351C3.92189 15.0817 3.05523 14.4484 3.42856 12.8351L3.90189 10.7884C3.98856 10.4017 3.83523 9.86172 3.55523 9.58172L1.90189 7.92839C0.928559 6.95505 1.24189 5.96839 2.60189 5.74172L4.72856 5.38839C5.08189 5.32839 5.50856 5.01505 5.66856 4.68839L6.84189 2.34172C7.48189 1.06839 8.52189 1.06839 9.15523 2.34172Z" fill="currentColor"/>
</svg>
