<svg width="32" height="32" viewBox="0 0 32 32" fill="none" xmlns="http://www.w3.org/2000/svg">
<rect width="32" height="32" rx="10" fill="#C2E66E"/>
<g clip-path="url(#clip0_2_147)">
<path d="M24.6667 19C24.6667 17.0413 24.2667 15.2127 23.5794 13.9667C23.7945 13.9121 23.9854 13.7874 24.1219 13.6124C24.2584 13.4374 24.3328 13.222 24.3334 13V11.6667C24.3334 11.4015 24.228 11.1471 24.0405 10.9596C23.8529 10.772 23.5986 10.6667 23.3334 10.6667H22.8554L22.0467 9.31867C21.9966 9.2354 21.9558 9.14687 21.925 9.05467C21.8238 8.74943 21.657 8.47003 21.4364 8.23603C21.2158 8.00202 20.9468 7.81907 20.648 7.7L20.02 7.449C19.8983 7.40041 19.7845 7.33402 19.6824 7.252L18.6647 6.43833C18.3099 6.15502 17.8694 6.00048 17.4154 6H17.1284C16.7661 6.00011 16.4107 6.09862 16.1 6.285L15.2244 6.81C15.0171 6.93433 14.78 7 14.5384 7H14.1667C13.8563 7.0008 13.5504 7.07344 13.2728 7.21223C12.9952 7.35102 12.7535 7.5522 12.5667 7.8C12.4421 7.96519 12.281 8.09931 12.0959 8.19184C11.9109 8.28436 11.7069 8.33279 11.5 8.33333C11.0883 8.33285 10.6856 8.45339 10.3418 8.67996C9.99811 8.90653 9.72856 9.22913 9.56669 9.60767L9.11369 10.6667H8.66669C8.40147 10.6667 8.14712 10.772 7.95958 10.9596C7.77205 11.1471 7.66669 11.4015 7.66669 11.6667V13C7.66727 13.222 7.74167 13.4374 7.87818 13.6124C8.0147 13.7874 8.20555 13.9121 8.42069 13.9667C7.73336 15.2127 7.33336 17.0413 7.33336 19C7.32919 20.0424 7.44982 21.0816 7.69269 22.0953C7.77269 22.4207 7.72872 22.7642 7.56936 23.059C7.42039 23.338 7.33973 23.6484 7.334 23.9647C7.32827 24.2809 7.39763 24.594 7.53638 24.8783C7.67514 25.1625 7.87933 25.4098 8.1322 25.5998C8.38507 25.7898 8.6794 25.9171 8.99102 25.9713C9.46531 26.0521 9.95284 25.9607 10.3657 25.7137C10.6587 25.5209 11.0152 25.4499 11.3597 25.5157C12.8839 25.8478 14.4401 26.0102 16 26C17.56 26.0102 19.1164 25.8478 20.6407 25.5157C20.9852 25.4505 21.3415 25.5215 21.6347 25.7137C22.0475 25.9604 22.5348 26.0518 23.009 25.9713C23.3208 25.9175 23.6154 25.7904 23.8685 25.6005C24.1216 25.4106 24.3259 25.1633 24.4647 24.879C24.6035 24.5947 24.6728 24.2814 24.6669 23.9651C24.661 23.6487 24.58 23.3383 24.4307 23.0593C24.2713 22.7645 24.2274 22.4208 24.3074 22.0953C24.5502 21.0816 24.6709 20.0424 24.6667 19ZM10.18 9.87033C10.2904 9.6118 10.4745 9.39145 10.7092 9.2367C10.9439 9.08195 11.2189 8.99963 11.5 9C11.8104 8.9992 12.1163 8.92656 12.3939 8.78777C12.6715 8.64898 12.9132 8.4478 13.1 8.2C13.2246 8.03481 13.3857 7.90069 13.5708 7.80817C13.7558 7.71564 13.9598 7.66721 14.1667 7.66667H14.5384C14.9006 7.66655 15.2561 7.56805 15.5667 7.38167L16.4424 6.85667C16.6496 6.73234 16.8867 6.66666 17.1284 6.66667H17.4154C17.7182 6.66696 18.012 6.77003 18.2487 6.959L19.2667 7.77233C19.4199 7.89538 19.5906 7.99502 19.773 8.068L20.4017 8.31933C20.6103 8.40273 20.7981 8.53073 20.952 8.69438C21.106 8.85802 21.2222 9.05335 21.2927 9.26667C21.3387 9.40508 21.3999 9.53799 21.475 9.663L22.078 10.6667H9.83869L10.18 9.87033ZM8.33336 11.6667C8.33336 11.5783 8.36848 11.4935 8.43099 11.431C8.4935 11.3685 8.57828 11.3333 8.66669 11.3333H23.3334C23.4218 11.3333 23.5065 11.3685 23.5691 11.431C23.6316 11.4935 23.6667 11.5783 23.6667 11.6667V13C23.6667 13.0884 23.6316 13.1732 23.5691 13.2357C23.5065 13.2982 23.4218 13.3333 23.3334 13.3333H8.66669C8.57828 13.3333 8.4935 13.2982 8.43099 13.2357C8.36848 13.1732 8.33336 13.0884 8.33336 13V11.6667ZM23.8427 23.3733C23.9797 23.6307 24.0285 23.9259 23.9817 24.2137C23.9349 24.5014 23.7951 24.766 23.5837 24.9667C23.3722 25.1674 23.1008 25.2933 22.811 25.3251C22.5212 25.3569 22.2289 25.2928 21.979 25.1427C21.5379 24.8606 21.0044 24.7613 20.4914 24.866C19.0161 25.1869 17.5098 25.3437 16 25.3333C14.4904 25.3439 12.9842 25.1874 11.509 24.8667C10.9959 24.7619 10.4622 24.8612 10.021 25.1433C9.77107 25.2936 9.47876 25.3577 9.18887 25.3259C8.89898 25.2942 8.6275 25.1682 8.41602 24.9674C8.20454 24.7666 8.06474 24.502 8.01802 24.2142C7.9713 23.9263 8.02024 23.6311 8.15736 23.3737C8.39514 22.9329 8.46026 22.4195 8.34002 21.9333C8.11002 20.9726 7.99587 19.9878 8.00002 19C8.00002 16.9787 8.44269 15.1333 9.18469 14H22.8154C23.5574 15.1333 24 16.9787 24 19C24.0042 19.9878 23.89 20.9726 23.66 21.9333C23.54 22.4194 23.6051 22.9327 23.8427 23.3733Z" fill="black"/>
<path d="M15 8.33331H14.3333C14.2449 8.33331 14.1601 8.36843 14.0976 8.43094C14.0351 8.49346 14 8.57824 14 8.66665C14 8.75505 14.0351 8.83984 14.0976 8.90235C14.1601 8.96486 14.2449 8.99998 14.3333 8.99998H15C15.0884 8.99998 15.1732 8.96486 15.2357 8.90235C15.2982 8.83984 15.3333 8.75505 15.3333 8.66665C15.3333 8.57824 15.2982 8.49346 15.2357 8.43094C15.1732 8.36843 15.0884 8.33331 15 8.33331Z" fill="black"/>
<path d="M18 7.66663H17.3333C17.2449 7.66663 17.1601 7.70174 17.0976 7.76426C17.0351 7.82677 17 7.91155 17 7.99996C17 8.08836 17.0351 8.17315 17.0976 8.23566C17.1601 8.29817 17.2449 8.33329 17.3333 8.33329H18C18.0884 8.33329 18.1732 8.29817 18.2357 8.23566C18.2982 8.17315 18.3333 8.08836 18.3333 7.99996C18.3333 7.91155 18.2982 7.82677 18.2357 7.76426C18.1732 7.70174 18.0884 7.66663 18 7.66663Z" fill="black"/>
<path d="M13.3333 9.33337H12.6666C12.5782 9.33337 12.4934 9.36849 12.4309 9.43101C12.3684 9.49352 12.3333 9.5783 12.3333 9.66671C12.3333 9.75511 12.3684 9.8399 12.4309 9.90241C12.4934 9.96492 12.5782 10 12.6666 10H13.3333C13.4217 10 13.5064 9.96492 13.569 9.90241C13.6315 9.8399 13.6666 9.75511 13.6666 9.66671C13.6666 9.5783 13.6315 9.49352 13.569 9.43101C13.5064 9.36849 13.4217 9.33337 13.3333 9.33337Z" fill="black"/>
<path d="M17 9.33337H16.3333C16.2449 9.33337 16.1601 9.36849 16.0976 9.43101C16.0351 9.49352 16 9.5783 16 9.66671C16 9.75511 16.0351 9.8399 16.0976 9.90241C16.1601 9.96492 16.2449 10 16.3333 10H17C17.0884 10 17.1732 9.96492 17.2357 9.90241C17.2982 9.8399 17.3333 9.75511 17.3333 9.66671C17.3333 9.5783 17.2982 9.49352 17.2357 9.43101C17.1732 9.36849 17.0884 9.33337 17 9.33337Z" fill="black"/>
<path d="M19.6667 9.33337H19.0001C18.9117 9.33337 18.8269 9.36849 18.7644 9.43101C18.7019 9.49352 18.6667 9.5783 18.6667 9.66671C18.6667 9.75511 18.7019 9.8399 18.7644 9.90241C18.8269 9.96492 18.9117 10 19.0001 10H19.6667C19.7552 10 19.8399 9.96492 19.9025 9.90241C19.965 9.8399 20.0001 9.75511 20.0001 9.66671C20.0001 9.5783 19.965 9.49352 19.9025 9.43101C19.8399 9.36849 19.7552 9.33337 19.6667 9.33337Z" fill="black"/>
<path d="M13.6667 16.6667C13.5783 16.6667 13.4936 16.7018 13.431 16.7643C13.3685 16.8268 13.3334 16.9116 13.3334 17V19.5C13.3334 19.6326 13.2807 19.7598 13.187 19.8536C13.0932 19.9473 12.966 20 12.8334 20C12.7008 20 12.5736 19.9473 12.4799 19.8536C12.3861 19.7598 12.3334 19.6326 12.3334 19.5V17C12.3334 16.9116 12.2983 16.8268 12.2358 16.7643C12.1733 16.7018 12.0885 16.6667 12.0001 16.6667C11.9117 16.6667 11.8269 16.7018 11.7644 16.7643C11.7019 16.8268 11.6667 16.9116 11.6667 17V19.5C11.6667 19.8094 11.7897 20.1062 12.0085 20.325C12.2272 20.5438 12.524 20.6667 12.8334 20.6667C13.1428 20.6667 13.4396 20.5438 13.6584 20.325C13.8772 20.1062 14.0001 19.8094 14.0001 19.5V17C14.0001 16.9116 13.965 16.8268 13.9025 16.7643C13.8399 16.7018 13.7552 16.6667 13.6667 16.6667Z" fill="black"/>
<path d="M18.8332 16.6667C18.5238 16.6667 18.227 16.7896 18.0082 17.0084C17.7894 17.2272 17.6665 17.5239 17.6665 17.8334V20.3334C17.6665 20.4218 17.7016 20.5065 17.7641 20.5691C17.8266 20.6316 17.9114 20.6667 17.9998 20.6667C18.0882 20.6667 18.173 20.6316 18.2355 20.5691C18.2981 20.5065 18.3332 20.4218 18.3332 20.3334V19.3334H19.3332V20.3334C19.3332 20.4218 19.3683 20.5065 19.4308 20.5691C19.4933 20.6316 19.5781 20.6667 19.6665 20.6667C19.7549 20.6667 19.8397 20.6316 19.9022 20.5691C19.9647 20.5065 19.9998 20.4218 19.9998 20.3334V17.8334C19.9998 17.5239 19.8769 17.2272 19.6581 17.0084C19.4393 16.7896 19.1426 16.6667 18.8332 16.6667ZM18.3332 18.6667V17.8334C18.3332 17.7007 18.3858 17.5736 18.4796 17.4798C18.5734 17.386 18.7006 17.3334 18.8332 17.3334C18.9658 17.3334 19.093 17.386 19.1867 17.4798C19.2805 17.5736 19.3332 17.7007 19.3332 17.8334V18.6667H18.3332Z" fill="black"/>
<path d="M23.0001 18C23.0001 17.6464 22.8596 17.3073 22.6096 17.0572C22.3595 16.8072 22.0204 16.6667 21.6667 16.6667H21.0001C20.9117 16.6667 20.8269 16.7018 20.7644 16.7643C20.7019 16.8268 20.6667 16.9116 20.6667 17V20.3334C20.6667 20.4218 20.7019 20.5065 20.7644 20.5691C20.8269 20.6316 20.9117 20.6667 21.0001 20.6667C21.0885 20.6667 21.1733 20.6316 21.2358 20.5691C21.2983 20.5065 21.3334 20.4218 21.3334 20.3334V19.3334H21.6667C21.8436 19.3334 22.0131 19.4036 22.1382 19.5286C22.2632 19.6536 22.3334 19.8232 22.3334 20V20.3334C22.3334 20.4218 22.3685 20.5065 22.431 20.5691C22.4936 20.6316 22.5783 20.6667 22.6667 20.6667C22.7552 20.6667 22.8399 20.6316 22.9025 20.5691C22.965 20.5065 23.0001 20.4218 23.0001 20.3334V20C22.9995 19.8101 22.958 19.6224 22.8785 19.4499C22.7991 19.2774 22.6834 19.1239 22.5394 19C22.6834 18.8761 22.7991 18.7227 22.8785 18.5501C22.958 18.3776 22.9995 18.19 23.0001 18ZM21.3334 18.6667V17.3334H21.6667C21.8436 17.3334 22.0131 17.4036 22.1382 17.5286C22.2632 17.6536 22.3334 17.8232 22.3334 18C22.3334 18.1768 22.2632 18.3464 22.1382 18.4714C22.0131 18.5964 21.8436 18.6667 21.6667 18.6667H21.3334Z" fill="black"/>
<path d="M16.6668 18.6667H16.3334C16.245 18.6667 16.1602 18.7018 16.0977 18.7643C16.0352 18.8268 16.0001 18.9116 16.0001 19C16.0001 19.0884 16.0352 19.1732 16.0977 19.2357C16.1602 19.2982 16.245 19.3333 16.3334 19.3333V19.5C16.3334 19.6326 16.2807 19.7598 16.187 19.8535C16.0932 19.9473 15.966 20 15.8334 20C15.7008 20 15.5736 19.9473 15.4799 19.8535C15.3861 19.7598 15.3334 19.6326 15.3334 19.5V17.8333C15.3333 17.7093 15.3792 17.5897 15.4624 17.4977C15.5455 17.4057 15.6598 17.3478 15.7832 17.3354C15.9065 17.3229 16.0301 17.3567 16.13 17.4303C16.2298 17.5038 16.2987 17.6118 16.3234 17.7333C16.3411 17.82 16.3925 17.8961 16.4663 17.9449C16.5401 17.9937 16.6302 18.0112 16.7169 17.9935C16.8036 17.9758 16.8797 17.9244 16.9285 17.8506C16.9773 17.7768 16.9948 17.6867 16.9771 17.6C16.9199 17.3161 16.7591 17.0636 16.526 16.8917C16.293 16.7197 16.0043 16.6406 15.7162 16.6697C15.428 16.6988 15.161 16.8341 14.9671 17.0491C14.7731 17.2642 14.666 17.5437 14.6668 17.8333V19.5C14.6668 19.8094 14.7897 20.1062 15.0085 20.3249C15.2273 20.5437 15.524 20.6667 15.8334 20.6667C16.1428 20.6667 16.4396 20.5437 16.6584 20.3249C16.8772 20.1062 17.0001 19.8094 17.0001 19.5V19C17.0001 18.9116 16.965 18.8268 16.9025 18.7643C16.8399 18.7018 16.7552 18.6667 16.6668 18.6667Z" fill="black"/>
<path d="M9.83345 18.3334C9.73885 18.3333 9.64619 18.3065 9.56625 18.2559C9.4863 18.2053 9.42234 18.1331 9.3818 18.0476C9.34126 17.9622 9.32579 17.8669 9.33721 17.773C9.34863 17.6791 9.38645 17.5904 9.44629 17.5171C9.50613 17.4438 9.58553 17.389 9.67527 17.3591C9.765 17.3291 9.8614 17.3252 9.95325 17.3479C10.0451 17.3705 10.1286 17.4188 10.1942 17.487C10.2597 17.5552 10.3045 17.6407 10.3235 17.7334C10.3411 17.82 10.3925 17.8961 10.4663 17.9449C10.5401 17.9937 10.6303 18.0112 10.717 17.9935C10.8036 17.9758 10.8797 17.9244 10.9285 17.8507C10.9773 17.7769 10.9948 17.6867 10.9771 17.6C10.933 17.3838 10.8284 17.1844 10.6755 17.0252C10.5226 16.866 10.3277 16.7535 10.1134 16.7006C9.89908 16.6478 9.67418 16.6568 9.4648 16.7267C9.25542 16.7965 9.07015 16.9243 8.93051 17.0953C8.79087 17.2662 8.70258 17.4733 8.67591 17.6924C8.64924 17.9115 8.68526 18.1337 8.77981 18.3331C8.87436 18.5326 9.02355 18.7011 9.21006 18.8191C9.39656 18.9372 9.61273 18.9999 9.83345 19C9.92806 19 10.0207 19.0269 10.1007 19.0775C10.1806 19.1281 10.2446 19.2003 10.2851 19.2857C10.3257 19.3712 10.3411 19.4664 10.3297 19.5604C10.3183 19.6543 10.2805 19.743 10.2206 19.8163C10.1608 19.8896 10.0814 19.9444 9.99164 19.9743C9.90191 20.0043 9.80551 20.0081 9.71366 19.9855C9.62181 19.9628 9.53826 19.9146 9.47273 19.8464C9.4072 19.7781 9.36237 19.6927 9.34345 19.6C9.32577 19.5133 9.27438 19.4372 9.20059 19.3884C9.12679 19.3397 9.03664 19.3222 8.94995 19.3399C8.86327 19.3575 8.78717 19.4089 8.73837 19.4827C8.68958 19.5565 8.67211 19.6467 8.68979 19.7334C8.73393 19.9496 8.83852 20.1489 8.99141 20.3081C9.1443 20.4673 9.33922 20.5799 9.55352 20.6327C9.76783 20.6856 9.99273 20.6766 10.2021 20.6067C10.4115 20.5369 10.5968 20.409 10.7364 20.2381C10.876 20.0672 10.9643 19.8601 10.991 19.641C11.0177 19.4219 10.9816 19.1997 10.8871 19.0003C10.7925 18.8008 10.6434 18.6323 10.4569 18.5142C10.2703 18.3962 10.0542 18.3335 9.83345 18.3334Z" fill="black"/>
</g>
<defs>
<clipPath id="clip0_2_147">
<rect width="20" height="20" fill="white" transform="translate(6 6)"/>
</clipPath>
</defs>
</svg>
