<svg width="30" height="30" viewBox="0 0 30 30" fill="none" xmlns="http://www.w3.org/2000/svg">
<path d="M15.0713 2.1875C17.8095 2.18748 19.9604 2.18736 21.6396 2.41309C23.3605 2.64444 24.7261 3.12842 25.7988 4.20117C26.8716 5.27392 27.3556 6.63953 27.5869 8.36035C27.8126 10.0396 27.8125 12.1905 27.8125 14.9287V15.0713C27.8125 17.8095 27.8126 19.9604 27.5869 21.6396C27.3556 23.3605 26.8716 24.7261 25.7988 25.7988C24.7261 26.8716 23.3605 27.3556 21.6396 27.5869C19.9604 27.8126 17.8095 27.8125 15.0713 27.8125H14.9287C12.1905 27.8125 10.0396 27.8126 8.36035 27.5869C6.63953 27.3556 5.27392 26.8716 4.20117 25.7988C3.12842 24.7261 2.64444 23.3605 2.41309 21.6396C2.18736 19.9604 2.18748 17.8095 2.1875 15.0713V14.9287C2.18748 12.1905 2.18736 10.0396 2.41309 8.36035C2.64444 6.63953 3.12842 5.27392 4.20117 4.20117C5.27392 3.12842 6.63953 2.64444 8.36035 2.41309C10.0396 2.18736 12.1905 2.18748 14.9287 2.1875H15.0713ZM15 4.0625C12.1748 4.0625 10.1502 4.06452 8.61035 4.27148C7.09745 4.47489 6.19365 4.86104 5.52734 5.52734C4.86104 6.19365 4.47489 7.09745 4.27148 8.61035C4.06452 10.1502 4.0625 12.1748 4.0625 15C4.0625 17.8252 4.06452 19.8498 4.27148 21.3896C4.47489 22.9026 4.86104 23.8064 5.52734 24.4727C6.19365 25.139 7.09745 25.5251 8.61035 25.7285C10.1502 25.9355 12.1748 25.9375 15 25.9375C17.8252 25.9375 19.8498 25.9355 21.3896 25.7285C22.9026 25.5251 23.8064 25.139 24.4727 24.4727C25.139 23.8064 25.5251 22.9026 25.7285 21.3896C25.9355 19.8498 25.9375 17.8252 25.9375 15C25.9375 12.1748 25.9355 10.1502 25.7285 8.61035C25.5251 7.09745 25.139 6.19365 24.4727 5.52734C23.8064 4.86104 22.9026 4.47489 21.3896 4.27148C19.8498 4.06452 17.8252 4.0625 15 4.0625ZM8.75 15.3125C9.26777 15.3125 9.6875 15.7322 9.6875 16.25V21.25C9.6875 21.7678 9.26777 22.1875 8.75 22.1875C8.23223 22.1875 7.8125 21.7678 7.8125 21.25V16.25C7.8125 15.7322 8.23223 15.3125 8.75 15.3125ZM15 7.8125C15.5178 7.8125 15.9375 8.23223 15.9375 8.75V21.25C15.9375 21.7678 15.5178 22.1875 15 22.1875C14.4822 22.1875 14.0625 21.7678 14.0625 21.25V8.75C14.0625 8.23223 14.4822 7.8125 15 7.8125ZM21.25 12.8125C21.7678 12.8125 22.1875 13.2322 22.1875 13.75V21.25C22.1875 21.7678 21.7678 22.1875 21.25 22.1875C20.7322 22.1875 20.3125 21.7678 20.3125 21.25V13.75C20.3125 13.2322 20.7322 12.8125 21.25 12.8125Z" fill="#161616"/>
</svg>
