<svg width="53" height="41" viewBox="0 0 53 41" fill="none" xmlns="http://www.w3.org/2000/svg">
<rect x="0.5" y="0.5" width="51.7742" height="39.78" rx="19.5" fill="white"/>
<rect x="0.5" y="0.5" width="51.7742" height="39.78" rx="19.5" stroke="#E1E1E1"/>
<g clip-path="url(#clip0_398_12647)">
<path d="M26.3867 10.8901C20.8647 10.8901 16.3867 15.1442 16.3867 20.3901C16.3867 25.636 20.8647 29.8901 26.3867 29.8901C31.9087 29.8901 36.3867 25.636 36.3867 20.3901C36.3867 15.1442 31.9087 10.8901 26.3867 10.8901ZM31.4035 18.1589V19.4452C30.765 19.4454 30.1447 19.3265 29.5596 19.0921C29.1834 18.9412 28.8329 18.7467 28.5123 18.5118L28.5219 22.4711C28.5179 23.3627 28.1466 24.2003 27.4746 24.8313C26.9277 25.3449 26.2348 25.6715 25.4837 25.7772C25.3072 25.8021 25.1276 25.8148 24.9459 25.8148C24.1419 25.8148 23.3786 25.5673 22.7542 25.1108C22.6367 25.0249 22.5243 24.9317 22.4173 24.8313C21.689 24.1475 21.3135 23.2207 21.3767 22.2458C21.425 21.5036 21.7377 20.7958 22.2591 20.2411C22.949 19.507 23.9141 19.0995 24.9459 19.0995C25.1276 19.0995 25.3072 19.1125 25.4837 19.1373V19.6129V20.9359C25.3163 20.8835 25.1376 20.8546 24.9515 20.8546C24.0088 20.8546 23.2461 21.5853 23.2602 22.4816C23.2691 23.055 23.5989 23.5563 24.0852 23.8326C24.3137 23.9625 24.5767 24.043 24.8573 24.0576C25.0771 24.069 25.2882 24.04 25.4837 23.9787C26.1572 23.7673 26.6431 23.1663 26.6431 22.4574L26.6454 19.806V14.9655H28.51C28.5118 15.141 28.5306 15.3123 28.5654 15.4782C28.7062 16.1499 29.1047 16.7327 29.6594 17.13C30.1431 17.4766 30.7454 17.682 31.3981 17.682C31.3986 17.682 31.4039 17.682 31.4035 17.6816V18.1589H31.4035Z" fill="#6AB240"/>
</g>
<defs>
<clipPath id="clip0_398_12647">
<rect width="20" height="19" fill="white" transform="translate(16.3867 10.8901)"/>
</clipPath>
</defs>
</svg>
