<svg width="31" height="31" viewBox="0 0 31 31" fill="none" xmlns="http://www.w3.org/2000/svg">
<path d="M18.083 1.61426C18.6179 1.61426 19.0516 2.04813 19.0518 2.58301C19.0518 3.11803 18.618 3.55176 18.083 3.55176H16.4688V4.23438C18.731 4.40646 20.8252 5.17782 22.5957 6.3877L23.8564 5.12793C24.2348 4.74961 24.8482 4.74961 25.2266 5.12793C25.6047 5.50621 25.6047 6.11879 25.2266 6.49707L24.1143 7.6084C26.5626 9.90592 28.0938 13.1696 28.0938 16.792C28.0936 23.7472 22.4552 29.3857 15.5 29.3857C8.54477 29.3857 2.90643 23.7472 2.90625 16.792C2.90625 13.1698 4.43676 9.90589 6.88477 7.6084L5.77344 6.49707C5.39533 6.11879 5.39533 5.50621 5.77344 5.12793C6.15176 4.74961 6.76523 4.74961 7.14355 5.12793L8.40332 6.3877C10.174 5.17756 12.2688 4.40648 14.5312 4.23438V3.55176H12.917C12.382 3.55176 11.9482 3.11803 11.9482 2.58301C11.9484 2.04813 12.3821 1.61426 12.917 1.61426H18.083ZM15.5 6.13574C9.61472 6.13574 4.84375 10.9067 4.84375 16.792C4.84393 22.6771 9.61482 27.4482 15.5 27.4482C21.3852 27.4482 26.1561 22.6771 26.1562 16.792C26.1562 10.9067 21.3853 6.13574 15.5 6.13574ZM15.5 11.3018C16.0349 11.3018 16.4686 11.7356 16.4688 12.2705V17.0361L18.7686 19.3359C19.1467 19.7143 19.1468 20.3278 18.7686 20.7061C18.3903 21.0843 17.7768 21.0842 17.3984 20.7061L14.8154 18.1221C14.6338 17.9404 14.5313 17.6944 14.5312 17.4375V12.2705C14.5314 11.7356 14.9651 11.3018 15.5 11.3018Z" fill="#161616"/>
</svg>
