<svg width="40" height="40" viewBox="0 0 40 40" fill="none" xmlns="http://www.w3.org/2000/svg">
<path d="M20 0.25C30.9088 0.25 39.75 9.04771 39.75 19.8975C39.75 30.7472 30.9088 39.5449 20 39.5449C9.09118 39.5449 0.250033 30.7472 0.25 19.8975C0.25 9.04771 9.09116 0.25 20 0.25Z" fill="#61A23C" stroke="white" stroke-width="0.5"/>
<path d="M30 13.7254C29.2563 14.05 28.4637 14.2651 27.6375 14.3696C28.4875 13.8647 29.1363 13.0713 29.4412 12.115C28.6488 12.585 27.7738 12.9171 26.8412 13.1024C26.0887 12.3052 25.0162 11.8115 23.8462 11.8115C21.5763 11.8115 19.7487 13.6446 19.7487 15.8917C19.7487 16.2151 19.7762 16.526 19.8438 16.8219C16.435 16.6565 13.4188 15.0312 11.3925 12.5552C11.0387 13.1658 10.8313 13.8647 10.8313 14.6171C10.8313 16.0298 11.5625 17.2821 12.6525 18.0071C11.9937 17.9946 11.3475 17.8044 10.8 17.5047C10.8 17.5171 10.8 17.5333 10.8 17.5494C10.8 19.5317 12.2212 21.1782 14.085 21.5575C13.7512 21.6483 13.3875 21.6918 13.01 21.6918C12.7475 21.6918 12.4825 21.6769 12.2337 21.6222C12.765 23.2376 14.2725 24.4252 16.065 24.4638C14.67 25.5494 12.8988 26.2036 10.9813 26.2036C10.645 26.2036 10.3225 26.1886 10 26.1476C11.8162 27.3128 13.9688 27.9782 16.29 27.9782C23.835 27.9782 27.96 21.7602 27.96 16.3705C27.96 16.1902 27.9538 16.0161 27.945 15.8432C28.7588 15.2687 29.4425 14.5511 30 13.7254Z" fill="white"/>
</svg>
