<svg width="12" height="12" viewBox="0 0 12 12" fill="none" xmlns="http://www.w3.org/2000/svg">
<g clip-path="url(#clip0_682_889)">
<path d="M11.2508 3.75C11.2508 3.25272 11.0533 2.77581 10.7016 2.42417C10.35 2.07254 9.8731 1.875 9.37582 1.875H2.25082C1.82026 1.87526 1.40291 2.0237 1.06888 2.29537C0.73485 2.56704 0.504496 2.94539 0.416517 3.36687C0.328538 3.78834 0.388294 4.22726 0.585747 4.60987C0.783201 4.99248 1.10632 5.29548 1.50082 5.46797V9.375C1.50082 9.57391 1.57984 9.76468 1.72049 9.90533C1.86114 10.046 2.05191 10.125 2.25082 10.125H9.37582C9.57473 10.125 9.7655 10.046 9.90615 9.90533C10.0468 9.76468 10.1258 9.57391 10.1258 9.375V5.46797C10.4599 5.32177 10.7442 5.08147 10.944 4.77639C11.1437 4.47131 11.2504 4.11467 11.2508 3.75ZM2.25082 5.625C2.35027 5.625 2.44566 5.58549 2.51598 5.51516C2.58631 5.44484 2.62582 5.34946 2.62582 5.25C2.62582 5.15054 2.58631 5.05516 2.51598 4.98484C2.44566 4.91451 2.35027 4.875 2.25082 4.875C1.95245 4.875 1.6663 4.75647 1.45532 4.5455C1.24434 4.33452 1.12582 4.04837 1.12582 3.75C1.12582 3.45163 1.24434 3.16548 1.45532 2.9545C1.6663 2.74353 1.95245 2.625 2.25082 2.625H6.75082C7.04919 2.625 7.33534 2.74353 7.54631 2.9545C7.75729 3.16548 7.87582 3.45163 7.87582 3.75C7.87582 4.04837 7.75729 4.33452 7.54631 4.5455C7.33534 4.75647 7.04919 4.875 6.75082 4.875C6.65136 4.875 6.55598 4.91451 6.48565 4.98484C6.41533 5.05516 6.37582 5.15054 6.37582 5.25C6.37582 5.34946 6.41533 5.44484 6.48565 5.51516C6.55598 5.58549 6.65136 5.625 6.75082 5.625V9.375H2.25082V5.625ZM9.37582 4.875C9.27636 4.875 9.18098 4.91451 9.11065 4.98484C9.04033 5.05516 9.00082 5.15054 9.00082 5.25C9.00082 5.34946 9.04033 5.44484 9.11065 5.51516C9.18098 5.58549 9.27636 5.625 9.37582 5.625V9.375H7.50082V5.46797C7.76001 5.3548 7.99023 5.18446 8.17427 4.96971C8.3583 4.75496 8.49137 4.50137 8.56351 4.2279C8.63565 3.95444 8.645 3.6682 8.59085 3.39062C8.5367 3.11303 8.42045 2.8513 8.25082 2.625H9.37582C9.67419 2.625 9.96033 2.74353 10.1713 2.9545C10.3823 3.16548 10.5008 3.45163 10.5008 3.75C10.5008 4.04837 10.3823 4.33452 10.1713 4.5455C9.96033 4.75647 9.67419 4.875 9.37582 4.875Z" fill="#52545B"/>
</g>
<defs>
<clipPath id="clip0_682_889">
<rect width="12" height="12" fill="white"/>
</clipPath>
</defs>
</svg>
