<svg width="32" height="32" viewBox="0 0 32 32" fill="none" xmlns="http://www.w3.org/2000/svg">
<rect width="32.0028" height="32" rx="10" fill="#C2E66E"/>
<circle cx="19.7464" cy="23.5323" r="0.301853" fill="black"/>
<circle cx="24.4137" cy="15.7596" r="0.301853" fill="black"/>
<circle cx="10.6673" cy="22.669" r="0.301853" fill="black"/>
<circle cx="21.3353" cy="12.8342" r="0.301853" fill="black"/>
<circle cx="14.0012" cy="22.0022" r="0.301853" fill="black"/>
<circle cx="20.6688" cy="9.33377" r="0.301853" fill="black"/>
<circle cx="11.8341" cy="12.0008" r="0.301853" fill="black"/>
<circle cx="8.49399" cy="11.8076" r="0.301853" fill="black"/>
<circle cx="10.334" cy="18.8351" r="0.301853" fill="black"/>
<circle cx="16.3463" cy="16.3663" r="0.301853" fill="black"/>
<path d="M12.6676 18.0017C13.7724 18.0017 14.6679 17.1061 14.6679 16.0014C14.6679 14.8967 13.7724 14.0011 12.6676 14.0011C11.5629 14.0011 10.6674 14.8967 10.6674 16.0014C10.6674 17.1061 11.5629 18.0017 12.6676 18.0017Z" stroke="black" stroke-miterlimit="10" stroke-linecap="round" stroke-linejoin="round"/>
<circle cx="12.3456" cy="16.3233" r="0.301853" fill="black"/>
<circle cx="14.6678" cy="19.3352" r="0.301853" fill="black"/>
<circle cx="11.6789" cy="9.01175" r="0.301853" fill="black"/>
<circle cx="15.0011" cy="13.3457" r="0.301853" fill="black"/>
<circle cx="9.33384" cy="15.6565" r="0.301853" fill="black"/>
<circle cx="18.3465" cy="13.6563" r="0.301853" fill="black"/>
<path d="M10.1309 23.9297C10.3016 23.9771 10.4816 24.0025 10.6674 24.0025C11.7722 24.0025 12.6677 23.1069 12.6677 22.0022C12.6677 21.5205 12.4974 21.0785 12.2137 20.7332" stroke="black" stroke-miterlimit="10" stroke-linecap="round" stroke-linejoin="round"/>
<path d="M9.58752 20.3182C9.03389 20.6739 8.66711 21.2952 8.66711 22.0022C8.66711 22.4164 8.79301 22.8011 9.00857 23.1203" stroke="black" stroke-miterlimit="10" stroke-linecap="round" stroke-linejoin="round"/>
<path d="M13.0706 19.8731L13.0712 19.872L13.0706 19.8731Z" stroke="black" stroke-miterlimit="10" stroke-linecap="round" stroke-linejoin="round"/>
<path d="M23.2273 21.9871C24.0416 21.8773 24.6694 21.1796 24.6694 20.3352C24.6694 20.0573 24.6014 19.7952 24.4811 19.5648" stroke="black" stroke-miterlimit="10" stroke-linecap="round" stroke-linejoin="round"/>
<path d="M22.8027 19.9761C22.9217 19.9964 23.0441 20.007 23.1689 20.007C24.3657 20.007 25.3359 19.0368 25.3359 17.84C25.3359 17.5067 25.2606 17.191 25.1262 16.9089" stroke="black" stroke-miterlimit="10" stroke-linecap="round" stroke-linejoin="round"/>
<path d="M21.2996 23.3354C21.3115 23.3356 21.3235 23.3357 21.3354 23.3357C22.4402 23.3357 23.3357 22.4402 23.3357 21.3355C23.3357 20.5806 22.9176 19.9235 22.3003 19.5829" stroke="black" stroke-miterlimit="10" stroke-linecap="round" stroke-linejoin="round"/>
<path d="M17.1697 23.7786C17.4974 24.5593 18.2689 25.1076 19.1686 25.1076C20.3654 25.1076 21.3356 24.1374 21.3356 22.9406C21.3356 22.2354 20.9988 21.609 20.4773 21.2133" stroke="black" stroke-miterlimit="10" stroke-linecap="round" stroke-linejoin="round"/>
<path d="M23.0024 17.1688C23.259 17.2758 23.5405 17.3349 23.8358 17.3349C25.0326 17.3349 26.0028 16.3647 26.0028 15.1679C26.0028 13.9711 25.0326 13.0009 23.8358 13.0009C23.3752 13.0009 22.9482 13.1446 22.5972 13.3896" stroke="black" stroke-miterlimit="10" stroke-linecap="round" stroke-linejoin="round"/>
<path d="M24.8656 13.2608C24.9542 13.0243 25.0026 12.7682 25.0026 12.5008C25.0026 11.3041 24.0324 10.3339 22.8356 10.3339C22.6252 10.3339 22.4218 10.3638 22.2295 10.4198" stroke="black" stroke-miterlimit="10" stroke-linecap="round" stroke-linejoin="round"/>
<path d="M21.7979 11.0972C22.1299 10.7679 22.3356 10.3112 22.3356 9.80659C22.3356 8.80267 21.5218 7.98883 20.5179 7.98883C19.8038 7.98883 19.186 8.40052 18.8887 8.99947" stroke="black" stroke-miterlimit="10" stroke-linecap="round" stroke-linejoin="round"/>
<path d="M19.4404 14.7238C19.7541 14.9004 20.1163 15.0012 20.5019 15.0012C21.6987 15.0012 22.6689 14.031 22.6689 12.8342C22.6689 11.6374 21.6987 10.6672 20.5019 10.6672C19.8093 10.6672 19.1926 10.9922 18.7959 11.4979" stroke="black" stroke-miterlimit="10" stroke-linecap="round" stroke-linejoin="round"/>
<path d="M22.4627 15.0296C22.337 14.7974 22.1916 14.5775 22.0286 14.3721" stroke="black" stroke-miterlimit="10" stroke-linecap="round" stroke-linejoin="round"/>
<path d="M15.4751 20.4991C16.2744 21.2258 17.3364 21.6688 18.5018 21.6688C20.9874 21.6688 23.0024 19.6538 23.0024 17.1682C23.0024 16.8945 22.978 16.6264 22.9312 16.3662" stroke="black" stroke-miterlimit="10" stroke-linecap="round" stroke-linejoin="round"/>
<path d="M15.5696 23.8168C15.7987 23.9355 16.0589 24.0025 16.3348 24.0025C17.2554 24.0025 18.0018 23.2562 18.0018 22.3356C18.0018 22.0797 17.9441 21.8373 17.841 21.6206" stroke="black" stroke-miterlimit="10" stroke-linecap="round" stroke-linejoin="round"/>
<path d="M14.3053 25.1818C14.7023 25.6804 15.3145 26 16.0014 26C16.8725 26 17.6235 25.486 17.9678 24.7448" stroke="black" stroke-miterlimit="10" stroke-linecap="round" stroke-linejoin="round"/>
<path d="M11.4423 23.8468C11.7268 24.7117 12.541 25.336 13.5011 25.336C14.6979 25.336 15.6681 24.3658 15.6681 23.169C15.6681 22.9594 15.6383 22.7567 15.5828 22.565" stroke="black" stroke-miterlimit="10" stroke-linecap="round" stroke-linejoin="round"/>
<path d="M12.5013 22.802C12.8822 23.1344 13.3804 23.3357 13.9256 23.3357C15.1224 23.3357 16.0925 22.3655 16.0925 21.1687C16.0925 21.0997 16.0893 21.0316 16.083 20.9642" stroke="black" stroke-miterlimit="10" stroke-linecap="round" stroke-linejoin="round"/>
<path d="M7.55224 18.4249C7.41246 18.698 7.33362 19.0074 7.33362 19.3352C7.33362 20.2577 7.95805 21.0342 8.80727 21.2654" stroke="black" stroke-miterlimit="10" stroke-linecap="round" stroke-linejoin="round"/>
<path d="M7.65214 13.5342C6.68255 13.9335 6 14.8877 6 16.0013C6 17.4743 7.19409 18.6684 8.66705 18.6684C8.78276 18.6684 8.8967 18.661 9.00851 18.6467" stroke="black" stroke-miterlimit="10" stroke-linecap="round" stroke-linejoin="round"/>
<path d="M11.0315 10.8207C10.6346 10.3209 10.0216 10.0005 9.33373 10.0005C8.13694 10.0005 7.16675 10.9707 7.16675 12.1675C7.16675 13.1657 7.84177 14.0063 8.76025 14.2577" stroke="black" stroke-miterlimit="10" stroke-linecap="round" stroke-linejoin="round"/>
<path d="M13.6911 8.26377C13.3364 7.70461 12.7119 7.3335 12.0008 7.3335C10.896 7.3335 10.0005 8.22903 10.0005 9.33378C10.0005 9.63394 10.0667 9.91865 10.1851 10.1742" stroke="black" stroke-miterlimit="10" stroke-linecap="round" stroke-linejoin="round"/>
<path d="M16.5708 7.38192C16.3103 6.57984 15.5568 6 14.6679 6C13.7454 6 12.9689 6.62443 12.7377 7.47361" stroke="black" stroke-miterlimit="10" stroke-linecap="round" stroke-linejoin="round"/>
<path d="M19.9603 8.07595C19.763 7.08237 18.8864 6.33337 17.8349 6.33337C17.2611 6.33337 16.7395 6.55638 16.3518 6.92042" stroke="black" stroke-miterlimit="10" stroke-linecap="round" stroke-linejoin="round"/>
<path d="M14.1865 7.87036C13.2722 8.46485 12.6676 9.4955 12.6676 10.6673C12.6676 10.7236 12.669 10.7796 12.6717 10.8352" stroke="black" stroke-miterlimit="10" stroke-linecap="round" stroke-linejoin="round"/>
<path d="M19.3167 11.0199C19.3289 10.904 19.3351 10.7864 19.3351 10.6673C19.3351 8.82606 17.8425 7.3335 16.0013 7.3335C15.8513 7.3335 15.7036 7.3434 15.5588 7.36259" stroke="black" stroke-miterlimit="10" stroke-linecap="round" stroke-linejoin="round"/>
<path d="M13.9519 12.3725C13.7403 11.3976 12.8726 10.6672 11.8342 10.6672C10.6374 10.6672 9.66724 11.6374 9.66724 12.8342C9.66724 13.2754 9.79913 13.6859 10.0256 14.0283" stroke="black" stroke-miterlimit="10" stroke-linecap="round" stroke-linejoin="round"/>
<path d="M11.0844 14.7787C10.7904 14.3051 10.2656 13.9897 9.66716 13.9897C8.74655 13.9897 8.00024 14.736 8.00024 15.6566C8.00024 16.5599 8.71878 17.2954 9.61548 17.3227" stroke="black" stroke-miterlimit="10" stroke-linecap="round" stroke-linejoin="round"/>
<path d="M10.7929 16.7004C9.77456 16.8778 9.00037 17.766 9.00037 18.8351C9.00037 20.0319 9.97056 21.0021 11.1673 21.0021C12.3641 21.0021 13.3343 20.0319 13.3343 18.8351C13.3343 18.5177 13.2661 18.2163 13.1435 17.9447" stroke="black" stroke-miterlimit="10" stroke-linecap="round" stroke-linejoin="round"/>
<path d="M13.0706 19.8724C13.4357 20.3561 14.0153 20.6687 14.668 20.6687C15.7727 20.6687 16.6683 19.7732 16.6683 18.6684C16.6683 18.4229 16.624 18.1877 16.5431 17.9704" stroke="black" stroke-miterlimit="10" stroke-linecap="round" stroke-linejoin="round"/>
<path d="M14.3203 17.1286C14.6765 17.6797 15.2964 18.0446 16.0015 18.0446C17.1062 18.0446 18.0018 17.149 18.0018 16.0443C18.0018 15.1487 17.4131 14.3905 16.6016 14.1356" stroke="black" stroke-miterlimit="10" stroke-linecap="round" stroke-linejoin="round"/>
<path d="M14.5288 15.2666C14.6786 15.3109 14.8372 15.3346 15.0014 15.3346C15.922 15.3346 16.6683 14.5883 16.6683 13.6677C16.6683 12.7471 15.922 12.0008 15.0014 12.0008C14.0808 12.0008 13.3345 12.7471 13.3345 13.6677C13.3345 13.8319 13.3582 13.9905 13.4025 14.1404" stroke="black" stroke-miterlimit="10" stroke-linecap="round" stroke-linejoin="round"/>
<path d="M17.8705 15.3303C17.9138 15.3331 17.9575 15.3345 18.0016 15.3345C19.1064 15.3345 20.0019 14.439 20.0019 13.3343C20.0019 12.2295 19.1064 11.334 18.0016 11.334C17.1967 11.334 16.5029 11.8094 16.1855 12.4947" stroke="black" stroke-miterlimit="10" stroke-linecap="round" stroke-linejoin="round"/>
</svg>
