<svg width="32" height="32" viewBox="0 0 32 32" fill="none" xmlns="http://www.w3.org/2000/svg">
<g clip-path="url(#clip0_1513_5332)">
<path d="M12.2319 16.7537C12.1806 16.4968 10.413 7.65869 10.3569 7.37862C10.2693 6.94044 9.88452 6.625 9.43764 6.625H7.56264C7.11577 6.625 6.73095 6.94044 6.64339 7.37862C6.58645 7.66344 4.81702 16.5106 4.76839 16.7536C4.66683 17.2614 4.99614 17.7553 5.50383 17.8568C6.01152 17.9583 6.50545 17.629 6.60695 17.1213L7.2062 14.125H9.79408L10.3933 17.1214C10.4949 17.6293 10.989 17.9584 11.4965 17.8568C12.0041 17.7553 12.3335 17.2614 12.2319 16.7537ZM7.5812 12.25L8.3312 8.5H8.66908L9.41908 12.25H7.5812Z" fill="currentColor"/>
<path d="M27.25 14.125H24.4375V13.1875C24.4375 12.6697 24.0177 12.25 23.5 12.25C22.9823 12.25 22.5625 12.6697 22.5625 13.1875V14.125H19.75C19.2322 14.125 18.8125 14.5447 18.8125 15.0625C18.8125 15.5803 19.2322 16 19.75 16H19.9769C20.5111 17.7257 21.3153 19.0504 22.2003 20.1119C21.48 20.7708 20.7511 21.3111 20.1019 21.8304C19.6976 22.1539 19.632 22.7438 19.9555 23.1481C20.2791 23.5526 20.8691 23.6178 21.2732 23.2945C21.9261 22.7722 22.7086 22.1917 23.5 21.4655C24.2919 22.1923 25.0759 22.7738 25.7268 23.2945C26.1311 23.618 26.7211 23.5524 27.0445 23.1481C27.3679 22.7438 27.3024 22.1538 26.8981 21.8304C26.2506 21.3122 25.5208 20.7714 24.7997 20.1119C25.6847 19.0504 26.4889 17.7257 27.0231 16H27.25C27.7677 16 28.1875 15.5803 28.1875 15.0625C28.1875 14.5447 27.7677 14.125 27.25 14.125ZM23.5 18.7341C22.9016 17.9828 22.3632 17.0861 21.9573 15.9937H25.0426C24.6368 17.0861 24.0984 17.9828 23.5 18.7341Z" fill="currentColor"/>
<path d="M29.1875 5.6875H15.6624L15.2606 2.46362C15.085 1.05912 13.8853 0 12.4698 0H2.8125C1.26169 0 0 1.26169 0 2.8125V23.5C0 25.0508 1.26169 26.3125 2.8125 26.3125H10.7177L11.1144 29.5364C11.2897 30.9381 12.4894 32 13.9052 32H29.1875C30.7383 32 32 30.7383 32 29.1875V8.5C32 6.94919 30.7383 5.6875 29.1875 5.6875ZM2.8125 24.4375C2.29556 24.4375 1.875 24.0169 1.875 23.5V2.8125C1.875 2.29556 2.29556 1.875 2.8125 1.875H12.4698C12.9416 1.875 13.3416 2.228 13.4 2.69587C13.5359 3.78562 15.9755 23.3565 16.1103 24.4375H2.8125ZM12.9202 28.8594L12.6068 26.3125H15.1221L12.9202 28.8594ZM30.125 29.1875C30.125 29.7044 29.7044 30.125 29.1875 30.125H14.3046L17.8736 25.9967C18.0563 25.7906 18.1382 25.5171 18.1004 25.2452L15.8962 7.5625H29.1875C29.7044 7.5625 30.125 7.98306 30.125 8.5V29.1875Z" fill="currentColor"/>
</g>
<defs>
<clipPath id="clip0_1513_5332">
<rect width="32" height="32" fill="white"/>
</clipPath>
</defs>
</svg>
