<svg width="24" height="24" viewBox="0 0 24 24" fill="none" xmlns="http://www.w3.org/2000/svg">
<path fill-rule="evenodd" clip-rule="evenodd" d="M12.7109 16.4219C12.7109 16.1112 12.9628 15.8594 13.2734 15.8594H18.0562C18.3668 15.8594 18.6187 16.1112 18.6187 16.4219C18.6187 16.7325 18.3668 16.9844 18.0562 16.9844H13.2734C12.9628 16.9844 12.7109 16.7325 12.7109 16.4219Z" fill="currentColor"/>
<path d="M14.653 4.95028C13.8867 4.34975 12.9158 4.30983 12.3151 5.07494L11.4858 6.13251L15.4584 9.11202L16.223 8.13704C16.8238 7.37029 16.5523 6.43895 15.786 5.83843L14.653 4.95028Z" fill="currentColor"/>
<path d="M14.7641 9.9975L10.7914 7.01799L5.55814 13.6917C5.33234 13.9809 5.24919 14.3558 5.33234 14.7118L5.92252 17.25L8.52861 17.2166C8.89544 17.2125 9.24025 17.0422 9.46605 16.7538L14.7641 9.9975Z" fill="currentColor"/>
</svg>
