<svg width="30" height="30" viewBox="0 0 30 30" fill="none" xmlns="http://www.w3.org/2000/svg">
<g clip-path="url(#clip0_219_1799)">
<mask id="path-1-outside-1_219_1799" maskUnits="userSpaceOnUse" x="-0.52832" y="-0.530762" width="31" height="31" fill="black">
<rect fill="white" x="-0.52832" y="-0.530762" width="31" height="31"/>
<path d="M24.3957 17.2658C24.6207 17.2673 24.8386 17.1868 25.0087 17.0394C25.1787 16.892 25.2893 16.6878 25.3197 16.4648C25.4557 15.4945 25.4557 14.5101 25.3197 13.5398C25.2898 13.3164 25.1794 13.1116 25.0094 12.9637C24.8393 12.8158 24.6211 12.735 24.3957 12.7365H23.3727C23.1786 12.019 22.8924 11.3297 22.5213 10.6857L23.2449 9.96088C23.4053 9.80247 23.5024 9.59105 23.5182 9.36618C23.5339 9.14132 23.4672 8.91842 23.3305 8.7392C22.7411 7.95646 22.0449 7.26023 21.2621 6.67084C21.083 6.53329 20.8598 6.46589 20.6345 6.48132C20.4092 6.49675 20.1973 6.59395 20.0387 6.75463L19.315 7.47827C18.6712 7.10707 17.9818 6.82109 17.2643 6.62749V5.60385C17.2658 5.379 17.1855 5.16126 17.0383 4.99125C16.8912 4.82123 16.6872 4.71054 16.4645 4.67983C15.4942 4.54447 14.5098 4.54447 13.5395 4.67983C13.3161 4.70976 13.1113 4.82011 12.9634 4.9902C12.8155 5.1603 12.7347 5.37847 12.7361 5.60385V6.62749C12.0186 6.82119 11.3293 7.10717 10.6854 7.47827L9.96055 6.75463C9.80214 6.59427 9.59072 6.49712 9.36585 6.48138C9.14099 6.46563 8.91809 6.53236 8.73887 6.66909C7.95613 7.25847 7.2599 7.9547 6.67051 8.73745C6.53296 8.91654 6.46556 9.13972 6.48099 9.36501C6.49642 9.59031 6.59361 9.80221 6.7543 9.96088L7.47793 10.6845C7.1068 11.3285 6.82063 12.0178 6.62657 12.7353H5.60352C5.37867 12.7338 5.16093 12.8141 4.99091 12.9612C4.8209 13.1084 4.71021 13.3124 4.6795 13.5351C4.54356 14.5054 4.54356 15.4898 4.6795 16.4601C4.70943 16.6835 4.81978 16.8883 4.98987 17.0362C5.15997 17.1841 5.37814 17.2648 5.60352 17.2634H6.62657C6.82063 17.9809 7.1068 18.6702 7.47793 19.3142L6.7543 20.039C6.59394 20.1974 6.49679 20.4088 6.48105 20.6337C6.4653 20.8586 6.53203 21.0815 6.66876 21.2607C7.25814 22.0434 7.95437 22.7397 8.73711 23.329C8.91626 23.4665 9.13941 23.5338 9.36467 23.5184C9.58993 23.5029 9.80182 23.4058 9.96055 23.2453L10.6836 22.5216C11.3276 22.8926 12.0169 23.1786 12.7344 23.3724V24.396C12.7329 24.621 12.8132 24.8388 12.9605 25.0088C13.1078 25.1788 13.3119 25.2895 13.5348 25.3201C14.505 25.456 15.4895 25.456 16.4598 25.3201C16.6832 25.2901 16.888 25.1798 17.0359 25.0097C17.1837 24.8396 17.2645 24.6214 17.2631 24.396V23.3724C17.9806 23.1788 18.67 22.8928 19.3139 22.5216L20.0387 23.2453C20.1971 23.4056 20.4085 23.5028 20.6334 23.5185C20.8582 23.5343 21.0811 23.4675 21.2604 23.3308C22.0432 22.7416 22.7395 22.0453 23.3287 21.2624C23.4663 21.0834 23.5337 20.8602 23.5182 20.6349C23.5028 20.4096 23.4056 20.1977 23.2449 20.039L22.5213 19.3154C22.8922 18.6714 23.1782 17.9821 23.3721 17.2646L24.3957 17.2658ZM22.5477 16.6945C22.3539 17.5616 22.0111 18.3885 21.5346 19.1384C21.4775 19.2283 21.4527 19.335 21.4643 19.4408C21.4759 19.5467 21.5232 19.6455 21.5984 19.7208L22.5793 20.7017C22.0439 21.4124 21.4116 22.0445 20.7008 22.5796L19.7205 21.5994C19.6452 21.524 19.5465 21.4766 19.4406 21.4649C19.3347 21.4532 19.2281 21.4779 19.1381 21.5349C18.3883 22.0116 17.5613 22.3544 16.6941 22.548C16.5902 22.5713 16.4973 22.6293 16.4307 22.7125C16.3641 22.7957 16.3279 22.8991 16.3279 23.0056V24.3925C15.4466 24.5153 14.5526 24.5153 13.6713 24.3925V23.0056C13.6713 22.8991 13.6351 22.7957 13.5685 22.7125C13.502 22.6293 13.409 22.5713 13.3051 22.548C12.438 22.3542 11.6111 22.0114 10.8611 21.5349C10.7712 21.4778 10.6646 21.453 10.5587 21.4646C10.4529 21.4762 10.3541 21.5236 10.2787 21.5988L9.29786 22.5796C8.58823 22.0441 7.9571 21.4117 7.42286 20.7011L8.40313 19.7208C8.47845 19.6455 8.52587 19.5468 8.53758 19.4409C8.5493 19.3351 8.52461 19.2284 8.46758 19.1384C7.99087 18.3886 7.64807 17.5617 7.4545 16.6945C7.43119 16.5905 7.37317 16.4976 7.28998 16.431C7.2068 16.3645 7.10342 16.3282 6.99688 16.3283H5.60704C5.48399 15.447 5.48399 14.5529 5.60704 13.6716H6.99336C7.0999 13.6717 7.20328 13.6354 7.28647 13.5689C7.36965 13.5023 7.42768 13.4094 7.45098 13.3054C7.64468 12.4383 7.98747 11.6113 8.46407 10.8615C8.52109 10.7715 8.54578 10.6648 8.53406 10.5589C8.52235 10.4531 8.47493 10.3544 8.39961 10.279L7.41934 9.29819C7.95492 8.58856 8.58723 7.95743 9.29786 7.42319L10.2781 8.40405C10.3535 8.47927 10.4523 8.52658 10.5581 8.53819C10.664 8.5498 10.7707 8.52501 10.8606 8.46792C11.6105 7.9914 12.4374 7.64862 13.3045 7.45483C13.4085 7.43152 13.5014 7.3735 13.5679 7.29031C13.6345 7.20713 13.6708 7.10375 13.6707 6.99721V5.60737C14.552 5.48462 15.4461 5.48462 16.3273 5.60737V6.9937C16.3273 7.10024 16.3635 7.20362 16.4301 7.2868C16.4967 7.36998 16.5896 7.42801 16.6936 7.45131C17.5607 7.6451 18.3876 7.98788 19.1375 8.4644C19.2274 8.5215 19.3341 8.54628 19.4399 8.53468C19.5458 8.52307 19.6445 8.47576 19.7199 8.40053L20.7008 7.41967C21.4114 7.95504 22.0436 8.58736 22.5787 9.29819L21.5984 10.2785C21.5231 10.3538 21.4757 10.4525 21.464 10.5584C21.4523 10.6642 21.477 10.7709 21.534 10.8609C22.0107 11.6107 22.3535 12.4376 22.5471 13.3048C22.5704 13.4088 22.6284 13.5017 22.7116 13.5683C22.7948 13.6348 22.8982 13.6711 23.0047 13.671H24.3922C24.5152 14.5523 24.5152 15.4464 24.3922 16.3277H23.0053C22.8987 16.3277 22.7952 16.364 22.712 16.4307C22.6288 16.4974 22.5709 16.5904 22.5477 16.6945ZM14.9996 9.46225C13.9044 9.46225 12.8337 9.78703 11.923 10.3955C11.0124 11.004 10.3026 11.8689 9.88345 12.8808C9.46432 13.8926 9.35465 15.0061 9.56832 16.0803C9.782 17.1545 10.3094 18.1412 11.0839 18.9157C11.8583 19.6901 12.8451 20.2176 13.9193 20.4312C14.9935 20.6449 16.1069 20.5352 17.1188 20.1161C18.1307 19.697 18.9955 18.9872 19.604 18.0765C20.2125 17.1659 20.5373 16.0952 20.5373 14.9999C20.5356 13.5318 19.9516 12.1242 18.9135 11.0861C17.8753 10.0479 16.4678 9.46396 14.9996 9.46225ZM14.9996 19.599C14.0897 19.599 13.2003 19.3291 12.4438 18.8236C11.6872 18.3181 11.0976 17.5996 10.7495 16.7589C10.4013 15.9183 10.3103 14.9933 10.4879 14.1009C10.6655 13.2085 11.1037 12.3888 11.7472 11.7455C12.3907 11.1022 13.2105 10.6642 14.1029 10.4868C14.9953 10.3095 15.9203 10.4007 16.7608 10.7491C17.6014 11.0974 18.3198 11.6872 18.8251 12.4439C19.3304 13.2005 19.6 14.0901 19.5998 14.9999C19.5984 16.2196 19.1133 17.3888 18.2509 18.2512C17.3885 19.1136 16.2192 19.5987 14.9996 19.6001V19.599ZM4.99297 5.79604C4.52379 6.30554 4.0944 6.85031 3.7086 7.42553C3.67428 7.4767 3.63022 7.52061 3.57893 7.55475C3.52765 7.58889 3.47014 7.6126 3.40969 7.62451C3.34924 7.63643 3.28703 7.63632 3.22663 7.6242C3.16622 7.61207 3.10879 7.58817 3.05762 7.55385C3.00645 7.51953 2.96254 7.47547 2.9284 7.42419C2.89426 7.3729 2.87056 7.31539 2.85864 7.25494C2.84672 7.19449 2.84683 7.13229 2.85896 7.07188C2.87108 7.01147 2.89498 6.95404 2.9293 6.90288C3.34235 6.28796 3.80189 5.70559 4.30391 5.16088C4.3891 5.07346 4.50504 5.02271 4.62706 5.01944C4.74909 5.01616 4.86758 5.06062 4.95733 5.14335C5.04709 5.22609 5.10103 5.34057 5.10769 5.46246C5.11434 5.58435 5.07319 5.70402 4.99297 5.79604ZM6.59551 3.71596C6.52463 3.61392 6.49716 3.48792 6.51913 3.36563C6.54111 3.24335 6.61073 3.13479 6.7127 3.06381C9.22129 1.32248 12.2146 0.415533 15.2679 0.471698C18.3211 0.527863 21.279 1.54429 23.7219 3.3767L23.5643 2.93959C23.5231 2.8229 23.5297 2.69465 23.5827 2.58283C23.6357 2.471 23.7308 2.38468 23.8472 2.34268C23.9636 2.30068 24.0919 2.30641 24.2041 2.35864C24.3163 2.41086 24.4033 2.50532 24.4461 2.62143L25.2025 4.71733C25.2281 4.78815 25.2363 4.86409 25.2263 4.93873C25.2164 5.01337 25.1886 5.08452 25.1453 5.14614C25.102 5.20776 25.0445 5.25805 24.9777 5.29274C24.9108 5.32743 24.8366 5.34552 24.7613 5.34545C24.7336 5.34554 24.706 5.34299 24.6787 5.33784L22.4856 4.94467C22.425 4.93382 22.3671 4.91114 22.3153 4.87793C22.2634 4.84472 22.2186 4.80162 22.1835 4.75111C22.1483 4.70059 22.1234 4.64363 22.1103 4.5835C22.0971 4.52336 22.0959 4.46123 22.1067 4.40063C22.1176 4.34003 22.1403 4.28217 22.1735 4.23034C22.2067 4.17851 22.2498 4.13373 22.3003 4.09855C22.3508 4.06338 22.4078 4.03849 22.4679 4.02533C22.5281 4.01216 22.5902 4.01097 22.6508 4.02182L23.1359 4.10913C20.8508 2.40306 18.0872 1.45854 15.2359 1.40912C12.3846 1.3597 9.58993 2.20789 7.24708 3.83374C7.14501 3.90437 7.01909 3.93164 6.89694 3.90956C6.7748 3.88749 6.66639 3.81786 6.59551 3.71596ZM1.80606 18.2812C1.83564 18.4016 1.8163 18.5289 1.75228 18.635C1.68826 18.7412 1.58476 18.8177 1.46446 18.8478C1.42735 18.8575 1.38915 18.8624 1.35079 18.8624C1.24618 18.8624 1.14459 18.8274 1.0622 18.7629C0.979804 18.6985 0.921335 18.6083 0.896099 18.5068C0.74618 17.9053 0.634821 17.2949 0.5627 16.6792C0.550059 16.5567 0.586176 16.4341 0.663237 16.338C0.740299 16.2418 0.852109 16.1799 0.974479 16.1656C1.09685 16.1513 1.21994 16.1857 1.31712 16.2614C1.4143 16.3371 1.47775 16.4481 1.49376 16.5703C1.56117 17.1467 1.66549 17.7181 1.80606 18.2812ZM0.47188 14.5816C0.489093 13.9981 0.541532 13.4162 0.628911 12.839C0.638145 12.7781 0.659276 12.7197 0.691099 12.667C0.722921 12.6143 0.764812 12.5684 0.814379 12.5319C0.863946 12.4954 0.920218 12.469 0.979983 12.4542C1.03975 12.4395 1.10184 12.4366 1.1627 12.4458C1.22357 12.4551 1.28201 12.4762 1.33471 12.508C1.38741 12.5399 1.43333 12.5817 1.46983 12.6313C1.50634 12.6809 1.53273 12.7372 1.54749 12.7969C1.56225 12.8567 1.5651 12.9188 1.55586 12.9796C1.47413 13.5193 1.42502 14.0635 1.40879 14.6091C1.40514 14.731 1.35414 14.8466 1.26663 14.9315C1.17911 15.0164 1.06197 15.0639 0.940044 15.0638H0.925982C0.80185 15.06 0.684311 15.0071 0.599171 14.9166C0.514032 14.8262 0.468251 14.7057 0.47188 14.5816ZM2.61817 9.38725C2.3788 9.91637 2.1735 10.4603 2.00352 11.0156C1.96664 11.1338 1.88445 11.2327 1.7749 11.2905C1.66536 11.3484 1.53737 11.3605 1.41891 11.3243C1.30045 11.288 1.20115 11.2064 1.14271 11.0972C1.08427 10.9879 1.07145 10.86 1.10704 10.7414C1.28867 10.1475 1.50806 9.56584 1.76387 8.99995C1.78923 8.94385 1.82538 8.8933 1.87027 8.85118C1.91516 8.80906 1.96791 8.77619 2.0255 8.75445C2.08309 8.73272 2.1444 8.72254 2.20593 8.7245C2.26745 8.72645 2.32799 8.74051 2.38409 8.76586C2.44018 8.79122 2.49073 8.82737 2.53285 8.87226C2.57497 8.91715 2.60784 8.9699 2.62958 9.02749C2.65132 9.08508 2.6615 9.14639 2.65954 9.20792C2.65758 9.26945 2.64352 9.32999 2.61817 9.38608V9.38725ZM28.1932 11.7187C28.1631 11.598 28.1822 11.4704 28.2463 11.3638C28.3103 11.2572 28.4141 11.1804 28.5348 11.1503C28.6554 11.1203 28.7831 11.1394 28.8897 11.2034C28.9963 11.2675 29.0731 11.3713 29.1031 11.4919C29.253 12.0934 29.3644 12.7038 29.4365 13.3195C29.4509 13.4428 29.4158 13.5667 29.3389 13.6641C29.262 13.7616 29.1496 13.8245 29.0264 13.8392C29.0081 13.8415 28.9897 13.8427 28.9713 13.8427C28.8566 13.8425 28.7459 13.8002 28.6603 13.7239C28.5746 13.6475 28.52 13.5424 28.5066 13.4285C28.439 12.8524 28.3343 12.2813 28.1932 11.7187ZM29.5273 15.4171C29.5101 16.0006 29.4577 16.5825 29.3703 17.1597C29.3535 17.2705 29.2976 17.3716 29.2127 17.4447C29.1278 17.5178 29.0195 17.558 28.9074 17.5581C28.8837 17.5581 28.86 17.5564 28.8365 17.5529C28.7757 17.5436 28.7172 17.5225 28.6645 17.4907C28.6118 17.4589 28.5659 17.417 28.5294 17.3674C28.4929 17.3178 28.4665 17.2616 28.4517 17.2018C28.437 17.142 28.4341 17.08 28.4434 17.0191C28.526 16.4798 28.5761 15.9361 28.5934 15.3908C28.597 15.2664 28.6499 15.1487 28.7404 15.0633C28.8309 14.978 28.9516 14.9321 29.0759 14.9358C29.2002 14.9394 29.318 14.9923 29.4033 15.0828C29.4886 15.1733 29.5345 15.294 29.5309 15.4183L29.5273 15.4171ZM27.0699 23.097C26.6571 23.7119 26.1977 24.2943 25.6959 24.839C25.6547 24.8862 25.6045 24.9247 25.5482 24.9522C25.4919 24.9797 25.4307 24.9956 25.3681 24.999C25.3056 25.0025 25.243 24.9933 25.184 24.9721C25.125 24.9509 25.0709 24.9181 25.0249 24.8757C24.9788 24.8332 24.9417 24.7819 24.9158 24.7249C24.8899 24.6678 24.8757 24.6062 24.874 24.5436C24.8723 24.4809 24.8832 24.4186 24.906 24.3603C24.9288 24.3019 24.9631 24.2487 25.0068 24.2039C25.476 23.6944 25.9054 23.1496 26.2912 22.5744C26.3255 22.5232 26.3696 22.4794 26.4209 22.4453C26.4721 22.4111 26.5296 22.3875 26.59 22.3756C26.6505 22.3637 26.7126 22.3638 26.773 22.376C26.8334 22.3881 26.8908 22.412 26.9419 22.4463C26.993 22.4807 27.0369 22.5247 27.071 22.576C27.1051 22.6272 27.1288 22.6847 27.1407 22.7452C27.1526 22.8056 27.1524 22.8678 27.1403 22.9281C27.1282 22.9885 27.1042 23.0459 27.0699 23.097ZM28.8928 19.2574C28.7111 19.8512 28.4917 20.4329 28.2359 20.9988C28.1847 21.1121 28.0906 21.2004 27.9743 21.2443C27.858 21.2882 27.729 21.2841 27.6157 21.2329C27.5024 21.1817 27.4141 21.0875 27.3702 20.9712C27.3263 20.8549 27.3304 20.7259 27.3816 20.6126C27.6208 20.0835 27.8259 19.5396 27.9957 18.9843C28.0326 18.8661 28.1148 18.7672 28.2243 18.7094C28.3339 18.6515 28.4619 18.6394 28.5803 18.6756C28.6988 18.7119 28.7981 18.7935 28.8565 18.9027C28.915 19.012 28.9278 19.1399 28.8922 19.2585L28.8928 19.2574ZM23.4037 26.2839C23.4746 26.386 23.5021 26.512 23.4801 26.6343C23.4581 26.7565 23.3885 26.8651 23.2865 26.9361C20.7779 28.6772 17.7846 29.584 14.7315 29.5279C11.6784 29.4719 8.72041 28.4558 6.27735 26.6238L6.43497 27.0603C6.4665 27.1741 6.45392 27.2956 6.39976 27.4005C6.34559 27.5054 6.25382 27.586 6.14279 27.6262C6.03177 27.6664 5.90966 27.6632 5.80088 27.6173C5.69211 27.5714 5.60467 27.4861 5.55606 27.3785L4.79551 25.2826C4.76757 25.2051 4.7605 25.1217 4.77502 25.0407C4.78954 24.9597 4.82514 24.8839 4.87823 24.821C4.93133 24.7581 5.00005 24.7103 5.07748 24.6824C5.15491 24.6545 5.23833 24.6475 5.31934 24.6621L7.51251 25.0552C7.5731 25.0661 7.63097 25.0887 7.6828 25.122C7.73463 25.1552 7.77941 25.1983 7.81458 25.2488C7.84976 25.2993 7.87464 25.3563 7.88781 25.4164C7.90097 25.4765 7.90216 25.5387 7.89131 25.5993C7.88046 25.6599 7.85779 25.7177 7.82457 25.7696C7.79136 25.8214 7.74826 25.8662 7.69775 25.9013C7.64723 25.9365 7.59027 25.9614 7.53014 25.9746C7.47001 25.9877 7.40787 25.9889 7.34727 25.9781L6.86211 25.8914C9.14739 27.5971 11.911 28.5413 14.7622 28.5907C17.6135 28.64 20.4081 27.7918 22.751 26.1662C22.8016 26.131 22.8586 26.1062 22.9188 26.093C22.979 26.0799 23.0411 26.0788 23.1018 26.0898C23.1624 26.1007 23.2203 26.1235 23.2721 26.1568C23.3239 26.1901 23.3686 26.2333 23.4037 26.2839Z"/>
</mask>
<path d="M24.3957 17.2658C24.6207 17.2673 24.8386 17.1868 25.0087 17.0394C25.1787 16.892 25.2893 16.6878 25.3197 16.4648C25.4557 15.4945 25.4557 14.5101 25.3197 13.5398C25.2898 13.3164 25.1794 13.1116 25.0094 12.9637C24.8393 12.8158 24.6211 12.735 24.3957 12.7365H23.3727C23.1786 12.019 22.8924 11.3297 22.5213 10.6857L23.2449 9.96088C23.4053 9.80247 23.5024 9.59105 23.5182 9.36618C23.5339 9.14132 23.4672 8.91842 23.3305 8.7392C22.7411 7.95646 22.0449 7.26023 21.2621 6.67084C21.083 6.53329 20.8598 6.46589 20.6345 6.48132C20.4092 6.49675 20.1973 6.59395 20.0387 6.75463L19.315 7.47827C18.6712 7.10707 17.9818 6.82109 17.2643 6.62749V5.60385C17.2658 5.379 17.1855 5.16126 17.0383 4.99125C16.8912 4.82123 16.6872 4.71054 16.4645 4.67983C15.4942 4.54447 14.5098 4.54447 13.5395 4.67983C13.3161 4.70976 13.1113 4.82011 12.9634 4.9902C12.8155 5.1603 12.7347 5.37847 12.7361 5.60385V6.62749C12.0186 6.82119 11.3293 7.10717 10.6854 7.47827L9.96055 6.75463C9.80214 6.59427 9.59072 6.49712 9.36585 6.48138C9.14099 6.46563 8.91809 6.53236 8.73887 6.66909C7.95613 7.25847 7.2599 7.9547 6.67051 8.73745C6.53296 8.91654 6.46556 9.13972 6.48099 9.36501C6.49642 9.59031 6.59361 9.80221 6.7543 9.96088L7.47793 10.6845C7.1068 11.3285 6.82063 12.0178 6.62657 12.7353H5.60352C5.37867 12.7338 5.16093 12.8141 4.99091 12.9612C4.8209 13.1084 4.71021 13.3124 4.6795 13.5351C4.54356 14.5054 4.54356 15.4898 4.6795 16.4601C4.70943 16.6835 4.81978 16.8883 4.98987 17.0362C5.15997 17.1841 5.37814 17.2648 5.60352 17.2634H6.62657C6.82063 17.9809 7.1068 18.6702 7.47793 19.3142L6.7543 20.039C6.59394 20.1974 6.49679 20.4088 6.48105 20.6337C6.4653 20.8586 6.53203 21.0815 6.66876 21.2607C7.25814 22.0434 7.95437 22.7397 8.73711 23.329C8.91626 23.4665 9.13941 23.5338 9.36467 23.5184C9.58993 23.5029 9.80182 23.4058 9.96055 23.2453L10.6836 22.5216C11.3276 22.8926 12.0169 23.1786 12.7344 23.3724V24.396C12.7329 24.621 12.8132 24.8388 12.9605 25.0088C13.1078 25.1788 13.3119 25.2895 13.5348 25.3201C14.505 25.456 15.4895 25.456 16.4598 25.3201C16.6832 25.2901 16.888 25.1798 17.0359 25.0097C17.1837 24.8396 17.2645 24.6214 17.2631 24.396V23.3724C17.9806 23.1788 18.67 22.8928 19.3139 22.5216L20.0387 23.2453C20.1971 23.4056 20.4085 23.5028 20.6334 23.5185C20.8582 23.5343 21.0811 23.4675 21.2604 23.3308C22.0432 22.7416 22.7395 22.0453 23.3287 21.2624C23.4663 21.0834 23.5337 20.8602 23.5182 20.6349C23.5028 20.4096 23.4056 20.1977 23.2449 20.039L22.5213 19.3154C22.8922 18.6714 23.1782 17.9821 23.3721 17.2646L24.3957 17.2658ZM22.5477 16.6945C22.3539 17.5616 22.0111 18.3885 21.5346 19.1384C21.4775 19.2283 21.4527 19.335 21.4643 19.4408C21.4759 19.5467 21.5232 19.6455 21.5984 19.7208L22.5793 20.7017C22.0439 21.4124 21.4116 22.0445 20.7008 22.5796L19.7205 21.5994C19.6452 21.524 19.5465 21.4766 19.4406 21.4649C19.3347 21.4532 19.2281 21.4779 19.1381 21.5349C18.3883 22.0116 17.5613 22.3544 16.6941 22.548C16.5902 22.5713 16.4973 22.6293 16.4307 22.7125C16.3641 22.7957 16.3279 22.8991 16.3279 23.0056V24.3925C15.4466 24.5153 14.5526 24.5153 13.6713 24.3925V23.0056C13.6713 22.8991 13.6351 22.7957 13.5685 22.7125C13.502 22.6293 13.409 22.5713 13.3051 22.548C12.438 22.3542 11.6111 22.0114 10.8611 21.5349C10.7712 21.4778 10.6646 21.453 10.5587 21.4646C10.4529 21.4762 10.3541 21.5236 10.2787 21.5988L9.29786 22.5796C8.58823 22.0441 7.9571 21.4117 7.42286 20.7011L8.40313 19.7208C8.47845 19.6455 8.52587 19.5468 8.53758 19.4409C8.5493 19.3351 8.52461 19.2284 8.46758 19.1384C7.99087 18.3886 7.64807 17.5617 7.4545 16.6945C7.43119 16.5905 7.37317 16.4976 7.28998 16.431C7.2068 16.3645 7.10342 16.3282 6.99688 16.3283H5.60704C5.48399 15.447 5.48399 14.5529 5.60704 13.6716H6.99336C7.0999 13.6717 7.20328 13.6354 7.28647 13.5689C7.36965 13.5023 7.42768 13.4094 7.45098 13.3054C7.64468 12.4383 7.98747 11.6113 8.46407 10.8615C8.52109 10.7715 8.54578 10.6648 8.53406 10.5589C8.52235 10.4531 8.47493 10.3544 8.39961 10.279L7.41934 9.29819C7.95492 8.58856 8.58723 7.95743 9.29786 7.42319L10.2781 8.40405C10.3535 8.47927 10.4523 8.52658 10.5581 8.53819C10.664 8.5498 10.7707 8.52501 10.8606 8.46792C11.6105 7.9914 12.4374 7.64862 13.3045 7.45483C13.4085 7.43152 13.5014 7.3735 13.5679 7.29031C13.6345 7.20713 13.6708 7.10375 13.6707 6.99721V5.60737C14.552 5.48462 15.4461 5.48462 16.3273 5.60737V6.9937C16.3273 7.10024 16.3635 7.20362 16.4301 7.2868C16.4967 7.36998 16.5896 7.42801 16.6936 7.45131C17.5607 7.6451 18.3876 7.98788 19.1375 8.4644C19.2274 8.5215 19.3341 8.54628 19.4399 8.53468C19.5458 8.52307 19.6445 8.47576 19.7199 8.40053L20.7008 7.41967C21.4114 7.95504 22.0436 8.58736 22.5787 9.29819L21.5984 10.2785C21.5231 10.3538 21.4757 10.4525 21.464 10.5584C21.4523 10.6642 21.477 10.7709 21.534 10.8609C22.0107 11.6107 22.3535 12.4376 22.5471 13.3048C22.5704 13.4088 22.6284 13.5017 22.7116 13.5683C22.7948 13.6348 22.8982 13.6711 23.0047 13.671H24.3922C24.5152 14.5523 24.5152 15.4464 24.3922 16.3277H23.0053C22.8987 16.3277 22.7952 16.364 22.712 16.4307C22.6288 16.4974 22.5709 16.5904 22.5477 16.6945ZM14.9996 9.46225C13.9044 9.46225 12.8337 9.78703 11.923 10.3955C11.0124 11.004 10.3026 11.8689 9.88345 12.8808C9.46432 13.8926 9.35465 15.0061 9.56832 16.0803C9.782 17.1545 10.3094 18.1412 11.0839 18.9157C11.8583 19.6901 12.8451 20.2176 13.9193 20.4312C14.9935 20.6449 16.1069 20.5352 17.1188 20.1161C18.1307 19.697 18.9955 18.9872 19.604 18.0765C20.2125 17.1659 20.5373 16.0952 20.5373 14.9999C20.5356 13.5318 19.9516 12.1242 18.9135 11.0861C17.8753 10.0479 16.4678 9.46396 14.9996 9.46225ZM14.9996 19.599C14.0897 19.599 13.2003 19.3291 12.4438 18.8236C11.6872 18.3181 11.0976 17.5996 10.7495 16.7589C10.4013 15.9183 10.3103 14.9933 10.4879 14.1009C10.6655 13.2085 11.1037 12.3888 11.7472 11.7455C12.3907 11.1022 13.2105 10.6642 14.1029 10.4868C14.9953 10.3095 15.9203 10.4007 16.7608 10.7491C17.6014 11.0974 18.3198 11.6872 18.8251 12.4439C19.3304 13.2005 19.6 14.0901 19.5998 14.9999C19.5984 16.2196 19.1133 17.3888 18.2509 18.2512C17.3885 19.1136 16.2192 19.5987 14.9996 19.6001V19.599ZM4.99297 5.79604C4.52379 6.30554 4.0944 6.85031 3.7086 7.42553C3.67428 7.4767 3.63022 7.52061 3.57893 7.55475C3.52765 7.58889 3.47014 7.6126 3.40969 7.62451C3.34924 7.63643 3.28703 7.63632 3.22663 7.6242C3.16622 7.61207 3.10879 7.58817 3.05762 7.55385C3.00645 7.51953 2.96254 7.47547 2.9284 7.42419C2.89426 7.3729 2.87056 7.31539 2.85864 7.25494C2.84672 7.19449 2.84683 7.13229 2.85896 7.07188C2.87108 7.01147 2.89498 6.95404 2.9293 6.90288C3.34235 6.28796 3.80189 5.70559 4.30391 5.16088C4.3891 5.07346 4.50504 5.02271 4.62706 5.01944C4.74909 5.01616 4.86758 5.06062 4.95733 5.14335C5.04709 5.22609 5.10103 5.34057 5.10769 5.46246C5.11434 5.58435 5.07319 5.70402 4.99297 5.79604ZM6.59551 3.71596C6.52463 3.61392 6.49716 3.48792 6.51913 3.36563C6.54111 3.24335 6.61073 3.13479 6.7127 3.06381C9.22129 1.32248 12.2146 0.415533 15.2679 0.471698C18.3211 0.527863 21.279 1.54429 23.7219 3.3767L23.5643 2.93959C23.5231 2.8229 23.5297 2.69465 23.5827 2.58283C23.6357 2.471 23.7308 2.38468 23.8472 2.34268C23.9636 2.30068 24.0919 2.30641 24.2041 2.35864C24.3163 2.41086 24.4033 2.50532 24.4461 2.62143L25.2025 4.71733C25.2281 4.78815 25.2363 4.86409 25.2263 4.93873C25.2164 5.01337 25.1886 5.08452 25.1453 5.14614C25.102 5.20776 25.0445 5.25805 24.9777 5.29274C24.9108 5.32743 24.8366 5.34552 24.7613 5.34545C24.7336 5.34554 24.706 5.34299 24.6787 5.33784L22.4856 4.94467C22.425 4.93382 22.3671 4.91114 22.3153 4.87793C22.2634 4.84472 22.2186 4.80162 22.1835 4.75111C22.1483 4.70059 22.1234 4.64363 22.1103 4.5835C22.0971 4.52336 22.0959 4.46123 22.1067 4.40063C22.1176 4.34003 22.1403 4.28217 22.1735 4.23034C22.2067 4.17851 22.2498 4.13373 22.3003 4.09855C22.3508 4.06338 22.4078 4.03849 22.4679 4.02533C22.5281 4.01216 22.5902 4.01097 22.6508 4.02182L23.1359 4.10913C20.8508 2.40306 18.0872 1.45854 15.2359 1.40912C12.3846 1.3597 9.58993 2.20789 7.24708 3.83374C7.14501 3.90437 7.01909 3.93164 6.89694 3.90956C6.7748 3.88749 6.66639 3.81786 6.59551 3.71596ZM1.80606 18.2812C1.83564 18.4016 1.8163 18.5289 1.75228 18.635C1.68826 18.7412 1.58476 18.8177 1.46446 18.8478C1.42735 18.8575 1.38915 18.8624 1.35079 18.8624C1.24618 18.8624 1.14459 18.8274 1.0622 18.7629C0.979804 18.6985 0.921335 18.6083 0.896099 18.5068C0.74618 17.9053 0.634821 17.2949 0.5627 16.6792C0.550059 16.5567 0.586176 16.4341 0.663237 16.338C0.740299 16.2418 0.852109 16.1799 0.974479 16.1656C1.09685 16.1513 1.21994 16.1857 1.31712 16.2614C1.4143 16.3371 1.47775 16.4481 1.49376 16.5703C1.56117 17.1467 1.66549 17.7181 1.80606 18.2812ZM0.47188 14.5816C0.489093 13.9981 0.541532 13.4162 0.628911 12.839C0.638145 12.7781 0.659276 12.7197 0.691099 12.667C0.722921 12.6143 0.764812 12.5684 0.814379 12.5319C0.863946 12.4954 0.920218 12.469 0.979983 12.4542C1.03975 12.4395 1.10184 12.4366 1.1627 12.4458C1.22357 12.4551 1.28201 12.4762 1.33471 12.508C1.38741 12.5399 1.43333 12.5817 1.46983 12.6313C1.50634 12.6809 1.53273 12.7372 1.54749 12.7969C1.56225 12.8567 1.5651 12.9188 1.55586 12.9796C1.47413 13.5193 1.42502 14.0635 1.40879 14.6091C1.40514 14.731 1.35414 14.8466 1.26663 14.9315C1.17911 15.0164 1.06197 15.0639 0.940044 15.0638H0.925982C0.80185 15.06 0.684311 15.0071 0.599171 14.9166C0.514032 14.8262 0.468251 14.7057 0.47188 14.5816ZM2.61817 9.38725C2.3788 9.91637 2.1735 10.4603 2.00352 11.0156C1.96664 11.1338 1.88445 11.2327 1.7749 11.2905C1.66536 11.3484 1.53737 11.3605 1.41891 11.3243C1.30045 11.288 1.20115 11.2064 1.14271 11.0972C1.08427 10.9879 1.07145 10.86 1.10704 10.7414C1.28867 10.1475 1.50806 9.56584 1.76387 8.99995C1.78923 8.94385 1.82538 8.8933 1.87027 8.85118C1.91516 8.80906 1.96791 8.77619 2.0255 8.75445C2.08309 8.73272 2.1444 8.72254 2.20593 8.7245C2.26745 8.72645 2.32799 8.74051 2.38409 8.76586C2.44018 8.79122 2.49073 8.82737 2.53285 8.87226C2.57497 8.91715 2.60784 8.9699 2.62958 9.02749C2.65132 9.08508 2.6615 9.14639 2.65954 9.20792C2.65758 9.26945 2.64352 9.32999 2.61817 9.38608V9.38725ZM28.1932 11.7187C28.1631 11.598 28.1822 11.4704 28.2463 11.3638C28.3103 11.2572 28.4141 11.1804 28.5348 11.1503C28.6554 11.1203 28.7831 11.1394 28.8897 11.2034C28.9963 11.2675 29.0731 11.3713 29.1031 11.4919C29.253 12.0934 29.3644 12.7038 29.4365 13.3195C29.4509 13.4428 29.4158 13.5667 29.3389 13.6641C29.262 13.7616 29.1496 13.8245 29.0264 13.8392C29.0081 13.8415 28.9897 13.8427 28.9713 13.8427C28.8566 13.8425 28.7459 13.8002 28.6603 13.7239C28.5746 13.6475 28.52 13.5424 28.5066 13.4285C28.439 12.8524 28.3343 12.2813 28.1932 11.7187ZM29.5273 15.4171C29.5101 16.0006 29.4577 16.5825 29.3703 17.1597C29.3535 17.2705 29.2976 17.3716 29.2127 17.4447C29.1278 17.5178 29.0195 17.558 28.9074 17.5581C28.8837 17.5581 28.86 17.5564 28.8365 17.5529C28.7757 17.5436 28.7172 17.5225 28.6645 17.4907C28.6118 17.4589 28.5659 17.417 28.5294 17.3674C28.4929 17.3178 28.4665 17.2616 28.4517 17.2018C28.437 17.142 28.4341 17.08 28.4434 17.0191C28.526 16.4798 28.5761 15.9361 28.5934 15.3908C28.597 15.2664 28.6499 15.1487 28.7404 15.0633C28.8309 14.978 28.9516 14.9321 29.0759 14.9358C29.2002 14.9394 29.318 14.9923 29.4033 15.0828C29.4886 15.1733 29.5345 15.294 29.5309 15.4183L29.5273 15.4171ZM27.0699 23.097C26.6571 23.7119 26.1977 24.2943 25.6959 24.839C25.6547 24.8862 25.6045 24.9247 25.5482 24.9522C25.4919 24.9797 25.4307 24.9956 25.3681 24.999C25.3056 25.0025 25.243 24.9933 25.184 24.9721C25.125 24.9509 25.0709 24.9181 25.0249 24.8757C24.9788 24.8332 24.9417 24.7819 24.9158 24.7249C24.8899 24.6678 24.8757 24.6062 24.874 24.5436C24.8723 24.4809 24.8832 24.4186 24.906 24.3603C24.9288 24.3019 24.9631 24.2487 25.0068 24.2039C25.476 23.6944 25.9054 23.1496 26.2912 22.5744C26.3255 22.5232 26.3696 22.4794 26.4209 22.4453C26.4721 22.4111 26.5296 22.3875 26.59 22.3756C26.6505 22.3637 26.7126 22.3638 26.773 22.376C26.8334 22.3881 26.8908 22.412 26.9419 22.4463C26.993 22.4807 27.0369 22.5247 27.071 22.576C27.1051 22.6272 27.1288 22.6847 27.1407 22.7452C27.1526 22.8056 27.1524 22.8678 27.1403 22.9281C27.1282 22.9885 27.1042 23.0459 27.0699 23.097ZM28.8928 19.2574C28.7111 19.8512 28.4917 20.4329 28.2359 20.9988C28.1847 21.1121 28.0906 21.2004 27.9743 21.2443C27.858 21.2882 27.729 21.2841 27.6157 21.2329C27.5024 21.1817 27.4141 21.0875 27.3702 20.9712C27.3263 20.8549 27.3304 20.7259 27.3816 20.6126C27.6208 20.0835 27.8259 19.5396 27.9957 18.9843C28.0326 18.8661 28.1148 18.7672 28.2243 18.7094C28.3339 18.6515 28.4619 18.6394 28.5803 18.6756C28.6988 18.7119 28.7981 18.7935 28.8565 18.9027C28.915 19.012 28.9278 19.1399 28.8922 19.2585L28.8928 19.2574ZM23.4037 26.2839C23.4746 26.386 23.5021 26.512 23.4801 26.6343C23.4581 26.7565 23.3885 26.8651 23.2865 26.9361C20.7779 28.6772 17.7846 29.584 14.7315 29.5279C11.6784 29.4719 8.72041 28.4558 6.27735 26.6238L6.43497 27.0603C6.4665 27.1741 6.45392 27.2956 6.39976 27.4005C6.34559 27.5054 6.25382 27.586 6.14279 27.6262C6.03177 27.6664 5.90966 27.6632 5.80088 27.6173C5.69211 27.5714 5.60467 27.4861 5.55606 27.3785L4.79551 25.2826C4.76757 25.2051 4.7605 25.1217 4.77502 25.0407C4.78954 24.9597 4.82514 24.8839 4.87823 24.821C4.93133 24.7581 5.00005 24.7103 5.07748 24.6824C5.15491 24.6545 5.23833 24.6475 5.31934 24.6621L7.51251 25.0552C7.5731 25.0661 7.63097 25.0887 7.6828 25.122C7.73463 25.1552 7.77941 25.1983 7.81458 25.2488C7.84976 25.2993 7.87464 25.3563 7.88781 25.4164C7.90097 25.4765 7.90216 25.5387 7.89131 25.5993C7.88046 25.6599 7.85779 25.7177 7.82457 25.7696C7.79136 25.8214 7.74826 25.8662 7.69775 25.9013C7.64723 25.9365 7.59027 25.9614 7.53014 25.9746C7.47001 25.9877 7.40787 25.9889 7.34727 25.9781L6.86211 25.8914C9.14739 27.5971 11.911 28.5413 14.7622 28.5907C17.6135 28.64 20.4081 27.7918 22.751 26.1662C22.8016 26.131 22.8586 26.1062 22.9188 26.093C22.979 26.0799 23.0411 26.0788 23.1018 26.0898C23.1624 26.1007 23.2203 26.1235 23.2721 26.1568C23.3239 26.1901 23.3686 26.2333 23.4037 26.2839Z" fill="black"/>
<path d="M24.3957 17.2658C24.6207 17.2673 24.8386 17.1868 25.0087 17.0394C25.1787 16.892 25.2893 16.6878 25.3197 16.4648C25.4557 15.4945 25.4557 14.5101 25.3197 13.5398C25.2898 13.3164 25.1794 13.1116 25.0094 12.9637C24.8393 12.8158 24.6211 12.735 24.3957 12.7365H23.3727C23.1786 12.019 22.8924 11.3297 22.5213 10.6857L23.2449 9.96088C23.4053 9.80247 23.5024 9.59105 23.5182 9.36618C23.5339 9.14132 23.4672 8.91842 23.3305 8.7392C22.7411 7.95646 22.0449 7.26023 21.2621 6.67084C21.083 6.53329 20.8598 6.46589 20.6345 6.48132C20.4092 6.49675 20.1973 6.59395 20.0387 6.75463L19.315 7.47827C18.6712 7.10707 17.9818 6.82109 17.2643 6.62749V5.60385C17.2658 5.379 17.1855 5.16126 17.0383 4.99125C16.8912 4.82123 16.6872 4.71054 16.4645 4.67983C15.4942 4.54447 14.5098 4.54447 13.5395 4.67983C13.3161 4.70976 13.1113 4.82011 12.9634 4.9902C12.8155 5.1603 12.7347 5.37847 12.7361 5.60385V6.62749C12.0186 6.82119 11.3293 7.10717 10.6854 7.47827L9.96055 6.75463C9.80214 6.59427 9.59072 6.49712 9.36585 6.48138C9.14099 6.46563 8.91809 6.53236 8.73887 6.66909C7.95613 7.25847 7.2599 7.9547 6.67051 8.73745C6.53296 8.91654 6.46556 9.13972 6.48099 9.36501C6.49642 9.59031 6.59361 9.80221 6.7543 9.96088L7.47793 10.6845C7.1068 11.3285 6.82063 12.0178 6.62657 12.7353H5.60352C5.37867 12.7338 5.16093 12.8141 4.99091 12.9612C4.8209 13.1084 4.71021 13.3124 4.6795 13.5351C4.54356 14.5054 4.54356 15.4898 4.6795 16.4601C4.70943 16.6835 4.81978 16.8883 4.98987 17.0362C5.15997 17.1841 5.37814 17.2648 5.60352 17.2634H6.62657C6.82063 17.9809 7.1068 18.6702 7.47793 19.3142L6.7543 20.039C6.59394 20.1974 6.49679 20.4088 6.48105 20.6337C6.4653 20.8586 6.53203 21.0815 6.66876 21.2607C7.25814 22.0434 7.95437 22.7397 8.73711 23.329C8.91626 23.4665 9.13941 23.5338 9.36467 23.5184C9.58993 23.5029 9.80182 23.4058 9.96055 23.2453L10.6836 22.5216C11.3276 22.8926 12.0169 23.1786 12.7344 23.3724V24.396C12.7329 24.621 12.8132 24.8388 12.9605 25.0088C13.1078 25.1788 13.3119 25.2895 13.5348 25.3201C14.505 25.456 15.4895 25.456 16.4598 25.3201C16.6832 25.2901 16.888 25.1798 17.0359 25.0097C17.1837 24.8396 17.2645 24.6214 17.2631 24.396V23.3724C17.9806 23.1788 18.67 22.8928 19.3139 22.5216L20.0387 23.2453C20.1971 23.4056 20.4085 23.5028 20.6334 23.5185C20.8582 23.5343 21.0811 23.4675 21.2604 23.3308C22.0432 22.7416 22.7395 22.0453 23.3287 21.2624C23.4663 21.0834 23.5337 20.8602 23.5182 20.6349C23.5028 20.4096 23.4056 20.1977 23.2449 20.039L22.5213 19.3154C22.8922 18.6714 23.1782 17.9821 23.3721 17.2646L24.3957 17.2658ZM22.5477 16.6945C22.3539 17.5616 22.0111 18.3885 21.5346 19.1384C21.4775 19.2283 21.4527 19.335 21.4643 19.4408C21.4759 19.5467 21.5232 19.6455 21.5984 19.7208L22.5793 20.7017C22.0439 21.4124 21.4116 22.0445 20.7008 22.5796L19.7205 21.5994C19.6452 21.524 19.5465 21.4766 19.4406 21.4649C19.3347 21.4532 19.2281 21.4779 19.1381 21.5349C18.3883 22.0116 17.5613 22.3544 16.6941 22.548C16.5902 22.5713 16.4973 22.6293 16.4307 22.7125C16.3641 22.7957 16.3279 22.8991 16.3279 23.0056V24.3925C15.4466 24.5153 14.5526 24.5153 13.6713 24.3925V23.0056C13.6713 22.8991 13.6351 22.7957 13.5685 22.7125C13.502 22.6293 13.409 22.5713 13.3051 22.548C12.438 22.3542 11.6111 22.0114 10.8611 21.5349C10.7712 21.4778 10.6646 21.453 10.5587 21.4646C10.4529 21.4762 10.3541 21.5236 10.2787 21.5988L9.29786 22.5796C8.58823 22.0441 7.9571 21.4117 7.42286 20.7011L8.40313 19.7208C8.47845 19.6455 8.52587 19.5468 8.53758 19.4409C8.5493 19.3351 8.52461 19.2284 8.46758 19.1384C7.99087 18.3886 7.64807 17.5617 7.4545 16.6945C7.43119 16.5905 7.37317 16.4976 7.28998 16.431C7.2068 16.3645 7.10342 16.3282 6.99688 16.3283H5.60704C5.48399 15.447 5.48399 14.5529 5.60704 13.6716H6.99336C7.0999 13.6717 7.20328 13.6354 7.28647 13.5689C7.36965 13.5023 7.42768 13.4094 7.45098 13.3054C7.64468 12.4383 7.98747 11.6113 8.46407 10.8615C8.52109 10.7715 8.54578 10.6648 8.53406 10.5589C8.52235 10.4531 8.47493 10.3544 8.39961 10.279L7.41934 9.29819C7.95492 8.58856 8.58723 7.95743 9.29786 7.42319L10.2781 8.40405C10.3535 8.47927 10.4523 8.52658 10.5581 8.53819C10.664 8.5498 10.7707 8.52501 10.8606 8.46792C11.6105 7.9914 12.4374 7.64862 13.3045 7.45483C13.4085 7.43152 13.5014 7.3735 13.5679 7.29031C13.6345 7.20713 13.6708 7.10375 13.6707 6.99721V5.60737C14.552 5.48462 15.4461 5.48462 16.3273 5.60737V6.9937C16.3273 7.10024 16.3635 7.20362 16.4301 7.2868C16.4967 7.36998 16.5896 7.42801 16.6936 7.45131C17.5607 7.6451 18.3876 7.98788 19.1375 8.4644C19.2274 8.5215 19.3341 8.54628 19.4399 8.53468C19.5458 8.52307 19.6445 8.47576 19.7199 8.40053L20.7008 7.41967C21.4114 7.95504 22.0436 8.58736 22.5787 9.29819L21.5984 10.2785C21.5231 10.3538 21.4757 10.4525 21.464 10.5584C21.4523 10.6642 21.477 10.7709 21.534 10.8609C22.0107 11.6107 22.3535 12.4376 22.5471 13.3048C22.5704 13.4088 22.6284 13.5017 22.7116 13.5683C22.7948 13.6348 22.8982 13.6711 23.0047 13.671H24.3922C24.5152 14.5523 24.5152 15.4464 24.3922 16.3277H23.0053C22.8987 16.3277 22.7952 16.364 22.712 16.4307C22.6288 16.4974 22.5709 16.5904 22.5477 16.6945ZM14.9996 9.46225C13.9044 9.46225 12.8337 9.78703 11.923 10.3955C11.0124 11.004 10.3026 11.8689 9.88345 12.8808C9.46432 13.8926 9.35465 15.0061 9.56832 16.0803C9.782 17.1545 10.3094 18.1412 11.0839 18.9157C11.8583 19.6901 12.8451 20.2176 13.9193 20.4312C14.9935 20.6449 16.1069 20.5352 17.1188 20.1161C18.1307 19.697 18.9955 18.9872 19.604 18.0765C20.2125 17.1659 20.5373 16.0952 20.5373 14.9999C20.5356 13.5318 19.9516 12.1242 18.9135 11.0861C17.8753 10.0479 16.4678 9.46396 14.9996 9.46225ZM14.9996 19.599C14.0897 19.599 13.2003 19.3291 12.4438 18.8236C11.6872 18.3181 11.0976 17.5996 10.7495 16.7589C10.4013 15.9183 10.3103 14.9933 10.4879 14.1009C10.6655 13.2085 11.1037 12.3888 11.7472 11.7455C12.3907 11.1022 13.2105 10.6642 14.1029 10.4868C14.9953 10.3095 15.9203 10.4007 16.7608 10.7491C17.6014 11.0974 18.3198 11.6872 18.8251 12.4439C19.3304 13.2005 19.6 14.0901 19.5998 14.9999C19.5984 16.2196 19.1133 17.3888 18.2509 18.2512C17.3885 19.1136 16.2192 19.5987 14.9996 19.6001V19.599ZM4.99297 5.79604C4.52379 6.30554 4.0944 6.85031 3.7086 7.42553C3.67428 7.4767 3.63022 7.52061 3.57893 7.55475C3.52765 7.58889 3.47014 7.6126 3.40969 7.62451C3.34924 7.63643 3.28703 7.63632 3.22663 7.6242C3.16622 7.61207 3.10879 7.58817 3.05762 7.55385C3.00645 7.51953 2.96254 7.47547 2.9284 7.42419C2.89426 7.3729 2.87056 7.31539 2.85864 7.25494C2.84672 7.19449 2.84683 7.13229 2.85896 7.07188C2.87108 7.01147 2.89498 6.95404 2.9293 6.90288C3.34235 6.28796 3.80189 5.70559 4.30391 5.16088C4.3891 5.07346 4.50504 5.02271 4.62706 5.01944C4.74909 5.01616 4.86758 5.06062 4.95733 5.14335C5.04709 5.22609 5.10103 5.34057 5.10769 5.46246C5.11434 5.58435 5.07319 5.70402 4.99297 5.79604ZM6.59551 3.71596C6.52463 3.61392 6.49716 3.48792 6.51913 3.36563C6.54111 3.24335 6.61073 3.13479 6.7127 3.06381C9.22129 1.32248 12.2146 0.415533 15.2679 0.471698C18.3211 0.527863 21.279 1.54429 23.7219 3.3767L23.5643 2.93959C23.5231 2.8229 23.5297 2.69465 23.5827 2.58283C23.6357 2.471 23.7308 2.38468 23.8472 2.34268C23.9636 2.30068 24.0919 2.30641 24.2041 2.35864C24.3163 2.41086 24.4033 2.50532 24.4461 2.62143L25.2025 4.71733C25.2281 4.78815 25.2363 4.86409 25.2263 4.93873C25.2164 5.01337 25.1886 5.08452 25.1453 5.14614C25.102 5.20776 25.0445 5.25805 24.9777 5.29274C24.9108 5.32743 24.8366 5.34552 24.7613 5.34545C24.7336 5.34554 24.706 5.34299 24.6787 5.33784L22.4856 4.94467C22.425 4.93382 22.3671 4.91114 22.3153 4.87793C22.2634 4.84472 22.2186 4.80162 22.1835 4.75111C22.1483 4.70059 22.1234 4.64363 22.1103 4.5835C22.0971 4.52336 22.0959 4.46123 22.1067 4.40063C22.1176 4.34003 22.1403 4.28217 22.1735 4.23034C22.2067 4.17851 22.2498 4.13373 22.3003 4.09855C22.3508 4.06338 22.4078 4.03849 22.4679 4.02533C22.5281 4.01216 22.5902 4.01097 22.6508 4.02182L23.1359 4.10913C20.8508 2.40306 18.0872 1.45854 15.2359 1.40912C12.3846 1.3597 9.58993 2.20789 7.24708 3.83374C7.14501 3.90437 7.01909 3.93164 6.89694 3.90956C6.7748 3.88749 6.66639 3.81786 6.59551 3.71596ZM1.80606 18.2812C1.83564 18.4016 1.8163 18.5289 1.75228 18.635C1.68826 18.7412 1.58476 18.8177 1.46446 18.8478C1.42735 18.8575 1.38915 18.8624 1.35079 18.8624C1.24618 18.8624 1.14459 18.8274 1.0622 18.7629C0.979804 18.6985 0.921335 18.6083 0.896099 18.5068C0.74618 17.9053 0.634821 17.2949 0.5627 16.6792C0.550059 16.5567 0.586176 16.4341 0.663237 16.338C0.740299 16.2418 0.852109 16.1799 0.974479 16.1656C1.09685 16.1513 1.21994 16.1857 1.31712 16.2614C1.4143 16.3371 1.47775 16.4481 1.49376 16.5703C1.56117 17.1467 1.66549 17.7181 1.80606 18.2812ZM0.47188 14.5816C0.489093 13.9981 0.541532 13.4162 0.628911 12.839C0.638145 12.7781 0.659276 12.7197 0.691099 12.667C0.722921 12.6143 0.764812 12.5684 0.814379 12.5319C0.863946 12.4954 0.920218 12.469 0.979983 12.4542C1.03975 12.4395 1.10184 12.4366 1.1627 12.4458C1.22357 12.4551 1.28201 12.4762 1.33471 12.508C1.38741 12.5399 1.43333 12.5817 1.46983 12.6313C1.50634 12.6809 1.53273 12.7372 1.54749 12.7969C1.56225 12.8567 1.5651 12.9188 1.55586 12.9796C1.47413 13.5193 1.42502 14.0635 1.40879 14.6091C1.40514 14.731 1.35414 14.8466 1.26663 14.9315C1.17911 15.0164 1.06197 15.0639 0.940044 15.0638H0.925982C0.80185 15.06 0.684311 15.0071 0.599171 14.9166C0.514032 14.8262 0.468251 14.7057 0.47188 14.5816ZM2.61817 9.38725C2.3788 9.91637 2.1735 10.4603 2.00352 11.0156C1.96664 11.1338 1.88445 11.2327 1.7749 11.2905C1.66536 11.3484 1.53737 11.3605 1.41891 11.3243C1.30045 11.288 1.20115 11.2064 1.14271 11.0972C1.08427 10.9879 1.07145 10.86 1.10704 10.7414C1.28867 10.1475 1.50806 9.56584 1.76387 8.99995C1.78923 8.94385 1.82538 8.8933 1.87027 8.85118C1.91516 8.80906 1.96791 8.77619 2.0255 8.75445C2.08309 8.73272 2.1444 8.72254 2.20593 8.7245C2.26745 8.72645 2.32799 8.74051 2.38409 8.76586C2.44018 8.79122 2.49073 8.82737 2.53285 8.87226C2.57497 8.91715 2.60784 8.9699 2.62958 9.02749C2.65132 9.08508 2.6615 9.14639 2.65954 9.20792C2.65758 9.26945 2.64352 9.32999 2.61817 9.38608V9.38725ZM28.1932 11.7187C28.1631 11.598 28.1822 11.4704 28.2463 11.3638C28.3103 11.2572 28.4141 11.1804 28.5348 11.1503C28.6554 11.1203 28.7831 11.1394 28.8897 11.2034C28.9963 11.2675 29.0731 11.3713 29.1031 11.4919C29.253 12.0934 29.3644 12.7038 29.4365 13.3195C29.4509 13.4428 29.4158 13.5667 29.3389 13.6641C29.262 13.7616 29.1496 13.8245 29.0264 13.8392C29.0081 13.8415 28.9897 13.8427 28.9713 13.8427C28.8566 13.8425 28.7459 13.8002 28.6603 13.7239C28.5746 13.6475 28.52 13.5424 28.5066 13.4285C28.439 12.8524 28.3343 12.2813 28.1932 11.7187ZM29.5273 15.4171C29.5101 16.0006 29.4577 16.5825 29.3703 17.1597C29.3535 17.2705 29.2976 17.3716 29.2127 17.4447C29.1278 17.5178 29.0195 17.558 28.9074 17.5581C28.8837 17.5581 28.86 17.5564 28.8365 17.5529C28.7757 17.5436 28.7172 17.5225 28.6645 17.4907C28.6118 17.4589 28.5659 17.417 28.5294 17.3674C28.4929 17.3178 28.4665 17.2616 28.4517 17.2018C28.437 17.142 28.4341 17.08 28.4434 17.0191C28.526 16.4798 28.5761 15.9361 28.5934 15.3908C28.597 15.2664 28.6499 15.1487 28.7404 15.0633C28.8309 14.978 28.9516 14.9321 29.0759 14.9358C29.2002 14.9394 29.318 14.9923 29.4033 15.0828C29.4886 15.1733 29.5345 15.294 29.5309 15.4183L29.5273 15.4171ZM27.0699 23.097C26.6571 23.7119 26.1977 24.2943 25.6959 24.839C25.6547 24.8862 25.6045 24.9247 25.5482 24.9522C25.4919 24.9797 25.4307 24.9956 25.3681 24.999C25.3056 25.0025 25.243 24.9933 25.184 24.9721C25.125 24.9509 25.0709 24.9181 25.0249 24.8757C24.9788 24.8332 24.9417 24.7819 24.9158 24.7249C24.8899 24.6678 24.8757 24.6062 24.874 24.5436C24.8723 24.4809 24.8832 24.4186 24.906 24.3603C24.9288 24.3019 24.9631 24.2487 25.0068 24.2039C25.476 23.6944 25.9054 23.1496 26.2912 22.5744C26.3255 22.5232 26.3696 22.4794 26.4209 22.4453C26.4721 22.4111 26.5296 22.3875 26.59 22.3756C26.6505 22.3637 26.7126 22.3638 26.773 22.376C26.8334 22.3881 26.8908 22.412 26.9419 22.4463C26.993 22.4807 27.0369 22.5247 27.071 22.576C27.1051 22.6272 27.1288 22.6847 27.1407 22.7452C27.1526 22.8056 27.1524 22.8678 27.1403 22.9281C27.1282 22.9885 27.1042 23.0459 27.0699 23.097ZM28.8928 19.2574C28.7111 19.8512 28.4917 20.4329 28.2359 20.9988C28.1847 21.1121 28.0906 21.2004 27.9743 21.2443C27.858 21.2882 27.729 21.2841 27.6157 21.2329C27.5024 21.1817 27.4141 21.0875 27.3702 20.9712C27.3263 20.8549 27.3304 20.7259 27.3816 20.6126C27.6208 20.0835 27.8259 19.5396 27.9957 18.9843C28.0326 18.8661 28.1148 18.7672 28.2243 18.7094C28.3339 18.6515 28.4619 18.6394 28.5803 18.6756C28.6988 18.7119 28.7981 18.7935 28.8565 18.9027C28.915 19.012 28.9278 19.1399 28.8922 19.2585L28.8928 19.2574ZM23.4037 26.2839C23.4746 26.386 23.5021 26.512 23.4801 26.6343C23.4581 26.7565 23.3885 26.8651 23.2865 26.9361C20.7779 28.6772 17.7846 29.584 14.7315 29.5279C11.6784 29.4719 8.72041 28.4558 6.27735 26.6238L6.43497 27.0603C6.4665 27.1741 6.45392 27.2956 6.39976 27.4005C6.34559 27.5054 6.25382 27.586 6.14279 27.6262C6.03177 27.6664 5.90966 27.6632 5.80088 27.6173C5.69211 27.5714 5.60467 27.4861 5.55606 27.3785L4.79551 25.2826C4.76757 25.2051 4.7605 25.1217 4.77502 25.0407C4.78954 24.9597 4.82514 24.8839 4.87823 24.821C4.93133 24.7581 5.00005 24.7103 5.07748 24.6824C5.15491 24.6545 5.23833 24.6475 5.31934 24.6621L7.51251 25.0552C7.5731 25.0661 7.63097 25.0887 7.6828 25.122C7.73463 25.1552 7.77941 25.1983 7.81458 25.2488C7.84976 25.2993 7.87464 25.3563 7.88781 25.4164C7.90097 25.4765 7.90216 25.5387 7.89131 25.5993C7.88046 25.6599 7.85779 25.7177 7.82457 25.7696C7.79136 25.8214 7.74826 25.8662 7.69775 25.9013C7.64723 25.9365 7.59027 25.9614 7.53014 25.9746C7.47001 25.9877 7.40787 25.9889 7.34727 25.9781L6.86211 25.8914C9.14739 27.5971 11.911 28.5413 14.7622 28.5907C17.6135 28.64 20.4081 27.7918 22.751 26.1662C22.8016 26.131 22.8586 26.1062 22.9188 26.093C22.979 26.0799 23.0411 26.0788 23.1018 26.0898C23.1624 26.1007 23.2203 26.1235 23.2721 26.1568C23.3239 26.1901 23.3686 26.2333 23.4037 26.2839Z" stroke="black" stroke-width="0.6" mask="url(#path-1-outside-1_219_1799)"/>
</g>
<defs>
<clipPath id="clip0_219_1799">
<rect width="30" height="30" fill="white"/>
</clipPath>
</defs>
</svg>
