<svg width="26" height="22" viewBox="0 0 26 22" fill="none" xmlns="http://www.w3.org/2000/svg">
<path fill-rule="evenodd" clip-rule="evenodd" d="M0 4C0 1.79086 1.79086 0 4 0H22C24.2091 0 26 1.79086 26 4V18C26 20.2091 24.2091 22 22 22H4C1.79086 22 0 20.2091 0 18V4ZM13.1332 4.0088C13.3132 4.0328 13.488 4.10589 13.6364 4.22807L19.303 8.89474C19.7293 9.24583 19.7903 9.87605 19.4392 10.3024C19.0882 10.7287 18.4579 10.7897 18.0316 10.4386L14 7.11845V16.3333C14 16.8856 13.5523 17.3333 13 17.3333C12.4477 17.3333 12 16.8856 12 16.3333V7.11952L7.96969 10.4386C7.54337 10.7897 6.91315 10.7287 6.56205 10.3024C6.21096 9.87605 6.27195 9.24583 6.69828 8.89474L12.342 4.24697C12.5178 4.09318 12.748 4 13 4C12.9998 4 13.0002 4 13 4C13.0443 3.99999 13.0892 4.00293 13.1332 4.0088Z" fill="currentColor"/>
</svg>
