<svg width="30" height="30" viewBox="0 0 30 30" fill="none" xmlns="http://www.w3.org/2000/svg">
<path d="M7.74219 18.5469C12.1847 15.9016 17.8143 15.9017 22.2568 18.5469C22.4021 18.6334 22.582 18.734 22.7852 18.8486C23.6762 19.3513 25.0236 20.1115 25.9463 21.0146C26.5234 21.5795 27.0712 22.3244 27.1709 23.2363C27.2768 24.206 26.8545 25.1163 26.0059 25.9248C24.5415 27.3199 22.7836 28.4375 20.5107 28.4375H9.48828C7.2156 28.4375 5.45837 27.3197 3.99414 25.9248C3.14547 25.1163 2.72226 24.206 2.82812 23.2363C2.9278 22.3244 3.47566 21.5795 4.05273 21.0146C4.97544 20.1115 6.32285 19.3513 7.21387 18.8486C7.41703 18.734 7.59689 18.6334 7.74219 18.5469ZM21.2979 20.1572C17.4465 17.864 12.5526 17.864 8.70117 20.1572C8.49129 20.2822 8.2614 20.4131 8.02051 20.5498C7.12976 21.0551 6.08937 21.6447 5.36426 22.3545C4.91421 22.795 4.72217 23.1586 4.69141 23.4395C4.66703 23.6624 4.72382 24.0307 5.28711 24.5674C6.58184 25.8008 7.89782 26.5625 9.48828 26.5625H20.5107C22.1012 26.5625 23.4172 25.8008 24.7119 24.5674C25.2752 24.0307 25.332 23.6624 25.3076 23.4395C25.2768 23.1586 25.0848 22.795 24.6348 22.3545C23.9097 21.6448 22.8693 21.0551 21.9785 20.5498C21.7376 20.4132 21.5077 20.2822 21.2979 20.1572ZM14.999 1.5625C18.6234 1.5625 21.5615 4.50063 21.5615 8.125C21.5615 11.7494 18.6234 14.6875 14.999 14.6875C11.3748 14.6873 8.43652 11.7493 8.43652 8.125C8.43652 4.50074 11.3748 1.56267 14.999 1.5625ZM14.999 3.4375C12.4103 3.43767 10.3115 5.53627 10.3115 8.125C10.3115 10.7137 12.4103 12.8123 14.999 12.8125C17.5879 12.8125 19.6865 10.7138 19.6865 8.125C19.6865 5.53617 17.5879 3.4375 14.999 3.4375Z" fill="#161616"/>
</svg>
