<svg xmlns="http://www.w3.org/2000/svg" viewBox="0 0 48 48" width="48" height="48">
    <path fill="#1565C0"
        d="M45,35c0,2.209-1.791,4-4,4H7c-2.209,0-4-1.791-4-4V13c0-2.209,1.791-4,4-4h34c2.209,0,4,1.791,4,4V35z" />
    <path fill="#FFF"
        d="M15.186 19l-2.626 7.832c0 0-.667-3.313-.733-3.729-1.495-3.411-3.701-3.221-3.701-3.221L10.846 30h3.051l4.647-11H15.186zM17.689 30L20.56 30 22.296 19 19.389 19zM38.008 19h-3.021l-4.71 11h2.852l.588-1.571h3.596L37.619 30h2.613L38.008 19zM34.513 26.328l1.563-4.157.818 4.157H34.513zM26.369 22.206c0-.606.498-1.057 1.926-1.057.928 0 1.991.264 2.787.658l.442-2.383c-.742-.31-1.799-.618-3.042-.618-3.054 0-5.063 1.437-5.063 3.586 0 3.264 4.588 3.06 4.588 4.774 0 .549-.545.879-1.434.879-.928 0-2.178-.414-3.053-.88l-.44 2.402c.899.447 2.308.78 3.535.78 3.498 0 5.283-1.66 5.283-3.826C32.898 22.893 26.369 23.254 26.369 22.206z" />
</svg>