<svg width="26" height="26" viewBox="0 0 26 26" fill="none" xmlns="http://www.w3.org/2000/svg">
<path fill-rule="evenodd" clip-rule="evenodd" d="M24.9992 18.9686V22.5816C25.002 23.2598 24.7181 23.9077 24.2174 24.3662C23.7166 24.8247 23.0454 25.0513 22.3686 24.9902C18.6554 24.5875 15.0885 23.3212 11.9547 21.2929C9.03906 19.4439 6.56712 16.9769 4.71441 14.067C2.67504 10.9252 1.4059 7.34809 1.0098 3.62554C0.948832 2.95217 1.17424 2.28423 1.63098 1.78488C2.08771 1.28553 2.73371 1.00076 3.41116 1.00012H7.0313C8.24267 0.98822 9.27518 1.87442 9.44472 3.07155C9.59752 4.22778 9.88089 5.36305 10.2894 6.4557C10.6209 7.33591 10.4089 8.32819 9.7464 8.99682L8.21388 10.5263C9.9317 13.5414 12.4331 16.0378 15.4542 17.7522L16.9867 16.2227C17.6566 15.5616 18.6509 15.3499 19.5328 15.6808C20.6277 16.0885 21.7652 16.3713 22.9237 16.5238C24.1371 16.6947 25.0296 17.746 24.9992 18.9686Z" stroke="currentColor" stroke-width="2" stroke-linecap="round" stroke-linejoin="round"/>
</svg>
