<svg width="24" height="24" viewBox="0 0 24 24" fill="none" xmlns="http://www.w3.org/2000/svg">
<path d="M19.5313 9.82592C18.9966 9.82592 18.5626 10.2535 18.5626 10.7826C18.5626 14.3557 15.6186 17.2629 12.0005 17.2629C8.38136 17.2629 5.43743 14.3557 5.43743 10.7826C5.43743 10.2535 5.00345 9.82592 4.46872 9.82592C3.93398 9.82592 3.5 10.2535 3.5 10.7826C3.5 15.0875 6.79945 18.6414 11.0318 19.1188V21.0436C11.0318 21.5717 11.4648 22.0002 12.0005 22.0002C12.5352 22.0002 12.9692 21.5717 12.9692 21.0436V19.1188C17.2006 18.6414 20.5 15.0875 20.5 10.7826C20.5 10.2535 20.066 9.82592 19.5313 9.82592Z" fill="currentColor"/>
<path d="M11.8245 15.2171H12.1752C14.5776 15.2171 16.5267 13.2932 16.5267 10.9208V6.29727C16.5267 3.92287 14.5776 2 12.1752 2H11.8245C9.4221 2 7.47304 3.92287 7.47304 6.29727V10.9208C7.47304 13.2932 9.4221 15.2171 11.8245 15.2171Z" fill="currentColor"/>
</svg>
