<svg width="12" height="12" viewBox="0 0 12 12" fill="none" xmlns="http://www.w3.org/2000/svg">
<path d="M8.15625 2.23827C7.57724 1.56957 6.92557 0.967418 6.21328 0.442955C6.15023 0.398785 6.07511 0.375092 5.99813 0.375092C5.92114 0.375092 5.84602 0.398785 5.78297 0.442955C5.07199 0.967636 4.42159 1.56978 3.84375 2.23827C2.55516 3.71811 1.875 5.27811 1.875 6.74999C1.875 7.844 2.3096 8.89321 3.08318 9.6668C3.85677 10.4404 4.90598 10.875 6 10.875C7.09402 10.875 8.14323 10.4404 8.91682 9.6668C9.6904 8.89321 10.125 7.844 10.125 6.74999C10.125 5.27811 9.44484 3.71811 8.15625 2.23827ZM6 10.125C5.1052 10.124 4.24733 9.7681 3.61461 9.13538C2.98189 8.50266 2.62599 7.64479 2.625 6.74999C2.625 4.06733 5.22516 1.82811 6 1.21874C6.77484 1.82811 9.375 4.06639 9.375 6.74999C9.37401 7.64479 9.01811 8.50266 8.38539 9.13538C7.75267 9.7681 6.8948 10.124 6 10.125ZM8.61984 7.1878C8.5226 7.73094 8.26129 8.23125 7.87108 8.62138C7.48088 9.0115 6.98051 9.27271 6.43734 9.36983C6.41672 9.37313 6.39588 9.37486 6.375 9.37499C6.28093 9.37496 6.19031 9.33959 6.12111 9.27588C6.05191 9.21217 6.00917 9.12477 6.00138 9.03103C5.9936 8.93729 6.02132 8.84404 6.07907 8.76979C6.13681 8.69553 6.22035 8.64569 6.31312 8.63014C7.08984 8.49936 7.74891 7.8403 7.88062 7.06217C7.89728 6.96409 7.95223 6.87663 8.03336 6.81905C8.1145 6.76147 8.21519 6.73848 8.31328 6.75514C8.41137 6.7718 8.49882 6.82674 8.5564 6.90788C8.61398 6.98902 8.63697 7.08971 8.62031 7.1878H8.61984Z" fill="#52545B"/>
</svg>
