<svg width="19" height="19" viewBox="0 0 19 19" fill="none" xmlns="http://www.w3.org/2000/svg">
<path fill-rule="evenodd" clip-rule="evenodd" d="M8.98608 1.71812C11.2769 -0.572705 14.9911 -0.572706 17.2819 1.71812C19.5727 4.00894 19.5727 7.7231 17.2819 10.0139L16.0706 11.2252C15.4522 11.8436 14.4497 11.8436 13.8314 11.2252C13.2131 10.6069 13.2131 9.60441 13.8314 8.98608L15.0427 7.77475C16.0969 6.72059 16.0969 5.01145 15.0427 3.95729C13.9885 2.90313 12.2794 2.90313 11.2252 3.95729L10.0139 5.16862C9.39559 5.78695 8.39308 5.78695 7.77475 5.16862C7.15642 4.55029 7.15642 3.54777 7.77475 2.92944L8.98608 1.71812ZM13.6175 5.38252C14.2358 6.00085 14.2358 7.00336 13.6175 7.62169L7.62171 13.6174C7.00338 14.2358 6.00086 14.2358 5.38253 13.6174C4.7642 12.9991 4.7642 11.9966 5.38253 11.3783L11.3783 5.38251C11.9966 4.76418 12.9991 4.76418 13.6175 5.38252ZM5.16862 7.77475C5.78695 8.39308 5.78695 9.39559 5.16862 10.0139L3.95729 11.2252C2.90313 12.2794 2.90313 13.9885 3.95729 15.0427C5.01145 16.0969 6.72059 16.0969 7.77475 15.0427L8.98608 13.8314C9.60441 13.2131 10.6069 13.2131 11.2252 13.8314C11.8436 14.4497 11.8436 15.4522 11.2252 16.0706L10.0139 17.2819C7.7231 19.5727 4.00894 19.5727 1.71812 17.2819C-0.572706 14.9911 -0.572706 11.2769 1.71812 8.98608L2.92944 7.77475C3.54777 7.15642 4.55029 7.15642 5.16862 7.77475Z" fill="currentColor"/>
</svg>
