<svg width="53" height="39" viewBox="0 0 53 39" fill="none" xmlns="http://www.w3.org/2000/svg">
<rect x="0.5" y="0.5" width="51.7742" height="37.3812" rx="18.6906" fill="white"/>
<rect x="0.5" y="0.5" width="51.7742" height="37.3812" rx="18.6906" stroke="#E1E1E1"/>
<g clip-path="url(#clip0_398_12644)">
<path d="M34.4677 14.7381C34.2733 13.975 33.7033 13.3735 32.9804 13.168C31.6599 12.7866 26.3777 12.7866 26.3777 12.7866C26.3777 12.7866 21.0957 12.7866 19.7752 13.1535C19.0663 13.3588 18.4824 13.9751 18.2879 14.7381C17.9404 16.1319 17.9404 19.0224 17.9404 19.0224C17.9404 19.0224 17.9404 21.9275 18.2879 23.3067C18.4826 24.0697 19.0524 24.6712 19.7753 24.8767C21.1096 25.2582 26.3779 25.2582 26.3779 25.2582C26.3779 25.2582 31.6599 25.2582 32.9804 24.8913C33.7034 24.6859 34.2733 24.0844 34.4679 23.3214C34.8153 21.9275 34.8153 19.0371 34.8153 19.0371C34.8153 19.0371 34.8292 16.1319 34.4677 14.7381ZM24.696 21.6928V16.3521L29.0884 19.0224L24.696 21.6928Z" fill="#6AB240"/>
</g>
<defs>
<clipPath id="clip0_398_12644">
<rect width="18" height="19" fill="white" transform="translate(17.3867 9.69043)"/>
</clipPath>
</defs>
</svg>
