<svg width="40" height="40" viewBox="0 0 40 40" fill="none" xmlns="http://www.w3.org/2000/svg">
<path d="M20 0.25C30.9088 0.25 39.75 9.04771 39.75 19.8975C39.75 30.7472 30.9088 39.5449 20 39.5449C9.09118 39.5449 0.250033 30.7472 0.25 19.8975C0.25 9.04771 9.09116 0.25 20 0.25Z" fill="#61A23C" stroke="white" stroke-width="0.5"/>
<path d="M28.6291 15.1101C28.4217 14.2579 27.8137 13.5861 27.0427 13.3566C25.6341 12.9307 19.9998 12.9307 19.9998 12.9307C19.9998 12.9307 14.3657 12.9307 12.9571 13.3404C12.2009 13.5697 11.5781 14.258 11.3707 15.1101C11 16.6667 11 19.8948 11 19.8948C11 19.8948 11 23.1391 11.3707 24.6794C11.5783 25.5315 12.1861 26.2033 12.9572 26.4328C14.3805 26.8588 20 26.8588 20 26.8588C20 26.8588 25.6341 26.8588 27.0427 26.4491C27.8138 26.2197 28.4217 25.5479 28.6294 24.6958C28.9999 23.1391 28.9999 19.9111 28.9999 19.9111C28.9999 19.9111 29.0148 16.6667 28.6291 15.1101ZM18.2059 22.877V16.9125L22.8912 19.8948L18.2059 22.877Z" fill="white"/>
</svg>
