<svg width="18" height="18" viewBox="0 0 18 18" fill="none" xmlns="http://www.w3.org/2000/svg">
<path d="M7.98693 1.80901C8.37879 0.602998 8.57472 -8.10623e-06 8.93799 -8.10623e-06C9.30126 -8.10623e-06 9.49719 0.602997 9.88904 1.80901L11.0709 5.4463C11.1792 5.77963 11.2333 5.9463 11.3648 6.04179C11.4962 6.13728 11.6714 6.13728 12.0219 6.13728H15.8464C17.1145 6.13728 17.7485 6.13728 17.8608 6.48277C17.973 6.82826 17.4601 7.20094 16.4342 7.9463L13.3401 10.1943C13.0566 10.4003 12.9148 10.5033 12.8646 10.6578C12.8144 10.8123 12.8685 10.979 12.9769 11.3123L14.1587 14.9496C14.5505 16.1556 14.7465 16.7586 14.4526 16.9721C14.1587 17.1857 13.6457 16.813 12.6198 16.0676L9.52577 13.8197C9.24222 13.6136 9.10045 13.5106 8.93799 13.5106C8.77553 13.5106 8.63375 13.6136 8.3502 13.8197L5.25614 16.0676C4.23025 16.813 3.7173 17.1857 3.42341 16.9721C3.12951 16.7586 3.32544 16.1556 3.7173 14.9496L4.89913 11.3123C5.00743 10.979 5.06159 10.8123 5.01138 10.6578C4.96118 10.5033 4.81941 10.4003 4.53585 10.1943L1.44179 7.9463C0.415899 7.20094 -0.0970488 6.82826 0.0152082 6.48277C0.127465 6.13728 0.761503 6.13728 2.02958 6.13728H5.85405C6.20454 6.13728 6.37978 6.13728 6.51121 6.04179C6.64264 5.9463 6.6968 5.77963 6.80511 5.4463L7.98693 1.80901Z" fill="#1AB065"/>
</svg>
