<svg width="419" height="419" viewBox="0 0 419 419" fill="none" xmlns="http://www.w3.org/2000/svg">
<g clip-path="url(#clip0_682_1472)">
<path d="M220.512 385.415C305.954 385.415 375.218 316.15 375.218 230.708C375.218 145.266 305.954 76.0012 220.512 76.0012C135.069 76.0012 65.8047 145.266 65.8047 230.708C65.8047 316.15 135.069 385.415 220.512 385.415Z" fill="url(#paint0_linear_682_1472)"/>
<path d="M110.142 337.598L192.26 112.108L329.347 257.057L124.686 351.007C116.034 354.979 106.885 346.543 110.142 337.598Z" fill="#6AB240"/>
<ellipse cx="262.334" cy="183.689" rx="22.8791" ry="100.282" transform="rotate(-43.1847 262.334 183.689)" fill="#72C343"/>
<mask id="mask0_682_1472" style="mask-type:alpha" maskUnits="userSpaceOnUse" x="100" y="134" width="220" height="240">
<path d="M100.783 359.49L182.9 134L319.988 278.949L115.327 372.899C106.675 376.87 97.5254 368.434 100.783 359.49Z" fill="#6AB240"/>
</mask>
<g mask="url(#mask0_682_1472)">
<path fill-rule="evenodd" clip-rule="evenodd" d="M179.849 252.697C152.383 216.728 138.486 173.846 134.004 145.057L156.121 141.613C160.155 167.528 172.89 206.702 197.638 239.113C222.154 271.219 258.022 296.255 309.174 296.255V318.638C249.477 318.638 207.547 288.971 179.849 252.697Z" fill="#72C343"/>
<path fill-rule="evenodd" clip-rule="evenodd" d="M182.798 245.819C155.332 209.85 141.435 166.968 136.953 138.178L159.07 134.735C163.104 160.649 175.839 199.824 200.588 232.234C225.103 264.34 260.971 289.377 312.123 289.377V311.76C252.426 311.76 210.496 282.093 182.798 245.819Z" fill="white"/>
<path fill-rule="evenodd" clip-rule="evenodd" d="M147.419 297.902C119.953 261.933 106.056 219.051 101.574 190.261L123.691 186.818C127.725 212.732 140.46 251.907 165.209 284.317C189.724 316.423 225.592 341.46 276.744 341.46V363.843C217.047 363.843 175.117 334.176 147.419 297.902Z" fill="white"/>
</g>
<circle cx="252.777" cy="305.099" r="39.4996" fill="#72C343"/>
<path fill-rule="evenodd" clip-rule="evenodd" d="M268.76 293.113C270.289 294.669 270.268 297.17 268.712 298.699L249.96 317.132C248.423 318.643 245.959 318.643 244.422 317.132L236.841 309.681C235.285 308.151 235.264 305.651 236.793 304.095C238.322 302.539 240.823 302.518 242.379 304.047L247.191 308.777L263.174 293.065C264.73 291.536 267.231 291.558 268.76 293.113Z" fill="white"/>
<path fill-rule="evenodd" clip-rule="evenodd" d="M330.62 116.754C333.388 109.723 334.209 102.706 335.412 95.3598C335.647 93.9252 334.673 92.5757 333.239 92.3393C331.803 92.1027 330.448 93.0782 330.213 94.5128C329.072 101.479 328.344 108.155 325.717 114.834C325.185 116.184 325.852 117.713 327.206 118.239C328.558 118.774 330.089 118.105 330.62 116.754Z" fill="#6AB240"/>
<path fill-rule="evenodd" clip-rule="evenodd" d="M343.971 132.887C357.624 123.429 371 110.702 380.943 97.3727C381.811 96.2083 381.568 94.5594 380.401 93.6964C379.234 92.8335 377.583 93.0715 376.716 94.2359C367.101 107.123 354.165 119.432 340.964 128.571C339.77 129.4 339.475 131.039 340.305 132.227C341.135 133.416 342.777 133.716 343.971 132.887Z" fill="#6AB240"/>
<path fill-rule="evenodd" clip-rule="evenodd" d="M345.431 145.412C356.314 148.734 368.202 147.148 378.913 144.088C380.311 143.683 381.119 142.228 380.718 140.841C380.316 139.445 378.856 138.639 377.459 139.035C367.704 141.826 356.881 143.414 346.969 140.389C345.579 139.965 344.105 140.747 343.682 142.13C343.257 143.513 344.041 144.987 345.431 145.412Z" fill="#6AB240"/>
<circle cx="346.248" cy="164.216" r="7.89993" fill="#6AB240"/>
<circle cx="280.419" cy="82.584" r="7.89993" fill="#6AB240"/>
<path d="M295.616 117.423C294.935 114.6 290.919 114.6 290.238 117.423L289.355 121.08C289.112 122.089 288.324 122.876 287.315 123.12L283.659 124.003C280.836 124.684 280.836 128.699 283.659 129.381L287.315 130.263C288.324 130.507 289.112 131.295 289.355 132.303L290.238 135.96C290.919 138.783 294.935 138.783 295.616 135.96L296.499 132.303C296.742 131.295 297.53 130.507 298.539 130.263L302.195 129.381C305.018 128.699 305.018 124.684 302.195 124.003L298.539 123.12C297.53 122.876 296.742 122.089 296.499 121.08L295.616 117.423Z" fill="#6AB240"/>
<path fill-rule="evenodd" clip-rule="evenodd" d="M261.942 56.6596C262.74 58.6898 261.741 60.9827 259.711 61.7811C253.916 64.0598 246.49 71.3998 241.532 80.5358C237.757 87.49 235.924 94.5131 236.694 100.261C239.013 96.9509 241.789 94.2359 245.008 92.4918C250.78 89.3654 257.365 89.6972 263.741 94.0419C269.312 97.838 271.583 103.24 270.982 108.622C270.406 113.768 267.267 118.42 263.009 121.342C258.686 124.309 252.947 125.676 247.027 123.864C243.671 122.836 240.452 120.849 237.507 117.831C234.697 128.77 234.798 142.473 239.442 154.592C240.223 156.629 239.204 158.913 237.167 159.693C235.13 160.474 232.846 159.456 232.065 157.419C225.941 141.436 226.736 123.182 231.731 109.888C231.589 109.632 231.448 109.372 231.309 109.109C226.055 99.1883 229.2 86.6948 234.588 76.7675C240.018 66.7635 248.628 57.6508 256.82 54.4292C258.85 53.6308 261.143 54.6294 261.942 56.6596ZM240.601 109.209C243.584 113.447 246.679 115.495 249.34 116.31C252.691 117.336 255.958 116.6 258.539 114.829C261.184 113.014 262.846 110.294 263.131 107.744C263.389 105.43 262.581 102.811 259.292 100.57C255.125 97.7299 251.702 97.8506 248.771 99.4381C245.849 101.021 242.955 104.333 240.601 109.209Z" fill="#6AB240"/>
<path fill-rule="evenodd" clip-rule="evenodd" d="M389.449 211.144C348.045 195.755 316.36 214.891 306.114 225.714C303.615 228.354 299.448 228.468 296.807 225.969C294.167 223.469 294.053 219.302 296.552 216.662C309.564 202.917 346.603 181.172 394.036 198.802C397.444 200.069 399.18 203.859 397.913 207.267C396.646 210.675 392.857 212.411 389.449 211.144Z" fill="#6AB240"/>
<path fill-rule="evenodd" clip-rule="evenodd" d="M347.332 224.978C348.256 224.64 349.228 224.191 349.978 223.54C350.868 222.766 351.23 221.771 351.474 220.722C351.786 219.376 351.911 217.941 352.289 216.592C352.429 216.091 352.699 215.902 352.815 215.818C353.108 215.606 353.403 215.549 353.682 215.57C354.011 215.595 354.464 215.723 354.762 216.291C354.805 216.372 354.86 216.496 354.897 216.666C354.924 216.79 354.942 217.179 354.97 217.34C355.042 217.735 355.102 218.13 355.158 218.527C355.346 219.849 355.453 220.972 356.046 222.187C356.849 223.836 357.654 224.845 358.746 225.292C359.801 225.724 361.063 225.643 362.676 225.304C362.83 225.266 362.981 225.233 363.132 225.206C363.843 225.078 364.522 225.558 364.662 226.286C364.802 227.013 364.35 227.722 363.645 227.882C363.498 227.915 363.353 227.947 363.21 227.976C361.031 228.53 358.508 230.509 357.042 232.241C356.59 232.775 355.928 234.269 355.253 235.222C354.755 235.924 354.196 236.388 353.726 236.551C353.411 236.662 353.145 236.645 352.926 236.589C352.607 236.508 352.343 236.331 352.14 236.049C352.03 235.894 351.927 235.688 351.878 235.423C351.855 235.296 351.852 234.973 351.853 234.827C351.715 234.341 351.547 233.866 351.424 233.376C351.132 232.205 350.558 231.464 349.876 230.485C349.238 229.569 348.553 228.993 347.549 228.534C347.418 228.501 346.364 228.236 345.992 228.084C345.448 227.861 345.189 227.487 345.095 227.286C344.935 226.944 344.919 226.645 344.951 226.397C344.998 226.029 345.159 225.715 345.443 225.461C345.619 225.304 345.883 225.15 346.235 225.076C346.508 225.017 347.23 224.983 347.332 224.978ZM353.515 223.071C353.564 223.183 353.616 223.295 353.671 223.409C354.848 225.824 356.164 227.172 357.763 227.826L357.817 227.848C356.747 228.664 355.778 229.576 355.038 230.451C354.733 230.811 354.33 231.559 353.894 232.326C353.498 231.003 352.85 230.068 352.035 228.897C351.413 228.004 350.761 227.332 349.96 226.784C350.582 226.456 351.175 226.072 351.691 225.623C352.552 224.876 353.12 224.011 353.515 223.071Z" fill="#6AB240"/>
<path d="M115.581 225.667C116.293 225.026 117.392 225.088 118.028 225.806C118.67 226.522 118.609 227.625 117.898 228.266L117.897 228.266C112.676 232.963 109.714 238.777 108.854 245.745C108.739 246.699 107.872 247.376 106.919 247.256L106.918 247.256C105.971 247.136 105.29 246.263 105.411 245.309C106.377 237.484 109.716 230.945 115.581 225.667Z" fill="#6AB240" stroke="#6AB240" stroke-width="0.446618"/>
<path d="M8.98836 239.202C19.85 231.931 33.8249 234.242 41.9198 244.385C42.8285 243.203 43.8217 242.085 44.8809 241.038C55.4509 230.605 73.4347 230.572 88.8752 241.072C91.3032 242.724 93.4399 245.388 95.3029 248.688C97.1673 251.99 98.7658 255.942 100.111 260.188C102.982 269.245 104.786 279.644 105.911 287.518C106.869 283.162 108.128 278.914 109.542 274.651C115.43 256.912 120.971 238.263 132.976 223.494L133.097 223.362C133.722 222.739 134.725 222.677 135.418 223.25L135.55 223.37C136.131 223.954 136.22 224.872 135.769 225.558L135.665 225.702C123.958 240.107 118.616 258.334 112.834 275.759C111.018 281.232 109.466 286.663 108.506 292.343L108.506 292.344C108.215 294.041 107.911 295.719 107.709 297.42L107.71 297.421C107.7 297.513 107.717 297.642 107.755 297.813L107.88 298.351L107.881 298.353C107.976 298.868 108.034 299.379 107.997 299.771L107.998 299.773C107.925 300.486 107.601 301.007 107.152 301.345L107.151 301.346C106.819 301.593 106.387 301.771 105.818 301.761L105.816 301.761C105.418 301.749 104.807 301.638 104.364 300.926L104.364 300.925C104.329 300.869 104.293 300.784 104.259 300.687C104.223 300.581 104.181 300.444 104.138 300.277C104.052 299.941 103.958 299.478 103.879 298.893L103.879 298.892C103.26 294.209 101.657 278.199 97.7114 264.269C96.4448 259.796 94.9614 255.537 93.1853 251.984C91.4073 248.427 89.3459 245.597 86.9347 243.956C72.9457 234.444 56.773 234.193 47.3129 243.527C46.0662 244.758 44.9307 246.096 43.926 247.529C44.3104 248.523 44.6702 249.871 44.877 251.277C45.0916 252.736 45.1463 254.275 44.8891 255.552L44.8892 255.553C44.6193 256.89 44.0157 257.978 43.1011 258.635C42.1479 259.321 40.8329 259.61 39.0758 259.043C37.6882 258.594 37.0039 257.425 36.9 255.983C36.7987 254.641 37.265 253.006 37.5493 252.234C38.1674 250.553 38.9496 248.941 39.8606 247.412C33.1146 238.132 20.936 235.733 11.3727 241.807L10.9171 242.105C10.117 242.639 9.04185 242.419 8.50682 241.62L8.50651 241.618C7.97849 240.818 8.18856 239.736 8.98836 239.202ZM41.4927 251.772C41.2443 252.322 41.0147 252.881 40.8023 253.451C40.6474 253.875 40.3967 254.668 40.3565 255.402C40.3518 255.51 40.3695 255.667 40.3861 255.795C40.5421 255.838 40.6717 255.866 40.7821 255.871C40.9185 255.876 41.0092 255.851 41.0775 255.801L41.0783 255.8C41.183 255.725 41.2638 255.61 41.33 255.446C41.397 255.281 41.4431 255.082 41.4891 254.855C41.6725 253.954 41.6412 252.844 41.4927 251.772Z" fill="#6AB240" stroke="#6AB240" stroke-width="0.446618"/>
</g>
<defs>
<linearGradient id="paint0_linear_682_1472" x1="219.319" y1="25.6248" x2="222.488" y2="568.932" gradientUnits="userSpaceOnUse">
<stop stop-color="#F9FAFA"/>
<stop offset="1" stop-color="#F9FAFA"/>
</linearGradient>
<clipPath id="clip0_682_1472">
<rect width="419" height="419" fill="white"/>
</clipPath>
</defs>
</svg>
